<mxfile host="app.diagrams.net" modified="2024-06-02T20:13:41.377Z" agent="Mozilla/5.0 (Windows NT 10.0; Win64; x64; rv:126.0) Gecko/20100101 Firefox/126.0" etag="HB6xnN5z2mVgEkb46rFU" version="24.4.8" type="device">
  <diagram name="Page-1" id="S4BePfmB1y045cD9m4js">
    <mxGraphModel dx="9560" dy="8153" grid="1" gridSize="10" guides="1" tooltips="1" connect="1" arrows="1" fold="1" page="1" pageScale="1" pageWidth="3000" pageHeight="3000" math="0" shadow="0">
      <root>
        <mxCell id="0" />
        <mxCell id="1" parent="0" />
        <mxCell id="WF0BPh4e2S1r3RLNXFHs-173" value="" style="rounded=0;whiteSpace=wrap;html=1;movable=1;resizable=1;rotatable=1;deletable=1;editable=1;locked=0;connectable=1;" vertex="1" parent="1">
          <mxGeometry x="3480" y="946" width="870" height="834" as="geometry" />
        </mxCell>
        <mxCell id="WF0BPh4e2S1r3RLNXFHs-174" value="" style="rounded=0;whiteSpace=wrap;html=1;dashed=1;strokeColor=#FF6666;movable=1;resizable=1;rotatable=1;deletable=1;editable=1;locked=0;connectable=1;" vertex="1" parent="1">
          <mxGeometry x="3522" y="1241" width="790" height="489" as="geometry" />
        </mxCell>
        <mxCell id="WF0BPh4e2S1r3RLNXFHs-195" value="" style="rounded=0;whiteSpace=wrap;html=1;fillColor=#008a00;fontColor=#000000;strokeColor=#005700;" vertex="1" parent="1">
          <mxGeometry x="3837.5" y="1566" width="139.5" height="120" as="geometry" />
        </mxCell>
        <mxCell id="WF0BPh4e2S1r3RLNXFHs-107" value="" style="rounded=0;whiteSpace=wrap;html=1;movable=1;resizable=1;rotatable=1;deletable=1;editable=1;locked=0;connectable=1;" vertex="1" parent="1">
          <mxGeometry x="3480" y="2960" width="870" height="1330" as="geometry" />
        </mxCell>
        <mxCell id="pSPQVaGW6Lw5AcyymQ0v-50" value="" style="rounded=0;whiteSpace=wrap;html=1;dashed=1;strokeColor=#FF6666;movable=1;resizable=1;rotatable=1;deletable=1;editable=1;locked=0;connectable=1;" parent="1" vertex="1">
          <mxGeometry x="830" y="1090" width="740" height="445" as="geometry" />
        </mxCell>
        <mxCell id="pSPQVaGW6Lw5AcyymQ0v-27" value="" style="rounded=0;whiteSpace=wrap;html=1;movable=1;resizable=1;rotatable=1;deletable=1;editable=1;locked=0;connectable=1;" parent="1" vertex="1">
          <mxGeometry x="800" y="800" width="870" height="800" as="geometry" />
        </mxCell>
        <mxCell id="WF0BPh4e2S1r3RLNXFHs-5" value="" style="shape=cylinder3;whiteSpace=wrap;html=1;boundedLbl=1;backgroundOutline=1;size=15;fillColor=#008a00;fontColor=#ffffff;strokeColor=#005700;" vertex="1" parent="1">
          <mxGeometry x="850" y="1330" width="140" height="150" as="geometry" />
        </mxCell>
        <mxCell id="pSPQVaGW6Lw5AcyymQ0v-26" value="" style="rounded=0;whiteSpace=wrap;html=1;" parent="1" vertex="1">
          <mxGeometry x="221" y="200" width="489" height="540" as="geometry" />
        </mxCell>
        <mxCell id="pSPQVaGW6Lw5AcyymQ0v-8" value="&lt;div&gt;[System Context] Card Store System&lt;/div&gt;&lt;div&gt;The system context diagram of the Card Store System&lt;br&gt;&lt;/div&gt;" style="text;strokeColor=none;align=left;fillColor=none;html=1;verticalAlign=middle;whiteSpace=wrap;rounded=0;" parent="1" vertex="1">
          <mxGeometry x="231.5" y="700" width="349" height="30" as="geometry" />
        </mxCell>
        <mxCell id="pSPQVaGW6Lw5AcyymQ0v-20" style="edgeStyle=orthogonalEdgeStyle;rounded=0;orthogonalLoop=1;jettySize=auto;html=1;entryX=0.5;entryY=0;entryDx=0;entryDy=0;strokeColor=default;dashed=1;" parent="1" source="pSPQVaGW6Lw5AcyymQ0v-13" target="pSPQVaGW6Lw5AcyymQ0v-17" edge="1">
          <mxGeometry relative="1" as="geometry" />
        </mxCell>
        <mxCell id="pSPQVaGW6Lw5AcyymQ0v-13" value="" style="rounded=0;whiteSpace=wrap;html=1;fillColor=#d5e8d4;strokeColor=#82b366;gradientColor=#97d077;" parent="1" vertex="1">
          <mxGeometry x="410" y="291" width="120" height="100" as="geometry" />
        </mxCell>
        <mxCell id="pSPQVaGW6Lw5AcyymQ0v-14" value="" style="ellipse;whiteSpace=wrap;html=1;aspect=fixed;fillColor=#d5e8d4;strokeColor=#82b366;gradientColor=#97d077;" parent="1" vertex="1">
          <mxGeometry x="445.5" y="240" width="51" height="51" as="geometry" />
        </mxCell>
        <mxCell id="pSPQVaGW6Lw5AcyymQ0v-15" value="&lt;div&gt;&lt;b&gt;&lt;font style=&quot;font-size: 14px;&quot;&gt;Player&lt;/font&gt;&lt;/b&gt;&lt;/div&gt;&lt;div&gt;&lt;font style=&quot;font-size: 10px;&quot;&gt;[Person]&lt;/font&gt;&lt;/div&gt;&lt;div&gt;&lt;br&gt;&lt;/div&gt;&lt;div&gt;A player who purchases and sells cards&lt;br&gt;&lt;/div&gt;" style="text;strokeColor=none;align=center;fillColor=none;html=1;verticalAlign=middle;whiteSpace=wrap;rounded=0;" parent="1" vertex="1">
          <mxGeometry x="410" y="326" width="120" height="30" as="geometry" />
        </mxCell>
        <mxCell id="pSPQVaGW6Lw5AcyymQ0v-17" value="" style="rounded=0;whiteSpace=wrap;html=1;fillColor=#008a00;fontColor=#ffffff;strokeColor=#005700;" parent="1" vertex="1">
          <mxGeometry x="400" y="500" width="140" height="120" as="geometry" />
        </mxCell>
        <mxCell id="pSPQVaGW6Lw5AcyymQ0v-18" value="&lt;div style=&quot;font-size: 14px;&quot;&gt;&lt;b&gt;Card Store System&lt;/b&gt;&lt;br&gt;&lt;/div&gt;&lt;div style=&quot;font-size: 10px;&quot;&gt;[Software System]&lt;/div&gt;&lt;div&gt;&lt;br&gt;&lt;/div&gt;&lt;div&gt;Allows customer to create an account, view information about their cards and buy or sell cards&lt;br&gt;&lt;/div&gt;" style="text;strokeColor=none;align=center;fillColor=none;html=1;verticalAlign=middle;whiteSpace=wrap;rounded=0;" parent="1" vertex="1">
          <mxGeometry x="400" y="545" width="140" height="30" as="geometry" />
        </mxCell>
        <mxCell id="pSPQVaGW6Lw5AcyymQ0v-21" value="Creates account, views all cards,&amp;nbsp; possessed cards, and purchase or sell cards" style="text;html=1;align=center;verticalAlign=middle;whiteSpace=wrap;rounded=0;fillColor=none;" parent="1" vertex="1">
          <mxGeometry x="396" y="411" width="144" height="60" as="geometry" />
        </mxCell>
        <mxCell id="pSPQVaGW6Lw5AcyymQ0v-28" value="&lt;div&gt;[Container] Card Store System&lt;br&gt;&lt;/div&gt;&lt;div&gt;The container diagram of the Card Store System&lt;br&gt;&lt;/div&gt;" style="text;strokeColor=none;align=left;fillColor=none;html=1;verticalAlign=middle;whiteSpace=wrap;rounded=0;" parent="1" vertex="1">
          <mxGeometry x="810" y="1554" width="349" height="30" as="geometry" />
        </mxCell>
        <mxCell id="pSPQVaGW6Lw5AcyymQ0v-52" style="edgeStyle=orthogonalEdgeStyle;rounded=0;orthogonalLoop=1;jettySize=auto;html=1;entryX=0.5;entryY=0;entryDx=0;entryDy=0;dashed=1;" parent="1" source="pSPQVaGW6Lw5AcyymQ0v-30" target="pSPQVaGW6Lw5AcyymQ0v-40" edge="1">
          <mxGeometry relative="1" as="geometry" />
        </mxCell>
        <mxCell id="pSPQVaGW6Lw5AcyymQ0v-30" value="" style="rounded=0;whiteSpace=wrap;html=1;fillColor=#d5e8d4;gradientColor=#97d077;strokeColor=#82b366;" parent="1" vertex="1">
          <mxGeometry x="1318" y="881" width="120" height="100" as="geometry" />
        </mxCell>
        <mxCell id="pSPQVaGW6Lw5AcyymQ0v-31" value="" style="ellipse;whiteSpace=wrap;html=1;aspect=fixed;fillColor=#d5e8d4;gradientColor=#97d077;strokeColor=#82b366;" parent="1" vertex="1">
          <mxGeometry x="1353.5" y="830" width="51" height="51" as="geometry" />
        </mxCell>
        <mxCell id="pSPQVaGW6Lw5AcyymQ0v-32" value="&lt;div&gt;&lt;font style=&quot;font-size: 14px;&quot;&gt;&lt;b&gt;Player&lt;/b&gt;&lt;/font&gt;&lt;/div&gt;&lt;div style=&quot;font-size: 11px;&quot;&gt;&lt;font style=&quot;font-size: 10px;&quot;&gt;[Person]&lt;/font&gt;&lt;/div&gt;&lt;div&gt;&lt;br&gt;&lt;/div&gt;&lt;div&gt;A player who purchases and sells cards&lt;br&gt;&lt;/div&gt;" style="text;strokeColor=none;align=center;fillColor=none;html=1;verticalAlign=middle;whiteSpace=wrap;rounded=0;" parent="1" vertex="1">
          <mxGeometry x="1318" y="916" width="120" height="30" as="geometry" />
        </mxCell>
        <mxCell id="pSPQVaGW6Lw5AcyymQ0v-36" value="" style="endArrow=classic;html=1;rounded=0;exitX=1;exitY=1;exitDx=0;exitDy=0;entryX=0;entryY=0;entryDx=0;entryDy=0;" parent="1" source="pSPQVaGW6Lw5AcyymQ0v-17" target="pSPQVaGW6Lw5AcyymQ0v-27" edge="1">
          <mxGeometry width="50" height="50" relative="1" as="geometry">
            <mxPoint x="1020" y="810" as="sourcePoint" />
            <mxPoint x="1030" y="740" as="targetPoint" />
          </mxGeometry>
        </mxCell>
        <mxCell id="pSPQVaGW6Lw5AcyymQ0v-39" value="" style="rounded=0;whiteSpace=wrap;html=1;" parent="1" vertex="1">
          <mxGeometry x="1307.5" y="1109" width="140" height="120" as="geometry" />
        </mxCell>
        <mxCell id="pSPQVaGW6Lw5AcyymQ0v-54" style="edgeStyle=orthogonalEdgeStyle;rounded=0;orthogonalLoop=1;jettySize=auto;html=1;dashed=1;" parent="1" source="pSPQVaGW6Lw5AcyymQ0v-40" target="pSPQVaGW6Lw5AcyymQ0v-42" edge="1">
          <mxGeometry relative="1" as="geometry" />
        </mxCell>
        <mxCell id="pSPQVaGW6Lw5AcyymQ0v-40" value="&lt;div style=&quot;font-size: 14px;&quot;&gt;&lt;b&gt;Web Application&lt;/b&gt;&lt;br&gt;&lt;/div&gt;&lt;div&gt;[Container : Next.js]&lt;/div&gt;&lt;div&gt;&lt;br&gt;&lt;/div&gt;&lt;div&gt;Provides all of the store functionnalities to players via their web browser&lt;br&gt;&lt;/div&gt;" style="text;strokeColor=#005700;align=center;fillColor=#008a00;html=1;verticalAlign=middle;whiteSpace=wrap;rounded=0;fontColor=#000000;" parent="1" vertex="1">
          <mxGeometry x="1307.5" y="1109" width="140" height="120" as="geometry" />
        </mxCell>
        <mxCell id="pSPQVaGW6Lw5AcyymQ0v-41" value="" style="rounded=0;whiteSpace=wrap;html=1;" parent="1" vertex="1">
          <mxGeometry x="1308.5" y="1330" width="140" height="120" as="geometry" />
        </mxCell>
        <mxCell id="pSPQVaGW6Lw5AcyymQ0v-42" value="&lt;div style=&quot;font-size: 14px;&quot;&gt;&lt;b&gt;API Application&lt;/b&gt;&lt;br&gt;&lt;/div&gt;&lt;div style=&quot;font-size: 10px;&quot;&gt;[Container : Java and Spring Boot]&lt;/div&gt;&lt;div&gt;&lt;br&gt;&lt;/div&gt;&lt;div&gt;Provides store&#39;s functionnalities via a RESTful API&lt;/div&gt;" style="text;strokeColor=#005700;align=center;fillColor=#008a00;html=1;verticalAlign=middle;whiteSpace=wrap;rounded=0;fontColor=#000000;" parent="1" vertex="1">
          <mxGeometry x="1307.5" y="1330" width="140" height="120" as="geometry" />
        </mxCell>
        <mxCell id="pSPQVaGW6Lw5AcyymQ0v-45" value="" style="shape=cylinder3;whiteSpace=wrap;html=1;boundedLbl=1;backgroundOutline=1;size=15;fillColor=#008a00;fontColor=#ffffff;strokeColor=#005700;" parent="1" vertex="1">
          <mxGeometry x="860" y="1315" width="140" height="150" as="geometry" />
        </mxCell>
        <mxCell id="pSPQVaGW6Lw5AcyymQ0v-49" value="&lt;div style=&quot;font-size: 14px;&quot;&gt;&lt;b&gt;Databases&lt;/b&gt;&lt;br&gt;&lt;/div&gt;&lt;div style=&quot;font-size: 10px;&quot;&gt;[Container : PostgresSQL]&lt;/div&gt;&lt;div&gt;&lt;br&gt;&lt;/div&gt;&lt;div&gt;Stores card collection, player cards information, hashed authentication credentials&lt;br&gt;&lt;/div&gt;" style="text;strokeColor=none;align=center;fillColor=none;html=1;verticalAlign=middle;whiteSpace=wrap;rounded=0;" parent="1" vertex="1">
          <mxGeometry x="860" y="1345" width="140" height="120" as="geometry" />
        </mxCell>
        <mxCell id="pSPQVaGW6Lw5AcyymQ0v-51" value="&lt;div align=&quot;left&quot;&gt;&lt;font color=&quot;#ff8080&quot;&gt;Card Store System&lt;/font&gt;&lt;/div&gt;&lt;div align=&quot;left&quot;&gt;&lt;font color=&quot;#ff8080&quot;&gt;[Software System] &lt;br&gt;&lt;/font&gt;&lt;/div&gt;" style="text;strokeColor=none;align=left;fillColor=none;html=1;verticalAlign=middle;whiteSpace=wrap;rounded=0;" parent="1" vertex="1">
          <mxGeometry x="840.5" y="1495" width="349" height="30" as="geometry" />
        </mxCell>
        <mxCell id="pSPQVaGW6Lw5AcyymQ0v-53" value="&lt;div&gt;Creates account, views all cards,&amp;nbsp; possessed cards, and purchase or sell cards using&amp;nbsp;&lt;/div&gt;&lt;div&gt;[HTTPS]&lt;br&gt;&lt;/div&gt;" style="text;html=1;align=center;verticalAlign=middle;whiteSpace=wrap;rounded=0;fillColor=none;" parent="1" vertex="1">
          <mxGeometry x="1306" y="1000" width="144" height="80" as="geometry" />
        </mxCell>
        <mxCell id="pSPQVaGW6Lw5AcyymQ0v-56" value="&lt;div&gt;Makes API calls to&lt;/div&gt;&lt;div&gt;[JSON/HTTPS]&lt;br&gt;&lt;/div&gt;" style="text;html=1;align=center;verticalAlign=middle;whiteSpace=wrap;rounded=0;fillColor=none;" parent="1" vertex="1">
          <mxGeometry x="1304.5" y="1250" width="144" height="60" as="geometry" />
        </mxCell>
        <mxCell id="pSPQVaGW6Lw5AcyymQ0v-61" style="edgeStyle=orthogonalEdgeStyle;rounded=0;orthogonalLoop=1;jettySize=auto;html=1;entryX=1.032;entryY=0.371;entryDx=0;entryDy=0;entryPerimeter=0;dashed=1;" parent="1" source="pSPQVaGW6Lw5AcyymQ0v-42" target="pSPQVaGW6Lw5AcyymQ0v-49" edge="1">
          <mxGeometry relative="1" as="geometry" />
        </mxCell>
        <mxCell id="pSPQVaGW6Lw5AcyymQ0v-57" value="&lt;div&gt;Reads from and writes to&lt;br&gt;&lt;/div&gt;&lt;div&gt;[SQL/TCP]&lt;br&gt;&lt;/div&gt;" style="text;html=1;align=center;verticalAlign=middle;whiteSpace=wrap;rounded=0;fillColor=none;" parent="1" vertex="1">
          <mxGeometry x="1080" y="1360" width="144" height="60" as="geometry" />
        </mxCell>
        <mxCell id="pSPQVaGW6Lw5AcyymQ0v-100" value="" style="rounded=0;whiteSpace=wrap;html=1;movable=1;resizable=1;rotatable=1;deletable=1;editable=1;locked=0;connectable=1;" parent="1" vertex="1">
          <mxGeometry x="1930" y="1680" width="1360" height="1480" as="geometry" />
        </mxCell>
        <mxCell id="pSPQVaGW6Lw5AcyymQ0v-101" value="" style="rounded=0;whiteSpace=wrap;html=1;dashed=1;strokeColor=#FF6666;movable=1;resizable=1;rotatable=1;deletable=1;editable=1;locked=0;connectable=1;" parent="1" vertex="1">
          <mxGeometry x="1960" y="1896" width="1300" height="964" as="geometry" />
        </mxCell>
        <mxCell id="pSPQVaGW6Lw5AcyymQ0v-102" value="&lt;div&gt;[Component] Card Store System - API Application&lt;br&gt;&lt;/div&gt;&lt;div&gt;The component diagram of the API Application&lt;br&gt;&lt;/div&gt;" style="text;strokeColor=none;align=left;fillColor=none;html=1;verticalAlign=middle;whiteSpace=wrap;rounded=0;" parent="1" vertex="1">
          <mxGeometry x="1945" y="3120" width="349" height="30" as="geometry" />
        </mxCell>
        <mxCell id="pSPQVaGW6Lw5AcyymQ0v-107" value="" style="rounded=0;whiteSpace=wrap;html=1;" parent="1" vertex="1">
          <mxGeometry x="2417.5" y="1700" width="140" height="120" as="geometry" />
        </mxCell>
        <mxCell id="pSPQVaGW6Lw5AcyymQ0v-158" style="edgeStyle=orthogonalEdgeStyle;rounded=0;orthogonalLoop=1;jettySize=auto;html=1;entryX=0.5;entryY=0;entryDx=0;entryDy=0;dashed=1;" parent="1" source="pSPQVaGW6Lw5AcyymQ0v-109" edge="1">
          <mxGeometry relative="1" as="geometry">
            <mxPoint x="2490" y="2151" as="targetPoint" />
          </mxGeometry>
        </mxCell>
        <mxCell id="pSPQVaGW6Lw5AcyymQ0v-109" value="&lt;div&gt;Web Application&lt;br&gt;&lt;/div&gt;&lt;div&gt;[Container : Next.js]&lt;/div&gt;&lt;div&gt;&lt;br&gt;&lt;/div&gt;&lt;div&gt;Provides all of the store functionnalities to players via their web browser&lt;br&gt;&lt;/div&gt;" style="text;strokeColor=none;align=center;fillColor=none;html=1;verticalAlign=middle;whiteSpace=wrap;rounded=0;" parent="1" vertex="1">
          <mxGeometry x="2420" y="1700" width="140" height="120" as="geometry" />
        </mxCell>
        <mxCell id="pSPQVaGW6Lw5AcyymQ0v-112" value="" style="shape=cylinder3;whiteSpace=wrap;html=1;boundedLbl=1;backgroundOutline=1;size=15;fillColor=#008a00;fontColor=#ffffff;strokeColor=#005700;" parent="1" vertex="1">
          <mxGeometry x="2110" y="2900" width="140" height="150" as="geometry" />
        </mxCell>
        <mxCell id="pSPQVaGW6Lw5AcyymQ0v-113" value="&lt;div style=&quot;font-size: 14px;&quot;&gt;&lt;b&gt;Database&lt;/b&gt;&lt;br&gt;&lt;/div&gt;&lt;div style=&quot;font-size: 10px;&quot;&gt;[Container : PostgresSQL]&lt;/div&gt;&lt;div&gt;&lt;br&gt;&lt;/div&gt;&lt;div&gt;Stores authentication tokens information&lt;br&gt;&lt;/div&gt;" style="text;strokeColor=none;align=center;fillColor=none;html=1;verticalAlign=middle;whiteSpace=wrap;rounded=0;" parent="1" vertex="1">
          <mxGeometry x="2110" y="2930" width="140" height="120" as="geometry" />
        </mxCell>
        <mxCell id="pSPQVaGW6Lw5AcyymQ0v-114" value="&lt;div align=&quot;left&quot;&gt;&lt;font color=&quot;#ff8080&quot;&gt;API Application&lt;br&gt;&lt;/font&gt;&lt;/div&gt;&lt;div align=&quot;left&quot;&gt;&lt;font color=&quot;#ff8080&quot;&gt;[Container] &lt;br&gt;&lt;/font&gt;&lt;/div&gt;" style="text;strokeColor=none;align=left;fillColor=none;html=1;verticalAlign=middle;whiteSpace=wrap;rounded=0;" parent="1" vertex="1">
          <mxGeometry x="1975.5" y="2820" width="349" height="30" as="geometry" />
        </mxCell>
        <mxCell id="pSPQVaGW6Lw5AcyymQ0v-120" value="" style="endArrow=classic;html=1;rounded=0;entryX=0;entryY=0;entryDx=0;entryDy=0;exitX=1;exitY=1;exitDx=0;exitDy=0;" parent="1" source="pSPQVaGW6Lw5AcyymQ0v-42" target="pSPQVaGW6Lw5AcyymQ0v-100" edge="1">
          <mxGeometry width="50" height="50" relative="1" as="geometry">
            <mxPoint x="2210" y="1680" as="sourcePoint" />
            <mxPoint x="2260" y="1630" as="targetPoint" />
          </mxGeometry>
        </mxCell>
        <mxCell id="pSPQVaGW6Lw5AcyymQ0v-121" value="" style="rounded=0;whiteSpace=wrap;html=1;movable=0;resizable=0;rotatable=0;deletable=0;editable=0;locked=1;connectable=0;" parent="1" vertex="1">
          <mxGeometry x="1770" y="-710" width="1180" height="1370" as="geometry" />
        </mxCell>
        <mxCell id="pSPQVaGW6Lw5AcyymQ0v-122" value="" style="rounded=0;whiteSpace=wrap;html=1;dashed=1;strokeColor=#FF6666;movable=1;resizable=1;rotatable=1;deletable=1;editable=1;locked=0;connectable=1;" parent="1" vertex="1">
          <mxGeometry x="1800.5" y="-390" width="1119.5" height="710" as="geometry" />
        </mxCell>
        <mxCell id="pSPQVaGW6Lw5AcyymQ0v-123" value="&lt;div&gt;[Component] Card Store System - Web Application&lt;br&gt;&lt;/div&gt;&lt;div&gt;The component diagram for the Web Application&lt;br&gt;&lt;/div&gt;" style="text;strokeColor=none;align=left;fillColor=none;html=1;verticalAlign=middle;whiteSpace=wrap;rounded=0;" parent="1" vertex="1">
          <mxGeometry x="1780" y="614" width="349" height="30" as="geometry" />
        </mxCell>
        <mxCell id="pSPQVaGW6Lw5AcyymQ0v-131" value="" style="rounded=0;whiteSpace=wrap;html=1;" parent="1" vertex="1">
          <mxGeometry x="2292" y="436" width="140" height="120" as="geometry" />
        </mxCell>
        <mxCell id="pSPQVaGW6Lw5AcyymQ0v-132" value="&lt;div&gt;&lt;b&gt;&lt;font style=&quot;font-size: 14px;&quot;&gt;API Application&lt;/font&gt;&lt;/b&gt;&lt;br&gt;&lt;/div&gt;&lt;div style=&quot;font-size: 10px;&quot;&gt;[Container : Java and Spring Boot]&lt;/div&gt;&lt;div&gt;&lt;br&gt;&lt;/div&gt;&lt;div&gt;Provides store&#39;s functionnalities via a RESTful API&lt;/div&gt;" style="text;strokeColor=#005700;align=center;fillColor=#008a00;html=1;verticalAlign=middle;whiteSpace=wrap;rounded=0;fontColor=#000000;" parent="1" vertex="1">
          <mxGeometry x="2291" y="436" width="140" height="120" as="geometry" />
        </mxCell>
        <mxCell id="pSPQVaGW6Lw5AcyymQ0v-135" value="&lt;div align=&quot;left&quot;&gt;&lt;font color=&quot;#ff8080&quot;&gt;Web Application&lt;br&gt;&lt;/font&gt;&lt;/div&gt;&lt;div align=&quot;left&quot;&gt;&lt;font color=&quot;#ff8080&quot;&gt;[Container] &lt;br&gt;&lt;/font&gt;&lt;/div&gt;" style="text;strokeColor=none;align=left;fillColor=none;html=1;verticalAlign=middle;whiteSpace=wrap;rounded=0;" parent="1" vertex="1">
          <mxGeometry x="1811" y="280" width="349" height="30" as="geometry" />
        </mxCell>
        <mxCell id="pSPQVaGW6Lw5AcyymQ0v-140" value="" style="endArrow=classic;html=1;rounded=0;entryX=0;entryY=1;entryDx=0;entryDy=0;exitX=1;exitY=1;exitDx=0;exitDy=0;" parent="1" target="pSPQVaGW6Lw5AcyymQ0v-121" edge="1">
          <mxGeometry width="50" height="50" relative="1" as="geometry">
            <mxPoint x="1447.5" y="1109" as="sourcePoint" />
            <mxPoint x="1759.5" y="1339" as="targetPoint" />
          </mxGeometry>
        </mxCell>
        <mxCell id="pSPQVaGW6Lw5AcyymQ0v-180" style="edgeStyle=orthogonalEdgeStyle;rounded=0;orthogonalLoop=1;jettySize=auto;html=1;entryX=0.5;entryY=0;entryDx=0;entryDy=0;entryPerimeter=0;dashed=1;" parent="1" source="WF0BPh4e2S1r3RLNXFHs-62" target="pSPQVaGW6Lw5AcyymQ0v-112" edge="1">
          <mxGeometry relative="1" as="geometry">
            <mxPoint x="2180" y="2710" as="sourcePoint" />
          </mxGeometry>
        </mxCell>
        <mxCell id="pSPQVaGW6Lw5AcyymQ0v-118" value="&lt;div&gt;Reads from and writes to&lt;br&gt;&lt;/div&gt;&lt;div&gt;[JDBC]&lt;br&gt;&lt;/div&gt;" style="text;html=1;align=center;verticalAlign=middle;whiteSpace=wrap;rounded=0;fillColor=none;" parent="1" vertex="1">
          <mxGeometry x="2109.5" y="2711" width="144" height="60" as="geometry" />
        </mxCell>
        <mxCell id="pSPQVaGW6Lw5AcyymQ0v-219" style="edgeStyle=orthogonalEdgeStyle;rounded=0;orthogonalLoop=1;jettySize=auto;html=1;dashed=1;" parent="1" source="pSPQVaGW6Lw5AcyymQ0v-182" target="pSPQVaGW6Lw5AcyymQ0v-191" edge="1">
          <mxGeometry relative="1" as="geometry" />
        </mxCell>
        <mxCell id="pSPQVaGW6Lw5AcyymQ0v-221" style="edgeStyle=orthogonalEdgeStyle;rounded=0;orthogonalLoop=1;jettySize=auto;html=1;dashed=1;" parent="1" source="pSPQVaGW6Lw5AcyymQ0v-182" target="pSPQVaGW6Lw5AcyymQ0v-190" edge="1">
          <mxGeometry relative="1" as="geometry" />
        </mxCell>
        <mxCell id="pSPQVaGW6Lw5AcyymQ0v-222" style="edgeStyle=orthogonalEdgeStyle;rounded=0;orthogonalLoop=1;jettySize=auto;html=1;dashed=1;" parent="1" source="pSPQVaGW6Lw5AcyymQ0v-182" target="pSPQVaGW6Lw5AcyymQ0v-192" edge="1">
          <mxGeometry relative="1" as="geometry" />
        </mxCell>
        <mxCell id="pSPQVaGW6Lw5AcyymQ0v-182" value="" style="rounded=0;whiteSpace=wrap;html=1;fillColor=#d5e8d4;gradientColor=#97d077;strokeColor=#82b366;" parent="1" vertex="1">
          <mxGeometry x="2300" y="-629" width="120" height="100" as="geometry" />
        </mxCell>
        <mxCell id="pSPQVaGW6Lw5AcyymQ0v-183" value="" style="ellipse;whiteSpace=wrap;html=1;aspect=fixed;fillColor=#d5e8d4;gradientColor=#97d077;strokeColor=#82b366;" parent="1" vertex="1">
          <mxGeometry x="2335.5" y="-680" width="51" height="51" as="geometry" />
        </mxCell>
        <mxCell id="pSPQVaGW6Lw5AcyymQ0v-218" style="edgeStyle=orthogonalEdgeStyle;rounded=0;orthogonalLoop=1;jettySize=auto;html=1;entryX=0.5;entryY=0;entryDx=0;entryDy=0;dashed=1;" parent="1" source="pSPQVaGW6Lw5AcyymQ0v-184" target="pSPQVaGW6Lw5AcyymQ0v-186" edge="1">
          <mxGeometry relative="1" as="geometry" />
        </mxCell>
        <mxCell id="WF0BPh4e2S1r3RLNXFHs-2" value="" style="edgeStyle=orthogonalEdgeStyle;rounded=0;orthogonalLoop=1;jettySize=auto;html=1;" edge="1" parent="1" source="pSPQVaGW6Lw5AcyymQ0v-184" target="pSPQVaGW6Lw5AcyymQ0v-183">
          <mxGeometry relative="1" as="geometry" />
        </mxCell>
        <mxCell id="pSPQVaGW6Lw5AcyymQ0v-184" value="&lt;div style=&quot;font-size: 14px;&quot;&gt;&lt;b&gt;Player&lt;/b&gt;&lt;/div&gt;&lt;div style=&quot;font-size: 10px;&quot;&gt;[Person]&lt;/div&gt;&lt;div&gt;&lt;br&gt;&lt;/div&gt;&lt;div&gt;A player who purchases and sells cards&lt;br&gt;&lt;/div&gt;" style="text;strokeColor=none;align=center;fillColor=none;html=1;verticalAlign=middle;whiteSpace=wrap;rounded=0;" parent="1" vertex="1">
          <mxGeometry x="2300" y="-594" width="120" height="30" as="geometry" />
        </mxCell>
        <mxCell id="pSPQVaGW6Lw5AcyymQ0v-185" value="&lt;div&gt;Views user cards&lt;/div&gt;&lt;div&gt;[HTTPS]&lt;br&gt;&lt;/div&gt;" style="text;html=1;align=center;verticalAlign=middle;whiteSpace=wrap;rounded=0;fillColor=none;" parent="1" vertex="1">
          <mxGeometry x="2288" y="-510" width="144" height="80" as="geometry" />
        </mxCell>
        <mxCell id="pSPQVaGW6Lw5AcyymQ0v-194" style="edgeStyle=orthogonalEdgeStyle;rounded=0;orthogonalLoop=1;jettySize=auto;html=1;entryX=0.5;entryY=0;entryDx=0;entryDy=0;dashed=1;" parent="1" source="pSPQVaGW6Lw5AcyymQ0v-186" target="pSPQVaGW6Lw5AcyymQ0v-187" edge="1">
          <mxGeometry relative="1" as="geometry" />
        </mxCell>
        <mxCell id="pSPQVaGW6Lw5AcyymQ0v-195" style="edgeStyle=orthogonalEdgeStyle;rounded=0;orthogonalLoop=1;jettySize=auto;html=1;dashed=1;" parent="1" source="pSPQVaGW6Lw5AcyymQ0v-186" target="pSPQVaGW6Lw5AcyymQ0v-189" edge="1">
          <mxGeometry relative="1" as="geometry">
            <Array as="points">
              <mxPoint x="1910" y="70" />
              <mxPoint x="2360" y="70" />
            </Array>
          </mxGeometry>
        </mxCell>
        <mxCell id="pSPQVaGW6Lw5AcyymQ0v-186" value="&lt;div style=&quot;font-size: 14px;&quot;&gt;&lt;b&gt;Purchase View&lt;/b&gt;&lt;/div&gt;&lt;div style=&quot;font-size: 10px;&quot;&gt;[Component : Next.js file]&lt;/div&gt;&lt;div&gt;&lt;br&gt;&lt;/div&gt;&lt;div&gt;Allows players to purchase cards&lt;br&gt;&lt;/div&gt;" style="rounded=0;whiteSpace=wrap;html=1;fillColor=#008a00;fontColor=#000000;strokeColor=#005700;" parent="1" vertex="1">
          <mxGeometry x="1840" y="-360" width="140" height="120" as="geometry" />
        </mxCell>
        <mxCell id="pSPQVaGW6Lw5AcyymQ0v-207" style="edgeStyle=orthogonalEdgeStyle;rounded=0;orthogonalLoop=1;jettySize=auto;html=1;dashed=1;" parent="1" source="pSPQVaGW6Lw5AcyymQ0v-187" target="pSPQVaGW6Lw5AcyymQ0v-132" edge="1">
          <mxGeometry relative="1" as="geometry">
            <Array as="points">
              <mxPoint x="1909" y="300" />
              <mxPoint x="2360" y="300" />
            </Array>
          </mxGeometry>
        </mxCell>
        <mxCell id="pSPQVaGW6Lw5AcyymQ0v-187" value="&lt;font style=&quot;font-size: 14px;&quot;&gt;&lt;b&gt;Market Request Helper&lt;/b&gt;&lt;/font&gt;&lt;div style=&quot;font-size: 10px;&quot;&gt;&lt;div&gt;[Component : Next.js file]&lt;/div&gt;&lt;div&gt;&lt;br&gt;&lt;/div&gt;&lt;div&gt;Provides functionnality to request API Application&#39;s market endpoints&lt;br&gt;&lt;/div&gt;&lt;/div&gt;" style="rounded=0;whiteSpace=wrap;html=1;fillColor=#008a00;fontColor=#000000;strokeColor=#005700;" parent="1" vertex="1">
          <mxGeometry x="1839" y="130" width="140" height="120" as="geometry" />
        </mxCell>
        <mxCell id="pSPQVaGW6Lw5AcyymQ0v-210" style="edgeStyle=orthogonalEdgeStyle;rounded=0;orthogonalLoop=1;jettySize=auto;html=1;dashed=1;" parent="1" source="pSPQVaGW6Lw5AcyymQ0v-188" edge="1">
          <mxGeometry relative="1" as="geometry">
            <mxPoint x="2360" y="430" as="targetPoint" />
            <Array as="points">
              <mxPoint x="2708" y="300" />
              <mxPoint x="2360" y="300" />
            </Array>
          </mxGeometry>
        </mxCell>
        <mxCell id="pSPQVaGW6Lw5AcyymQ0v-188" value="&lt;div style=&quot;font-size: 14px;&quot;&gt;&lt;b&gt;User Request Helper&lt;/b&gt;&lt;br&gt;&lt;/div&gt;&lt;div style=&quot;font-size: 10px;&quot;&gt;[Component : Next.js file]&lt;/div&gt;&lt;div&gt;&lt;br&gt;&lt;/div&gt;&lt;div&gt;Provides functionnality to request API Application&#39;s user endpoints&lt;br&gt;&lt;/div&gt;" style="rounded=0;whiteSpace=wrap;html=1;fillColor=#008a00;fontColor=#000000;strokeColor=#005700;" parent="1" vertex="1">
          <mxGeometry x="2637.5" y="130" width="140" height="120" as="geometry" />
        </mxCell>
        <mxCell id="pSPQVaGW6Lw5AcyymQ0v-209" style="edgeStyle=orthogonalEdgeStyle;rounded=0;orthogonalLoop=1;jettySize=auto;html=1;entryX=0.5;entryY=0;entryDx=0;entryDy=0;dashed=1;" parent="1" source="pSPQVaGW6Lw5AcyymQ0v-189" target="pSPQVaGW6Lw5AcyymQ0v-132" edge="1">
          <mxGeometry relative="1" as="geometry" />
        </mxCell>
        <mxCell id="pSPQVaGW6Lw5AcyymQ0v-189" value="&lt;div style=&quot;font-size: 14px;&quot;&gt;&lt;b&gt;Card Request Helper&lt;/b&gt;&lt;br&gt;&lt;/div&gt;&lt;div style=&quot;font-size: 10px;&quot;&gt;[Component : Next.js file]&lt;/div&gt;&lt;div&gt;&lt;br&gt;&lt;/div&gt;&lt;div&gt;Provides functionnality to request API Application&#39;s card endpoints&lt;/div&gt;" style="rounded=0;whiteSpace=wrap;html=1;fillColor=#008a00;fontColor=#000000;strokeColor=#005700;" parent="1" vertex="1">
          <mxGeometry x="2290" y="130" width="140" height="120" as="geometry" />
        </mxCell>
        <mxCell id="pSPQVaGW6Lw5AcyymQ0v-190" value="&lt;div style=&quot;font-size: 14px;&quot;&gt;&lt;b&gt;Collection View&lt;/b&gt;&lt;/div&gt;&lt;div style=&quot;font-size: 10px;&quot;&gt;[Component : Next.js file]&lt;/div&gt;&lt;div&gt;&lt;br&gt;&lt;/div&gt;&lt;div&gt;Allows players to view their collection&lt;br&gt;&lt;/div&gt;" style="rounded=0;whiteSpace=wrap;html=1;fillColor=#008a00;fontColor=#000000;strokeColor=#005700;" parent="1" vertex="1">
          <mxGeometry x="2288" y="-360" width="140" height="120" as="geometry" />
        </mxCell>
        <mxCell id="pSPQVaGW6Lw5AcyymQ0v-196" style="edgeStyle=orthogonalEdgeStyle;rounded=0;orthogonalLoop=1;jettySize=auto;html=1;dashed=1;" parent="1" source="pSPQVaGW6Lw5AcyymQ0v-191" target="pSPQVaGW6Lw5AcyymQ0v-187" edge="1">
          <mxGeometry relative="1" as="geometry">
            <Array as="points">
              <mxPoint x="2145" y="70" />
              <mxPoint x="1909" y="70" />
            </Array>
          </mxGeometry>
        </mxCell>
        <mxCell id="pSPQVaGW6Lw5AcyymQ0v-191" value="&lt;div style=&quot;font-size: 14px;&quot;&gt;&lt;b&gt;Sell View&lt;/b&gt;&lt;/div&gt;&lt;div style=&quot;font-size: 10px;&quot;&gt;[Component : Next.js file]&lt;/div&gt;&lt;div&gt;&lt;br&gt;&lt;/div&gt;&lt;div&gt;Allows players to sell cards&lt;br&gt;&lt;/div&gt;" style="rounded=0;whiteSpace=wrap;html=1;fillColor=#008a00;fontColor=#000000;strokeColor=#005700;" parent="1" vertex="1">
          <mxGeometry x="2075" y="-360" width="140" height="120" as="geometry" />
        </mxCell>
        <mxCell id="pSPQVaGW6Lw5AcyymQ0v-205" style="edgeStyle=orthogonalEdgeStyle;rounded=0;orthogonalLoop=1;jettySize=auto;html=1;dashed=1;" parent="1" source="pSPQVaGW6Lw5AcyymQ0v-192" edge="1">
          <mxGeometry relative="1" as="geometry">
            <mxPoint x="2710" y="130" as="targetPoint" />
            <Array as="points">
              <mxPoint x="2590" y="-60" />
              <mxPoint x="2711" y="-60" />
              <mxPoint x="2711" y="130" />
            </Array>
          </mxGeometry>
        </mxCell>
        <mxCell id="pSPQVaGW6Lw5AcyymQ0v-192" value="&lt;div style=&quot;font-size: 14px;&quot;&gt;&lt;b&gt;Register View&lt;/b&gt;&lt;/div&gt;&lt;div style=&quot;font-size: 10px;&quot;&gt;[Component : Next.js file]&lt;/div&gt;&lt;div&gt;&lt;br&gt;&lt;/div&gt;&lt;div&gt;Allows players create an account&lt;br&gt;&lt;/div&gt;" style="rounded=0;whiteSpace=wrap;html=1;fillColor=#008a00;fontColor=#000000;strokeColor=#005700;" parent="1" vertex="1">
          <mxGeometry x="2520" y="-360" width="140" height="120" as="geometry" />
        </mxCell>
        <mxCell id="pSPQVaGW6Lw5AcyymQ0v-204" style="edgeStyle=orthogonalEdgeStyle;rounded=0;orthogonalLoop=1;jettySize=auto;html=1;entryX=0.5;entryY=0;entryDx=0;entryDy=0;dashed=1;" parent="1" source="pSPQVaGW6Lw5AcyymQ0v-193" target="pSPQVaGW6Lw5AcyymQ0v-188" edge="1">
          <mxGeometry relative="1" as="geometry">
            <Array as="points">
              <mxPoint x="2820" y="-60" />
              <mxPoint x="2710" y="-60" />
              <mxPoint x="2710" y="130" />
            </Array>
          </mxGeometry>
        </mxCell>
        <mxCell id="pSPQVaGW6Lw5AcyymQ0v-193" value="&lt;div style=&quot;font-size: 14px;&quot;&gt;&lt;b&gt;Login View&lt;/b&gt;&lt;/div&gt;&lt;div style=&quot;font-size: 10px;&quot;&gt;[Component : Next.js file]&lt;/div&gt;&lt;div&gt;&lt;br&gt;&lt;/div&gt;&lt;div&gt;Allows players sign in&lt;br&gt;&lt;/div&gt;" style="rounded=0;whiteSpace=wrap;html=1;fillColor=#008a00;fontColor=#000000;strokeColor=#005700;" parent="1" vertex="1">
          <mxGeometry x="2750" y="-360" width="140" height="120" as="geometry" />
        </mxCell>
        <mxCell id="pSPQVaGW6Lw5AcyymQ0v-197" value="Uses" style="text;html=1;align=center;verticalAlign=middle;whiteSpace=wrap;rounded=0;fillColor=none;" parent="1" vertex="1">
          <mxGeometry x="1863" y="-80" width="94" height="30" as="geometry" />
        </mxCell>
        <mxCell id="pSPQVaGW6Lw5AcyymQ0v-198" value="Uses" style="text;html=1;align=center;verticalAlign=middle;whiteSpace=wrap;rounded=0;fillColor=none;" parent="1" vertex="1">
          <mxGeometry x="2098" y="-80" width="94" height="30" as="geometry" />
        </mxCell>
        <mxCell id="pSPQVaGW6Lw5AcyymQ0v-201" style="edgeStyle=orthogonalEdgeStyle;rounded=0;orthogonalLoop=1;jettySize=auto;html=1;entryX=0.828;entryY=-0.014;entryDx=0;entryDy=0;entryPerimeter=0;dashed=1;" parent="1" source="pSPQVaGW6Lw5AcyymQ0v-190" target="pSPQVaGW6Lw5AcyymQ0v-189" edge="1">
          <mxGeometry relative="1" as="geometry" />
        </mxCell>
        <mxCell id="pSPQVaGW6Lw5AcyymQ0v-200" value="Uses" style="text;html=1;align=center;verticalAlign=middle;whiteSpace=wrap;rounded=0;fillColor=none;" parent="1" vertex="1">
          <mxGeometry x="2334" y="-80" width="94" height="30" as="geometry" />
        </mxCell>
        <mxCell id="pSPQVaGW6Lw5AcyymQ0v-137" value="&lt;div&gt;Makes API calls to&lt;/div&gt;&lt;div&gt;[JSON/HTTPS]&lt;br&gt;&lt;/div&gt;" style="text;html=1;align=center;verticalAlign=middle;whiteSpace=wrap;rounded=0;fillColor=none;" parent="1" vertex="1">
          <mxGeometry x="2288" y="356" width="144" height="60" as="geometry" />
        </mxCell>
        <mxCell id="pSPQVaGW6Lw5AcyymQ0v-211" value="Uses" style="text;html=1;align=center;verticalAlign=middle;whiteSpace=wrap;rounded=0;fillColor=none;" parent="1" vertex="1">
          <mxGeometry x="2660.5" y="-80" width="94" height="30" as="geometry" />
        </mxCell>
        <mxCell id="pSPQVaGW6Lw5AcyymQ0v-214" value="Uses" style="text;html=1;align=center;verticalAlign=middle;whiteSpace=wrap;rounded=0;fillColor=none;" parent="1" vertex="1">
          <mxGeometry x="2313.25" y="280" width="94" height="30" as="geometry" />
        </mxCell>
        <mxCell id="pSPQVaGW6Lw5AcyymQ0v-223" value="&lt;div&gt;&lt;div&gt;Creates account&lt;/div&gt;&lt;/div&gt;&lt;div&gt;[HTTPS]&lt;br&gt;&lt;/div&gt;" style="text;html=1;align=center;verticalAlign=middle;whiteSpace=wrap;rounded=0;fillColor=none;" parent="1" vertex="1">
          <mxGeometry x="2520" y="-510" width="144" height="80" as="geometry" />
        </mxCell>
        <mxCell id="pSPQVaGW6Lw5AcyymQ0v-225" value="" style="edgeStyle=orthogonalEdgeStyle;rounded=0;orthogonalLoop=1;jettySize=auto;html=1;dashed=1;entryX=0.5;entryY=0;entryDx=0;entryDy=0;" parent="1" source="pSPQVaGW6Lw5AcyymQ0v-182" target="pSPQVaGW6Lw5AcyymQ0v-193" edge="1">
          <mxGeometry relative="1" as="geometry">
            <mxPoint x="2420" y="-579" as="sourcePoint" />
            <mxPoint x="2820" y="-360" as="targetPoint" />
          </mxGeometry>
        </mxCell>
        <mxCell id="pSPQVaGW6Lw5AcyymQ0v-224" value="&lt;div&gt;Signs in&lt;br&gt;&lt;/div&gt;&lt;div&gt;[HTTPS]&lt;br&gt;&lt;/div&gt;" style="text;html=1;align=center;verticalAlign=middle;whiteSpace=wrap;rounded=0;fillColor=none;" parent="1" vertex="1">
          <mxGeometry x="2746" y="-510" width="144" height="80" as="geometry" />
        </mxCell>
        <mxCell id="pSPQVaGW6Lw5AcyymQ0v-226" value="&lt;div&gt;Sells cards &lt;br&gt;&lt;/div&gt;&lt;div&gt;[HTTPS]&lt;br&gt;&lt;/div&gt;" style="text;html=1;align=center;verticalAlign=middle;whiteSpace=wrap;rounded=0;fillColor=none;" parent="1" vertex="1">
          <mxGeometry x="2075" y="-510" width="144" height="80" as="geometry" />
        </mxCell>
        <mxCell id="pSPQVaGW6Lw5AcyymQ0v-227" value="&lt;div&gt;Purchases cards&lt;br&gt;&lt;/div&gt;&lt;div&gt;[HTTPS]&lt;br&gt;&lt;/div&gt;" style="text;html=1;align=center;verticalAlign=middle;whiteSpace=wrap;rounded=0;fillColor=none;" parent="1" vertex="1">
          <mxGeometry x="1840" y="-510" width="144" height="80" as="geometry" />
        </mxCell>
        <mxCell id="WF0BPh4e2S1r3RLNXFHs-154" style="edgeStyle=orthogonalEdgeStyle;rounded=0;orthogonalLoop=1;jettySize=auto;html=1;dashed=1;" edge="1" parent="1" source="WF0BPh4e2S1r3RLNXFHs-60">
          <mxGeometry relative="1" as="geometry">
            <mxPoint x="2180" y="2460" as="targetPoint" />
            <Array as="points">
              <mxPoint x="2480" y="2360" />
              <mxPoint x="2181" y="2360" />
              <mxPoint x="2181" y="2460" />
            </Array>
          </mxGeometry>
        </mxCell>
        <mxCell id="WF0BPh4e2S1r3RLNXFHs-155" style="edgeStyle=orthogonalEdgeStyle;rounded=0;orthogonalLoop=1;jettySize=auto;html=1;dashed=1;" edge="1" parent="1" source="WF0BPh4e2S1r3RLNXFHs-60">
          <mxGeometry relative="1" as="geometry">
            <mxPoint x="2390" y="2460" as="targetPoint" />
            <Array as="points">
              <mxPoint x="2480" y="2360" />
              <mxPoint x="2391" y="2360" />
              <mxPoint x="2391" y="2460" />
            </Array>
          </mxGeometry>
        </mxCell>
        <mxCell id="WF0BPh4e2S1r3RLNXFHs-156" style="edgeStyle=orthogonalEdgeStyle;rounded=0;orthogonalLoop=1;jettySize=auto;html=1;entryX=0.5;entryY=0;entryDx=0;entryDy=0;dashed=1;" edge="1" parent="1" source="WF0BPh4e2S1r3RLNXFHs-60" target="WF0BPh4e2S1r3RLNXFHs-65">
          <mxGeometry relative="1" as="geometry">
            <Array as="points">
              <mxPoint x="2480" y="2360" />
              <mxPoint x="2600" y="2360" />
            </Array>
          </mxGeometry>
        </mxCell>
        <mxCell id="WF0BPh4e2S1r3RLNXFHs-157" style="edgeStyle=orthogonalEdgeStyle;rounded=0;orthogonalLoop=1;jettySize=auto;html=1;dashed=1;" edge="1" parent="1" source="WF0BPh4e2S1r3RLNXFHs-60">
          <mxGeometry relative="1" as="geometry">
            <mxPoint x="2810" y="2460" as="targetPoint" />
            <Array as="points">
              <mxPoint x="2480" y="2360" />
              <mxPoint x="2811" y="2360" />
              <mxPoint x="2811" y="2460" />
            </Array>
          </mxGeometry>
        </mxCell>
        <mxCell id="WF0BPh4e2S1r3RLNXFHs-158" style="edgeStyle=orthogonalEdgeStyle;rounded=0;orthogonalLoop=1;jettySize=auto;html=1;dashed=1;" edge="1" parent="1" source="WF0BPh4e2S1r3RLNXFHs-60">
          <mxGeometry relative="1" as="geometry">
            <mxPoint x="3020" y="2460" as="targetPoint" />
            <Array as="points">
              <mxPoint x="2480" y="2360" />
              <mxPoint x="3021" y="2360" />
              <mxPoint x="3021" y="2460" />
            </Array>
          </mxGeometry>
        </mxCell>
        <mxCell id="WF0BPh4e2S1r3RLNXFHs-159" style="edgeStyle=orthogonalEdgeStyle;rounded=0;orthogonalLoop=1;jettySize=auto;html=1;entryX=0;entryY=0.5;entryDx=0;entryDy=0;dashed=1;" edge="1" parent="1" source="WF0BPh4e2S1r3RLNXFHs-60" target="WF0BPh4e2S1r3RLNXFHs-61">
          <mxGeometry relative="1" as="geometry" />
        </mxCell>
        <mxCell id="WF0BPh4e2S1r3RLNXFHs-60" value="&lt;div style=&quot;font-size: 14px;&quot;&gt;&lt;b&gt;Gateway&lt;/b&gt;&lt;/div&gt;&lt;div style=&quot;font-size: 10px;&quot;&gt;[Component : Spring Boot Gateway]&lt;/div&gt;&lt;div&gt;&lt;br&gt;&lt;/div&gt;&lt;div&gt;Single entry point for all API endpoints&lt;br&gt;&lt;/div&gt;" style="rounded=0;whiteSpace=wrap;html=1;fillColor=#008a00;fontColor=#000000;strokeColor=#005700;" vertex="1" parent="1">
          <mxGeometry x="2110" y="2150" width="740" height="120" as="geometry" />
        </mxCell>
        <mxCell id="WF0BPh4e2S1r3RLNXFHs-61" value="&lt;div style=&quot;font-size: 14px;&quot;&gt;&lt;b&gt;Discovery&lt;/b&gt;&lt;/div&gt;&lt;div style=&quot;font-size: 10px;&quot;&gt;[Component : Spring Boot Eureka Server]&lt;/div&gt;&lt;div&gt;&lt;br&gt;&lt;/div&gt;&lt;div&gt;Allows micro-services obtain an IP address&lt;br&gt;&lt;/div&gt;" style="rounded=0;whiteSpace=wrap;html=1;fillColor=#008a00;fontColor=#000000;strokeColor=#005700;" vertex="1" parent="1">
          <mxGeometry x="2950" y="2150" width="140" height="120" as="geometry" />
        </mxCell>
        <mxCell id="WF0BPh4e2S1r3RLNXFHs-68" style="edgeStyle=orthogonalEdgeStyle;rounded=0;orthogonalLoop=1;jettySize=auto;html=1;dashed=1;" edge="1" parent="1" source="WF0BPh4e2S1r3RLNXFHs-62" target="WF0BPh4e2S1r3RLNXFHs-61">
          <mxGeometry relative="1" as="geometry">
            <Array as="points">
              <mxPoint x="2180" y="2360" />
              <mxPoint x="3020" y="2360" />
            </Array>
          </mxGeometry>
        </mxCell>
        <mxCell id="WF0BPh4e2S1r3RLNXFHs-62" value="&lt;div style=&quot;font-size: 14px;&quot;&gt;&lt;b&gt;Authentication Service&lt;br&gt;&lt;/b&gt;&lt;/div&gt;&lt;div style=&quot;font-size: 10px;&quot;&gt;[Component : Spring Boot]&lt;/div&gt;&lt;div&gt;&lt;br&gt;&lt;/div&gt;&lt;div&gt;Manages authentication related operations&lt;br&gt;&lt;/div&gt;" style="rounded=0;whiteSpace=wrap;html=1;fillColor=#008a00;fontColor=#000000;strokeColor=#005700;" vertex="1" parent="1">
          <mxGeometry x="2110" y="2462" width="140" height="120" as="geometry" />
        </mxCell>
        <mxCell id="WF0BPh4e2S1r3RLNXFHs-69" style="edgeStyle=orthogonalEdgeStyle;rounded=0;orthogonalLoop=1;jettySize=auto;html=1;entryX=0.5;entryY=1;entryDx=0;entryDy=0;dashed=1;" edge="1" parent="1" source="WF0BPh4e2S1r3RLNXFHs-64" target="WF0BPh4e2S1r3RLNXFHs-61">
          <mxGeometry relative="1" as="geometry">
            <Array as="points">
              <mxPoint x="2390" y="2360" />
              <mxPoint x="3020" y="2360" />
            </Array>
          </mxGeometry>
        </mxCell>
        <mxCell id="WF0BPh4e2S1r3RLNXFHs-99" style="edgeStyle=orthogonalEdgeStyle;rounded=0;orthogonalLoop=1;jettySize=auto;html=1;dashed=1;" edge="1" parent="1" source="WF0BPh4e2S1r3RLNXFHs-64" target="WF0BPh4e2S1r3RLNXFHs-89">
          <mxGeometry relative="1" as="geometry" />
        </mxCell>
        <mxCell id="WF0BPh4e2S1r3RLNXFHs-64" value="&lt;div style=&quot;font-size: 14px;&quot;&gt;&lt;b&gt;Card Service&lt;br&gt;&lt;/b&gt;&lt;/div&gt;&lt;div style=&quot;font-size: 10px;&quot;&gt;[Component : Spring Boot]&lt;/div&gt;&lt;div&gt;&lt;br&gt;&lt;/div&gt;&lt;div&gt;Manages cards related operations&lt;/div&gt;" style="rounded=0;whiteSpace=wrap;html=1;fillColor=#008a00;fontColor=#000000;strokeColor=#005700;" vertex="1" parent="1">
          <mxGeometry x="2320" y="2462" width="140" height="120" as="geometry" />
        </mxCell>
        <mxCell id="WF0BPh4e2S1r3RLNXFHs-70" style="edgeStyle=orthogonalEdgeStyle;rounded=0;orthogonalLoop=1;jettySize=auto;html=1;dashed=1;" edge="1" parent="1" source="WF0BPh4e2S1r3RLNXFHs-65" target="WF0BPh4e2S1r3RLNXFHs-61">
          <mxGeometry relative="1" as="geometry">
            <Array as="points">
              <mxPoint x="2600" y="2360" />
              <mxPoint x="3020" y="2360" />
            </Array>
          </mxGeometry>
        </mxCell>
        <mxCell id="WF0BPh4e2S1r3RLNXFHs-65" value="&lt;div style=&quot;font-size: 14px;&quot;&gt;&lt;b&gt;Store Service&lt;br&gt;&lt;/b&gt;&lt;/div&gt;&lt;div style=&quot;font-size: 10px;&quot;&gt;[Component : Spring Boot]&lt;/div&gt;&lt;div&gt;&lt;br&gt;&lt;/div&gt;&lt;div&gt;Manages store  related operations&lt;/div&gt;" style="rounded=0;whiteSpace=wrap;html=1;fillColor=#008a00;fontColor=#000000;strokeColor=#005700;" vertex="1" parent="1">
          <mxGeometry x="2530" y="2462" width="140" height="120" as="geometry" />
        </mxCell>
        <mxCell id="WF0BPh4e2S1r3RLNXFHs-72" style="edgeStyle=orthogonalEdgeStyle;rounded=0;orthogonalLoop=1;jettySize=auto;html=1;entryX=0.5;entryY=1;entryDx=0;entryDy=0;dashed=1;" edge="1" parent="1" source="WF0BPh4e2S1r3RLNXFHs-66" target="WF0BPh4e2S1r3RLNXFHs-61">
          <mxGeometry relative="1" as="geometry">
            <Array as="points">
              <mxPoint x="2810" y="2360" />
              <mxPoint x="3020" y="2360" />
            </Array>
          </mxGeometry>
        </mxCell>
        <mxCell id="WF0BPh4e2S1r3RLNXFHs-101" style="edgeStyle=orthogonalEdgeStyle;rounded=0;orthogonalLoop=1;jettySize=auto;html=1;dashed=1;" edge="1" parent="1" source="WF0BPh4e2S1r3RLNXFHs-66" target="WF0BPh4e2S1r3RLNXFHs-94">
          <mxGeometry relative="1" as="geometry" />
        </mxCell>
        <mxCell id="WF0BPh4e2S1r3RLNXFHs-66" value="&lt;div style=&quot;font-size: 14px;&quot;&gt;&lt;b&gt;User Service&lt;br&gt;&lt;/b&gt;&lt;/div&gt;&lt;div style=&quot;font-size: 10px;&quot;&gt;[Component : Spring Boot]&lt;/div&gt;&lt;div&gt;&lt;br&gt;&lt;/div&gt;&lt;div&gt;Manages user related operations&lt;/div&gt;" style="rounded=0;whiteSpace=wrap;html=1;fillColor=#008a00;fontColor=#000000;strokeColor=#005700;" vertex="1" parent="1">
          <mxGeometry x="2740" y="2462" width="140" height="120" as="geometry" />
        </mxCell>
        <mxCell id="WF0BPh4e2S1r3RLNXFHs-73" style="edgeStyle=orthogonalEdgeStyle;rounded=0;orthogonalLoop=1;jettySize=auto;html=1;dashed=1;" edge="1" parent="1" source="WF0BPh4e2S1r3RLNXFHs-67">
          <mxGeometry relative="1" as="geometry">
            <mxPoint x="3020" y="2270" as="targetPoint" />
          </mxGeometry>
        </mxCell>
        <mxCell id="WF0BPh4e2S1r3RLNXFHs-67" value="&lt;div style=&quot;font-size: 14px;&quot;&gt;&lt;b&gt;Orchestrator Service&lt;br&gt;&lt;/b&gt;&lt;/div&gt;&lt;div style=&quot;font-size: 10px;&quot;&gt;[Component : Spring Boot]&lt;/div&gt;&lt;div&gt;&lt;br&gt;&lt;/div&gt;&lt;div&gt;Manages transactionnal queries involving multiple micro-services&lt;br&gt;&lt;/div&gt;" style="rounded=0;whiteSpace=wrap;html=1;fillColor=#008a00;fontColor=#000000;strokeColor=#005700;" vertex="1" parent="1">
          <mxGeometry x="2950" y="2462" width="140" height="120" as="geometry" />
        </mxCell>
        <mxCell id="WF0BPh4e2S1r3RLNXFHs-80" value="Uses" style="text;html=1;align=center;verticalAlign=middle;whiteSpace=wrap;rounded=0;fillColor=none;" vertex="1" parent="1">
          <mxGeometry x="2433.75" y="2311" width="94" height="30" as="geometry" />
        </mxCell>
        <mxCell id="WF0BPh4e2S1r3RLNXFHs-85" value="Subscribes" style="text;html=1;align=center;verticalAlign=middle;whiteSpace=wrap;rounded=0;fillColor=none;" vertex="1" parent="1">
          <mxGeometry x="2974" y="2311" width="94" height="30" as="geometry" />
        </mxCell>
        <mxCell id="WF0BPh4e2S1r3RLNXFHs-86" value="&lt;div&gt;Makes API calls to&lt;/div&gt;&lt;div&gt;[JSON/HTTPS]&lt;br&gt;&lt;/div&gt;" style="text;html=1;align=center;verticalAlign=middle;whiteSpace=wrap;rounded=0;fillColor=none;" vertex="1" parent="1">
          <mxGeometry x="2413.75" y="1930" width="144" height="60" as="geometry" />
        </mxCell>
        <mxCell id="WF0BPh4e2S1r3RLNXFHs-89" value="" style="shape=cylinder3;whiteSpace=wrap;html=1;boundedLbl=1;backgroundOutline=1;size=15;fillColor=#008a00;fontColor=#ffffff;strokeColor=#005700;" vertex="1" parent="1">
          <mxGeometry x="2320" y="2900" width="140" height="150" as="geometry" />
        </mxCell>
        <mxCell id="WF0BPh4e2S1r3RLNXFHs-90" value="&lt;div style=&quot;font-size: 14px;&quot;&gt;&lt;b&gt;Database&lt;/b&gt;&lt;br&gt;&lt;/div&gt;&lt;div style=&quot;font-size: 10px;&quot;&gt;[Container : PostgresSQL]&lt;/div&gt;&lt;div&gt;&lt;br&gt;&lt;/div&gt;&lt;div&gt;Stores cards information&lt;br&gt;&lt;/div&gt;" style="text;strokeColor=none;align=center;fillColor=none;html=1;verticalAlign=middle;whiteSpace=wrap;rounded=0;" vertex="1" parent="1">
          <mxGeometry x="2320" y="2930" width="140" height="120" as="geometry" />
        </mxCell>
        <mxCell id="WF0BPh4e2S1r3RLNXFHs-92" value="" style="shape=cylinder3;whiteSpace=wrap;html=1;boundedLbl=1;backgroundOutline=1;size=15;fillColor=#008a00;fontColor=#ffffff;strokeColor=#005700;" vertex="1" parent="1">
          <mxGeometry x="2528.75" y="2900" width="140" height="150" as="geometry" />
        </mxCell>
        <mxCell id="WF0BPh4e2S1r3RLNXFHs-93" value="&lt;div style=&quot;font-size: 14px;&quot;&gt;&lt;b&gt;Database&lt;/b&gt;&lt;br&gt;&lt;/div&gt;&lt;div style=&quot;font-size: 10px;&quot;&gt;[Container : PostgresSQL]&lt;/div&gt;&lt;div&gt;&lt;br&gt;&lt;/div&gt;&lt;div&gt;Stores store information&lt;br&gt;&lt;/div&gt;" style="text;strokeColor=none;align=center;fillColor=none;html=1;verticalAlign=middle;whiteSpace=wrap;rounded=0;" vertex="1" parent="1">
          <mxGeometry x="2528.75" y="2930" width="140" height="120" as="geometry" />
        </mxCell>
        <mxCell id="WF0BPh4e2S1r3RLNXFHs-94" value="" style="shape=cylinder3;whiteSpace=wrap;html=1;boundedLbl=1;backgroundOutline=1;size=15;fillColor=#008a00;fontColor=#ffffff;strokeColor=#005700;" vertex="1" parent="1">
          <mxGeometry x="2740" y="2900" width="140" height="150" as="geometry" />
        </mxCell>
        <mxCell id="WF0BPh4e2S1r3RLNXFHs-95" value="&lt;div style=&quot;font-size: 14px;&quot;&gt;&lt;b&gt;Database&lt;/b&gt;&lt;br&gt;&lt;/div&gt;&lt;div style=&quot;font-size: 10px;&quot;&gt;[Container : PostgresSQL]&lt;/div&gt;&lt;div&gt;&lt;br&gt;&lt;/div&gt;&lt;div&gt;Stores users information&lt;br&gt;&lt;/div&gt;" style="text;strokeColor=none;align=center;fillColor=none;html=1;verticalAlign=middle;whiteSpace=wrap;rounded=0;" vertex="1" parent="1">
          <mxGeometry x="2740" y="2930" width="140" height="120" as="geometry" />
        </mxCell>
        <mxCell id="WF0BPh4e2S1r3RLNXFHs-100" style="edgeStyle=orthogonalEdgeStyle;rounded=0;orthogonalLoop=1;jettySize=auto;html=1;entryX=0.5;entryY=0;entryDx=0;entryDy=0;entryPerimeter=0;dashed=1;" edge="1" parent="1" source="WF0BPh4e2S1r3RLNXFHs-65" target="WF0BPh4e2S1r3RLNXFHs-92">
          <mxGeometry relative="1" as="geometry" />
        </mxCell>
        <mxCell id="WF0BPh4e2S1r3RLNXFHs-102" value="&lt;div&gt;Reads from and writes to&lt;br&gt;&lt;/div&gt;&lt;div&gt;[JDBC]&lt;br&gt;&lt;/div&gt;" style="text;html=1;align=center;verticalAlign=middle;whiteSpace=wrap;rounded=0;fillColor=none;" vertex="1" parent="1">
          <mxGeometry x="2314.5" y="2711" width="144" height="60" as="geometry" />
        </mxCell>
        <mxCell id="WF0BPh4e2S1r3RLNXFHs-103" value="&lt;div&gt;Reads from and writes to&lt;br&gt;&lt;/div&gt;&lt;div&gt;[JDBC]&lt;br&gt;&lt;/div&gt;" style="text;html=1;align=center;verticalAlign=middle;whiteSpace=wrap;rounded=0;fillColor=none;" vertex="1" parent="1">
          <mxGeometry x="2524.75" y="2711" width="144" height="60" as="geometry" />
        </mxCell>
        <mxCell id="WF0BPh4e2S1r3RLNXFHs-105" value="&lt;div&gt;Reads from and writes to&lt;br&gt;&lt;/div&gt;&lt;div&gt;[JDBC]&lt;br&gt;&lt;/div&gt;" style="text;html=1;align=center;verticalAlign=middle;whiteSpace=wrap;rounded=0;fillColor=none;" vertex="1" parent="1">
          <mxGeometry x="2736" y="2711" width="144" height="60" as="geometry" />
        </mxCell>
        <mxCell id="WF0BPh4e2S1r3RLNXFHs-106" value="" style="rounded=0;whiteSpace=wrap;html=1;dashed=1;strokeColor=#FF6666;movable=1;resizable=1;rotatable=1;deletable=1;editable=1;locked=0;connectable=1;" vertex="1" parent="1">
          <mxGeometry x="3520" y="3250" width="790" height="715" as="geometry" />
        </mxCell>
        <mxCell id="WF0BPh4e2S1r3RLNXFHs-109" value="&lt;div&gt;[Component] Card Store System - API Application - User Service&lt;br&gt;&lt;/div&gt;&lt;div&gt;The component diagram of the User Service&lt;br&gt;&lt;/div&gt;" style="text;strokeColor=none;align=left;fillColor=none;html=1;verticalAlign=middle;whiteSpace=wrap;rounded=0;" vertex="1" parent="1">
          <mxGeometry x="3490" y="4244" width="380" height="30" as="geometry" />
        </mxCell>
        <mxCell id="WF0BPh4e2S1r3RLNXFHs-127" value="" style="endArrow=classic;html=1;rounded=0;exitX=1;exitY=1;exitDx=0;exitDy=0;entryX=0;entryY=0;entryDx=0;entryDy=0;" edge="1" parent="1" source="WF0BPh4e2S1r3RLNXFHs-66" target="WF0BPh4e2S1r3RLNXFHs-107">
          <mxGeometry width="50" height="50" relative="1" as="geometry">
            <mxPoint x="3820" y="3020" as="sourcePoint" />
            <mxPoint x="3870" y="2970" as="targetPoint" />
          </mxGeometry>
        </mxCell>
        <mxCell id="WF0BPh4e2S1r3RLNXFHs-128" value="" style="shape=cylinder3;whiteSpace=wrap;html=1;boundedLbl=1;backgroundOutline=1;size=15;fillColor=#008a00;fontColor=#ffffff;strokeColor=#005700;" vertex="1" parent="1">
          <mxGeometry x="3849" y="4075" width="140" height="150" as="geometry" />
        </mxCell>
        <mxCell id="WF0BPh4e2S1r3RLNXFHs-129" value="&lt;div style=&quot;font-size: 14px;&quot;&gt;&lt;b&gt;Database&lt;/b&gt;&lt;br&gt;&lt;/div&gt;&lt;div style=&quot;font-size: 10px;&quot;&gt;[Container : PostgresSQL]&lt;/div&gt;&lt;div&gt;&lt;br&gt;&lt;/div&gt;&lt;div&gt;Stores users information&lt;br&gt;&lt;/div&gt;" style="text;strokeColor=none;align=center;fillColor=none;html=1;verticalAlign=middle;whiteSpace=wrap;rounded=0;" vertex="1" parent="1">
          <mxGeometry x="3847" y="4105" width="140" height="120" as="geometry" />
        </mxCell>
        <mxCell id="WF0BPh4e2S1r3RLNXFHs-150" style="edgeStyle=orthogonalEdgeStyle;rounded=0;orthogonalLoop=1;jettySize=auto;html=1;dashed=1;" edge="1" parent="1" source="WF0BPh4e2S1r3RLNXFHs-139" target="WF0BPh4e2S1r3RLNXFHs-141">
          <mxGeometry relative="1" as="geometry" />
        </mxCell>
        <mxCell id="WF0BPh4e2S1r3RLNXFHs-165" style="edgeStyle=orthogonalEdgeStyle;rounded=0;orthogonalLoop=1;jettySize=auto;html=1;dashed=1;" edge="1" parent="1" source="WF0BPh4e2S1r3RLNXFHs-139" target="WF0BPh4e2S1r3RLNXFHs-147">
          <mxGeometry relative="1" as="geometry" />
        </mxCell>
        <mxCell id="WF0BPh4e2S1r3RLNXFHs-139" value="&lt;div style=&quot;font-size: 14px;&quot;&gt;&lt;b&gt;User Controller&lt;/b&gt;&lt;/div&gt;&lt;div style=&quot;font-size: 10px;&quot;&gt;[Component : Spring Rest Controller]&lt;/div&gt;&lt;div&gt;&lt;br&gt;&lt;/div&gt;&lt;div&gt;Allows players to create an acount, authenticate and view other players&lt;br&gt;&lt;/div&gt;" style="rounded=0;whiteSpace=wrap;html=1;fillColor=#008a00;fontColor=#000000;strokeColor=#005700;" vertex="1" parent="1">
          <mxGeometry x="3849.5" y="3325" width="140" height="120" as="geometry" />
        </mxCell>
        <mxCell id="WF0BPh4e2S1r3RLNXFHs-151" style="edgeStyle=orthogonalEdgeStyle;rounded=0;orthogonalLoop=1;jettySize=auto;html=1;entryX=0.5;entryY=0;entryDx=0;entryDy=0;dashed=1;" edge="1" parent="1" source="WF0BPh4e2S1r3RLNXFHs-141" target="WF0BPh4e2S1r3RLNXFHs-142">
          <mxGeometry relative="1" as="geometry" />
        </mxCell>
        <mxCell id="WF0BPh4e2S1r3RLNXFHs-141" value="&lt;div style=&quot;font-size: 14px;&quot;&gt;&lt;b&gt;User Service&lt;/b&gt;&lt;/div&gt;&lt;div style=&quot;font-size: 10px;&quot;&gt;[Component : Spring Service]&lt;/div&gt;&lt;div&gt;&lt;br&gt;&lt;/div&gt;&lt;div&gt;Provides functionnality to register, sign in, view all users or a specific one&lt;br&gt;&lt;/div&gt;" style="rounded=0;whiteSpace=wrap;html=1;fillColor=#008a00;fontColor=#000000;strokeColor=#005700;" vertex="1" parent="1">
          <mxGeometry x="3850.5" y="3565" width="139.5" height="120" as="geometry" />
        </mxCell>
        <mxCell id="WF0BPh4e2S1r3RLNXFHs-142" value="&lt;div style=&quot;font-size: 14px;&quot;&gt;&lt;b&gt;User Repository&lt;/b&gt;&lt;/div&gt;&lt;div style=&quot;font-size: 10px;&quot;&gt;[Component : Spring Repository]&lt;/div&gt;&lt;div&gt;&lt;br&gt;&lt;/div&gt;&lt;div&gt;&lt;div&gt;Repository class for User domain objects&lt;/div&gt;All method names are compliant with Spring Data naming conventions so this interface can easily be extended&lt;/div&gt;" style="rounded=0;whiteSpace=wrap;html=1;fillColor=#008a00;fontColor=#000000;strokeColor=#005700;" vertex="1" parent="1">
          <mxGeometry x="3794" y="3815" width="250" height="120" as="geometry" />
        </mxCell>
        <mxCell id="WF0BPh4e2S1r3RLNXFHs-143" value="&lt;div&gt;Makes API calls to&lt;/div&gt;&lt;div&gt;[JSON/HTTPS]&lt;br&gt;&lt;/div&gt;" style="text;html=1;align=center;verticalAlign=middle;whiteSpace=wrap;rounded=0;fillColor=none;" vertex="1" parent="1">
          <mxGeometry x="3713" y="3150" width="144" height="60" as="geometry" />
        </mxCell>
        <mxCell id="WF0BPh4e2S1r3RLNXFHs-148" style="edgeStyle=orthogonalEdgeStyle;rounded=0;orthogonalLoop=1;jettySize=auto;html=1;entryX=0.5;entryY=0;entryDx=0;entryDy=0;dashed=1;" edge="1" parent="1" source="WF0BPh4e2S1r3RLNXFHs-146" target="WF0BPh4e2S1r3RLNXFHs-139">
          <mxGeometry relative="1" as="geometry" />
        </mxCell>
        <mxCell id="WF0BPh4e2S1r3RLNXFHs-146" value="&lt;div style=&quot;font-size: 14px;&quot;&gt;&lt;b&gt;Gateway&lt;/b&gt;&lt;/div&gt;&lt;div style=&quot;font-size: 10px;&quot;&gt;[Component : Spring Boot Gateway]&lt;/div&gt;&lt;div&gt;&lt;br&gt;&lt;/div&gt;&lt;div&gt;Single entry point for all API endpoints&lt;br&gt;&lt;/div&gt;" style="rounded=0;whiteSpace=wrap;html=1;fillColor=#008a00;fontColor=#000000;strokeColor=#005700;" vertex="1" parent="1">
          <mxGeometry x="3715" y="3010" width="140" height="120" as="geometry" />
        </mxCell>
        <mxCell id="WF0BPh4e2S1r3RLNXFHs-147" value="&lt;div style=&quot;font-size: 14px;&quot;&gt;&lt;b&gt;Discovery&lt;/b&gt;&lt;/div&gt;&lt;div style=&quot;font-size: 10px;&quot;&gt;[Component : Spring Boot Eureka Server]&lt;/div&gt;&lt;div&gt;&lt;br&gt;&lt;/div&gt;&lt;div&gt;Allows micro-services obtain an IP address&lt;br&gt;&lt;/div&gt;" style="rounded=0;whiteSpace=wrap;html=1;fillColor=#008a00;fontColor=#000000;strokeColor=#005700;" vertex="1" parent="1">
          <mxGeometry x="3975" y="3010" width="140" height="120" as="geometry" />
        </mxCell>
        <mxCell id="WF0BPh4e2S1r3RLNXFHs-152" style="edgeStyle=orthogonalEdgeStyle;rounded=0;orthogonalLoop=1;jettySize=auto;html=1;entryX=0.5;entryY=0;entryDx=0;entryDy=0;entryPerimeter=0;dashed=1;" edge="1" parent="1" source="WF0BPh4e2S1r3RLNXFHs-142" target="WF0BPh4e2S1r3RLNXFHs-128">
          <mxGeometry relative="1" as="geometry" />
        </mxCell>
        <mxCell id="WF0BPh4e2S1r3RLNXFHs-130" value="&lt;div&gt;Reads from and writes to&lt;br&gt;&lt;/div&gt;&lt;div&gt;[JDBC]&lt;br&gt;&lt;/div&gt;" style="text;html=1;align=center;verticalAlign=middle;whiteSpace=wrap;rounded=0;fillColor=none;" vertex="1" parent="1">
          <mxGeometry x="3849" y="3970" width="144" height="60" as="geometry" />
        </mxCell>
        <mxCell id="WF0BPh4e2S1r3RLNXFHs-144" value="Uses" style="text;html=1;align=center;verticalAlign=middle;whiteSpace=wrap;rounded=0;fillColor=none;" vertex="1" parent="1">
          <mxGeometry x="3874" y="3500" width="94" height="30" as="geometry" />
        </mxCell>
        <mxCell id="WF0BPh4e2S1r3RLNXFHs-145" value="Uses" style="text;html=1;align=center;verticalAlign=middle;whiteSpace=wrap;rounded=0;fillColor=none;" vertex="1" parent="1">
          <mxGeometry x="3901" y="3740" width="40" height="30" as="geometry" />
        </mxCell>
        <mxCell id="WF0BPh4e2S1r3RLNXFHs-160" value="Uses" style="text;html=1;align=center;verticalAlign=middle;whiteSpace=wrap;rounded=0;fillColor=none;" vertex="1" parent="1">
          <mxGeometry x="2850" y="2183" width="94" height="30" as="geometry" />
        </mxCell>
        <mxCell id="WF0BPh4e2S1r3RLNXFHs-168" value="Subscribes" style="text;html=1;align=center;verticalAlign=middle;whiteSpace=wrap;rounded=0;fillColor=none;" vertex="1" parent="1">
          <mxGeometry x="3997" y="3165" width="94" height="30" as="geometry" />
        </mxCell>
        <mxCell id="WF0BPh4e2S1r3RLNXFHs-172" value="&lt;div align=&quot;left&quot;&gt;&lt;font color=&quot;#ff8080&quot;&gt;User Service&lt;br&gt;&lt;/font&gt;&lt;/div&gt;&lt;div align=&quot;left&quot;&gt;&lt;font color=&quot;#ff8080&quot;&gt;[Component] &lt;br&gt;&lt;/font&gt;&lt;/div&gt;" style="text;strokeColor=none;align=left;fillColor=none;html=1;verticalAlign=middle;whiteSpace=wrap;rounded=0;" vertex="1" parent="1">
          <mxGeometry x="3525" y="3930" width="349" height="30" as="geometry" />
        </mxCell>
        <mxCell id="WF0BPh4e2S1r3RLNXFHs-175" value="&lt;div&gt;[Component] Card Store System - API Application - Orchestrator Service&lt;br&gt;&lt;/div&gt;&lt;div&gt;The component diagram of the Orchestrator Service&lt;br&gt;&lt;/div&gt;" style="text;strokeColor=none;align=left;fillColor=none;html=1;verticalAlign=middle;whiteSpace=wrap;rounded=0;" vertex="1" parent="1">
          <mxGeometry x="3490" y="1740" width="400" height="30" as="geometry" />
        </mxCell>
        <mxCell id="WF0BPh4e2S1r3RLNXFHs-179" style="edgeStyle=orthogonalEdgeStyle;rounded=0;orthogonalLoop=1;jettySize=auto;html=1;dashed=1;" edge="1" source="WF0BPh4e2S1r3RLNXFHs-180" target="WF0BPh4e2S1r3RLNXFHs-187" parent="1">
          <mxGeometry relative="1" as="geometry" />
        </mxCell>
        <mxCell id="WF0BPh4e2S1r3RLNXFHs-197" style="edgeStyle=orthogonalEdgeStyle;rounded=0;orthogonalLoop=1;jettySize=auto;html=1;dashed=1;" edge="1" parent="1" source="WF0BPh4e2S1r3RLNXFHs-180" target="WF0BPh4e2S1r3RLNXFHs-182">
          <mxGeometry relative="1" as="geometry" />
        </mxCell>
        <mxCell id="WF0BPh4e2S1r3RLNXFHs-184" value="&lt;div&gt;Makes API calls to&lt;/div&gt;&lt;div&gt;[JSON/HTTPS]&lt;br&gt;&lt;/div&gt;" style="text;html=1;align=center;verticalAlign=middle;whiteSpace=wrap;rounded=0;fillColor=none;" vertex="1" parent="1">
          <mxGeometry x="3715" y="1141" width="144" height="60" as="geometry" />
        </mxCell>
        <mxCell id="WF0BPh4e2S1r3RLNXFHs-185" style="edgeStyle=orthogonalEdgeStyle;rounded=0;orthogonalLoop=1;jettySize=auto;html=1;entryX=0.5;entryY=0;entryDx=0;entryDy=0;dashed=1;" edge="1" source="WF0BPh4e2S1r3RLNXFHs-186" target="WF0BPh4e2S1r3RLNXFHs-180" parent="1">
          <mxGeometry relative="1" as="geometry" />
        </mxCell>
        <mxCell id="WF0BPh4e2S1r3RLNXFHs-186" value="&lt;div style=&quot;font-size: 14px;&quot;&gt;&lt;b&gt;Gateway&lt;/b&gt;&lt;/div&gt;&lt;div style=&quot;font-size: 10px;&quot;&gt;[Component : Spring Boot Gateway]&lt;/div&gt;&lt;div&gt;&lt;br&gt;&lt;/div&gt;&lt;div&gt;Single entry point for all API endpoints&lt;br&gt;&lt;/div&gt;" style="rounded=0;whiteSpace=wrap;html=1;fillColor=#008a00;fontColor=#000000;strokeColor=#005700;" vertex="1" parent="1">
          <mxGeometry x="3717" y="1001" width="140" height="120" as="geometry" />
        </mxCell>
        <mxCell id="WF0BPh4e2S1r3RLNXFHs-187" value="&lt;div style=&quot;font-size: 14px;&quot;&gt;&lt;b&gt;Discovery&lt;/b&gt;&lt;/div&gt;&lt;div style=&quot;font-size: 10px;&quot;&gt;[Component : Spring Boot Eureka Server]&lt;/div&gt;&lt;div&gt;&lt;br&gt;&lt;/div&gt;&lt;div&gt;Allows micro-services obtain an IP address&lt;br&gt;&lt;/div&gt;" style="rounded=0;whiteSpace=wrap;html=1;fillColor=#008a00;fontColor=#000000;strokeColor=#005700;" vertex="1" parent="1">
          <mxGeometry x="3977" y="1001" width="140" height="120" as="geometry" />
        </mxCell>
        <mxCell id="WF0BPh4e2S1r3RLNXFHs-192" value="Subscribes" style="text;html=1;align=center;verticalAlign=middle;whiteSpace=wrap;rounded=0;fillColor=none;" vertex="1" parent="1">
          <mxGeometry x="3999" y="1156" width="94" height="30" as="geometry" />
        </mxCell>
        <mxCell id="WF0BPh4e2S1r3RLNXFHs-193" value="&lt;div align=&quot;left&quot;&gt;&lt;font color=&quot;#ff8080&quot;&gt;Orchestrator Service&lt;br&gt;&lt;/font&gt;&lt;/div&gt;&lt;div align=&quot;left&quot;&gt;&lt;font color=&quot;#ff8080&quot;&gt;[Component] &lt;br&gt;&lt;/font&gt;&lt;/div&gt;" style="text;strokeColor=none;align=left;fillColor=none;html=1;verticalAlign=middle;whiteSpace=wrap;rounded=0;" vertex="1" parent="1">
          <mxGeometry x="3527" y="1690" width="349" height="30" as="geometry" />
        </mxCell>
        <mxCell id="WF0BPh4e2S1r3RLNXFHs-194" value="" style="endArrow=classic;html=1;rounded=0;exitX=1;exitY=0;exitDx=0;exitDy=0;entryX=0;entryY=1;entryDx=0;entryDy=0;" edge="1" parent="1" source="WF0BPh4e2S1r3RLNXFHs-67" target="WF0BPh4e2S1r3RLNXFHs-173">
          <mxGeometry width="50" height="50" relative="1" as="geometry">
            <mxPoint x="2890" y="2592" as="sourcePoint" />
            <mxPoint x="3490" y="2970" as="targetPoint" />
          </mxGeometry>
        </mxCell>
        <mxCell id="WF0BPh4e2S1r3RLNXFHs-196" value="" style="rounded=0;whiteSpace=wrap;html=1;fillColor=#008a00;fontColor=#000000;strokeColor=#005700;" vertex="1" parent="1">
          <mxGeometry x="3869" y="1543" width="139.5" height="120" as="geometry" />
        </mxCell>
        <mxCell id="WF0BPh4e2S1r3RLNXFHs-182" value="&lt;div style=&quot;font-size: 14px;&quot;&gt;&lt;b&gt;Step Service&lt;br&gt;&lt;/b&gt;&lt;/div&gt;&lt;div style=&quot;font-size: 10px;&quot;&gt;[Component : Spring Service]&lt;/div&gt;&lt;div&gt;&lt;br&gt;&lt;/div&gt;&lt;div&gt;Executes the step to pursue the workflow&lt;br&gt;&lt;/div&gt;" style="rounded=0;whiteSpace=wrap;html=1;fillColor=#008a00;fontColor=#000000;strokeColor=#005700;" vertex="1" parent="1">
          <mxGeometry x="3852.5" y="1556" width="139.5" height="120" as="geometry" />
        </mxCell>
        <mxCell id="WF0BPh4e2S1r3RLNXFHs-190" value="Uses" style="text;html=1;align=center;verticalAlign=middle;whiteSpace=wrap;rounded=0;fillColor=none;" vertex="1" parent="1">
          <mxGeometry x="3876" y="1491" width="94" height="30" as="geometry" />
        </mxCell>
        <mxCell id="WF0BPh4e2S1r3RLNXFHs-198" value="" style="rounded=0;whiteSpace=wrap;html=1;fillColor=#008a00;fontColor=#000000;strokeColor=#005700;" vertex="1" parent="1">
          <mxGeometry x="3866.25" y="1307" width="139.5" height="120" as="geometry" />
        </mxCell>
        <mxCell id="WF0BPh4e2S1r3RLNXFHs-199" value="" style="rounded=0;whiteSpace=wrap;html=1;fillColor=#008a00;fontColor=#000000;strokeColor=#005700;" vertex="1" parent="1">
          <mxGeometry x="3834.75" y="1330" width="139.5" height="120" as="geometry" />
        </mxCell>
        <mxCell id="WF0BPh4e2S1r3RLNXFHs-180" value="&lt;div style=&quot;font-size: 14px;&quot;&gt;&lt;b&gt;BPMN Diagrams&lt;br&gt;&lt;/b&gt;&lt;/div&gt;&lt;div style=&quot;font-size: 10px;&quot;&gt;[Component : BPMN]&lt;/div&gt;&lt;div&gt;&lt;br&gt;&lt;/div&gt;&lt;div&gt;Separatesworkflow of transactionnal queries involving multiple micro-servicesin differents steps&lt;br&gt;&lt;/div&gt;" style="rounded=0;whiteSpace=wrap;html=1;fillColor=#008a00;fontColor=#000000;strokeColor=#005700;" vertex="1" parent="1">
          <mxGeometry x="3851.5" y="1316" width="140" height="120" as="geometry" />
        </mxCell>
        <mxCell id="WF0BPh4e2S1r3RLNXFHs-201" value="" style="shape=image;verticalLabelPosition=bottom;labelBackgroundColor=default;verticalAlign=top;aspect=fixed;imageAspect=0;image=data:image/png,iVBORw0KGgoAAAANSUhEUgAABCgAAAKbCAYAAAA35rsdAAAgAElEQVR4XuzdCZgU1bn4/1fuY4yRGU3u71GZGaMxMQ1EE5HAYAxLgMGIIrK4sAgMLiC7C5uMSxRUwAiCsqkMKEs0giK4hAFkMVHAfQFaY6KGGTQ3GmXQxPtP8F9vec+kp+merp6u7q7lW3nyME7Xcs7nPVXV9c45pw77ylqEBQEEEEAAAQQQQAABBBBAAIEMBd5//30pPJpHzAwZQ7v5YU4SFNFoVCKRSEok1ktMhAsuKkA7oB3QDpLfRjg/OD84Pzg/jADXA64HXA/8fT345je/SYIi5ZMzKyQTcJSggA8BBBBAAAEEEEAAAQQQQACBVAIffPCBHNX0K2nShF4Uqaz4/FABEhS0CgQQQAABBBBAAAEEEEAAAVcEPvvsY/nss8+FmQRc4QzdTkhQhC7kVBgBBBBAAAEEEEAAAQQQQAAB7wmQoPBeTCgRAggggAACCCCAAAIIIIAAAqETIEERupBTYQQQQAABBBBAAAEEEEAAAQS8J0CCwnsxoUQIIIAAAggggAACCCCAAAIIhE6ABEXoQk6FEUAAAQQQQAABBBBAAAEEEPCeAAkK78WEEiGAAAIIIIAAAggggAACCCAQOgESFKELORVGAAEEEHBDYP/+/VK1YZNUVW2UXbv3SHV1jRu7Df0+iouLpGWL5lJW1kXKunaWwsLC0JsAgAACCCCAQFgEHCUootGoRCKRlCasl5gIF1xUgHZAO6AdJL+N+On80MTEkqXLZHHlg1JbW5vy3sgKjRcoKCiQoeWDZMjggfUSFX5qLw3VnnpwX+C+EIz7Auf5fwS4rnFdy/S65ihB0fivFmyJAAIIIIBAcAQ0OdF/YLnstnpM6NK27U+lXWlbKS1tY//Vn7/2ZxZr9dXeKNu375QXtu+QHTtetHfYwrJdsawS38x42RoBBBBAAAHPC5Cg8HyIKCACCCCAgBcE9OG5Q6dudq+JgqZNZcaM26SbNQyBJXsC663hMxMmXC+1Bw6I9qbYunk9SYrscbNnBBBAAAEE8i5AgiLvIaAACCCAAAJeF4jtOdG8eUQWzp8rJSXF9Yo9Z+58WbHyYfnmEd+QRYvmyQ9P+YHXq+WL8u3dWy3Drhote/ZE6Unhi4hRSAQQQAABBBovQIKi8XZsiQACCCAQEoG759wrc+bOs3tOrFu72k5OfPnll/L555/LUUcdJUcccYSc072n9df+a+SZZ6qkpLhYRo++ytZ5/Y035cennRoSqexUU5MU5/XobfekGDN6hIwdMzI7B2KvCCCAAAIIIJBXARIUeeXn4AgggAACXheIHdoxf96cumEdU6dNl48++shOTuzfXytHfutImXbrzfLhhx/KpYMus+elWLvuKWndupXMumuGFBcVeb2qni7fo6sek4mTKhjq4ekoUTgEEEAAAQQyEyBBkZkfWyOAAAIIBFyg0npbx9TbptsTYq5cvtSu7cJFD0ihNSdCv34XWRM6vijHHFNgv+1KJ3g85uijpaiomTz99O/knHPOttc/v2dfeWLNowGXyn71+g0YbE+cOf2OqdK3T6/sH5AjIIAAAggggEBOBUhQ5JSbgyGAAAII+E1g2PDRsmHjpkOGFixbvlIOWEM8hl95ubzx5lvWpJl3iRwm8uc/v2fPlTBn9p1y3/2VogkOneDx/vvnMy9FhsE3Q226duksCxfMzXBvbI4AAggggAACXhMgQeG1iFAeBBBAAAFPCXToVCbV1TWy3HrNpb5S1CyjxlwtV48bLV988Q/59a9ny33WxJgHDx6050n485/ek1tuvU3+9a9/MS+Fi9HUV48OsF7zqgmgdU+scnHP7AoBBBBAAAEEvCBAgsILUaAMCCCAAAKeFfj+KT+yy/bKS8/br7i8d94iWbPmCTn55JNlwfw5Uj50mMyeNVOOPrpQdF4KnYNC56XYW11t95yYfddM+3d9Lxxgz0exectW5qVoZLR1PpBWrc+0t373nbcauRc2QwABBBBAAAGvCjhKUESjUXtsbaqF9RIL4YKLCtAOaAe0g+R3ES+fHyZBYR6IO/3ibKmomGRPgvnxxx/LTTdPlaWV98mChfdbCYwC6d/vYtfmpdAeGU2aNEl1+7V7boRlvfh4NITj5XbF9cCf1wPiRtyMANcXvtdxPcjO9cBRgiLlNyNWQAABBBBAIKAC8Q/E53S/QE455fty6cD+0qrVT6TlqWfI23tet2v/4EPL5Yt//KPBeSm0d8WkyTfItdeOleOOPTagatmrVjoJiuyVgj0jgAACCCCAQDYESFBkQ5V9IoAAAggERiD+gfi9996X537/vMyYeZe8/uoOmVJxk5x26qlyySUXyqjR1rwUV9efl+Lwww+3LV577Q2puOFmWWvNnXDfA5U6n6Zcfll5YJxyVRESFLmS5jgIIIAAAgjkXoAERe7NOSICCCCAgI8Ekj0Qz5o9155j4rKhg6VX70vkw48+kuaRH8qSykX15qWIreqTTz8jb725S4aWDxJ9O4jOU7Fo4b3ykx+f5iOR/BaVBEV+/Tk6AggggAAC2RQgQZFNXfaNAAIIIOB7gUQPxP/85z/lzLM6yZZn14v2kNBhH4nmpYiv/Lvv/klun36n3G+98ePTTz+z5q24z97+2mvG+t4pVxUgQZEraY6DAAIIIIBA7gVIUOTenCMigAACCPhIINED8T7rrRz9BwyRZzc+Yycc1jy+Ttq2bZ1wXorYqm7c9Kz85jePWq8kvVfm3jNfNmzYJL169ZQhgwf6SCS/RSVBkV9/jo4AAggggEA2BUhQZFOXfSOAAAII+F4g2QPxBx/8RSZak13OuGOqlWjYKIuXLJNP//53eeP1F+vNSxELMOyqMXLJxX3t+SeWPLhMLrqwj5zzy25y2GH6GxYnAiQonCixDgIIIIAAAv4UIEHhz7hRagQQQACBHAk09EBcW3vAmoeiqV2SflaPii+toR/dzu4qw664TMZPuF5OPvl7ctxxx8pnn30m8+cvktmzZkrr1mfIdeMny2WXDZFWp/8kR7UIzmFIUAQnltQEAQQQQACBeAESFLQJBBBAAAEEGhBw+kD85/fek/N7Xii/37bRnlfiyCOPlJUrH5aXX3lN9u/fb72a9Ady3bXj7CNt3facVFY+JJWLF2KfpoDTeKS5W1ZHAAEEEEAAAQ8IkKDwQBAoAgIIIICAdwWcPhDHz0vxxRf/kD7W/BKnn/5ju3KrVj0uv310tTRvHpH+/S6SydffKCuWL5EjjjjCu5X3YMmcxsODRadICCCAAAIIIJBCwFGCIhqNSiQSSYnJeomJcMFFBWgHtAPaQfLbiJfPj3QeiN97732ZPOUme16KV197TSqteSmm3XqTvP32H2XFbx6RKddPkG3bfm+9weNT6+eJKe+rBw8elCZNmrBejEA68fByu+J64M/rAXEjbkaA6wvf67geZOd64ChBkfKbESsggAACCCAQUIF0HoiVIH5eiuOPP1b27ftQTv7e92Ta1JvtCTE/+eTv8p3vfDugYtmtVrrxyG5p2DsCCCCAAAIIuClAgsJNTfaFAAIIIBA4gUweiGv27ZPVq9fIm2/tkjatW1sTYw4OnE+uK5RJPHJdVo6HAAIIIIAAAukJkKBIz4u1EUAAAQRCJsADsbcCTjy8FQ9KgwACCCCAgJsCJCjc1GRfCCCAAAKBE+CB2FshJR7eigelQQABBBBAwE0BEhRuarIvBBBAAIHACfBA7K2QEg9vxYPSIIAAAggg4KYACQo3NdkXAggggEDgBHgg9lZIiYe34kFpEEAAAQQQcFOABIWbmuwLAQQQQCBwAuk+EJv14yG2bd0gRc2aNeijk2q279BVHnl4mTRrdvwhPzvZh5MAvPTyK3LRxQPFyf7i6/PuO2+lPERsPVqf0eqQ9XWfWsdEn6XaebrxSLU/PkcAAQQQQAAB7wiQoPBOLCgJAggggIAHBdJ9INb1Z8+aKT3O615XmxtvukX+8pdqqVy80FcJii5l3eXCvr1l+LDL7XIvWHi/zLxzlqRKUpCg8GBDpkgIIIAAAgj4QIAEhQ+CRBERQAABBPIn4EaCwvRYiH2wj+2ZYHoTpOpBMaD/xbJ8xcM2RmwSZO26p2Tc1ePrkHS9W351Y91/xx5LyxDfg6J86DD54C9/kY1VT9VtY8oS38siPgGTqh7aS8LsS3du6kAPivy1aY6MAAIIIICAVwUcJSii0ahEIpGUdWC9xES44KICtAPaAe0g+W3Ey+dHOgmKgwcPyimR01L2oIjtmWCSC5oI0KWhIR4d2v/c7oURn2CIHTIRuz8dUqLHGjd2lN2jY/6C+2SfNYykZ88edUM8Fli/0yU2oaH1aNKkiWjiYuu25w6pj4mkk3pogiLReokSFOa4DX3hSCceXm5XXA/8eT0gbsTNCHB94Xsd14PsXA8cJShSZiZYAQEEEEAAgYAKpPNArATJ5qAwvScS9UwwSYTWrVs1mKCIfajX5EFpaRs5//xz681tEbv/ffs+tBMRsT039HPze+3NEJ+ciA9jfO8M03Mj3XrE9sRgDoqAnixUCwEEEEAAgQwFSFBkCMjmCCCAAALBFmhMgiL+IT52OEai4R6xyQank2SabXR+CDM3RGwkNCGQKEGh65gymOEWqeaUMPs122miRJf45EeieiRaTxMyM6ZPY5LMYJ861A4BBBBAAIG0BUhQpE3GBggggAACYRLIJEGhTvFDLtLteRD/Rg/z5gvT66KoqFm9N3Kk6kERm6DQJMYTTzwpNTU19YZ4mHKvXr3mkIk943t7xPaMaKgnCD0ownTWUFcEEEAAAQQaJ0CConFubIUAAgggEBKBTBMUyqQ9C3Qxb/FwMndDoteMmskvY+egiO8lYeaNMAmB2OEU2tPit4+utnsvxL5mNNmQi/gJMRPNb2He8pFsLg0zB8VZP2tnJ0HMetmcJHPv3mqZM3eeFBcXydgxI0PSUqkmAggggAAC/hcgQeH/GFIDBBBAAIEsCriRoDC9GsZfd3XdKztTvf0iWYLCvMUjfj4KncxSFx1OMvvue+omxox9g4Z+nugtHiZpkGioR/ycGone6mH4E72NxPT4MPvRiT51GTVquOtDPExiYtXqx+1jjBk9ggRFFs8Ndo0AAggggIDbAiQo3BZlfwgggAACgRJIN0ERqMp7sDKJ4hGfmOjdq6edmCgpKfZgDSgSAggggAACCCQTIEFB20AAAQQQQKABARIU3moesfEgMeGt2FAaBBBAAAEEMhUgQZGpINsjgAACCARagASFt8Jr4tGn9wVihnLQY8JbMaI0CCCAAAIINFaABEVj5dgOAQQQQCAUAiQovBXm2DkxNDFx8UV95PIrR8pYa76J8vJBdmG1Z8V55/fhd3EG3ookpUEAAQQQQOBQAUcJimg0KpFIJKUf6yUmwgUXFaAd0A5oB8lvI14+P9JJUBw8eFCaNGmS8n7JeomJnLjEJii0F8VFF/aWy6/4ejLMegmKHr2l3yUXysSJ1/0naWH9LszrGXUvn29cJ/15nSRuxI3rS8O3fq67zp8DHCUoUn7TYgUEEEAAAQQCKpBOgiKgBJ6qlomH9p5Y/dgau2yaqNA3djApZsOhmjrtDnuFiimTPBVTCoMAAggggIARIEFBW0AAAQQQQKABATcSFPGv+jzppBNlY9VTrrhr+WJfOWp2qr/XV472OK973XFeevkVuejigfarRtNdkh0ndj+Z7N9peeInybx7zr0kKhzite/Y1V5z25YNDrdgNQQQQAABBHIrQIIit94cDQEEEEDAZwKZJijMQ3tsEmHBwvvlt4+udiVJEeYEhWlKOucEiYrUJ9b+/fvtlQoLC1OvzBoIIIAAAgjkQYAERR7QOSQCCCCAgH8EMk1QdCnrLhf27S3Dh11er9L6+xnTp0nrM1rJ2nVPybirx9d9PqD/xXLLr24Uk9zo0P7nsnXbc3bPh9jeGLre8hUPN6oHhdnP+Ouulpl3zrKPHdvjoqHjJCuvsYrtIRI7Z8S2rRukqFmzjILfUDziExU67EPnnGBBAAEEEEAAAX8IkKDwR5woJQIIIIBAngQySVCYh/xEQzBiqxPbC8I8/OvD/L59H9pDMmITB7EJD7NuY4Z4mLJp8qNy8cK6ZIhJIjR0nFTlNUNIEu2jMcNL4q30vxvaj0lU6JwUJCjydOJwWAQQQAABBBohQIKiEWhsggACCCAQHgE3EhQN9RzQREFsrwKTOIhNUJjtYz8z2zR2iEei5En50GFSWtpGzj//XGnfoavEltscp1mz41OWV5MHieaj0ITFuLGj6s2LkW5LyiQe6R4riOv3HzjErtaKZUuCWD3qhAACCCDgcwESFD4PIMVHAAEEEMiuQKYPxE4ml9Q5KcwwC1ObRAmKZA/9ZqhIrESiZEDs9omSHSZB0aZN60Mm04wdkpKqvLEJivjo6JCS+OEu6UQw03ikc6wgrttvwGC7WiuXLw1i9agTAggggIDPBUhQ+DyAFB8BBBBAILsCmT4Qm4f++Idy/X3v3j2lqKiZnQxI1EvCDPFoTA+KRAkKHRIy++577Mk5E/WgMNu0bt0qaQ8K1U5VXpOgmDBxiisTgcZGONN4ZLe1sHcEEEAAAQQQyESABEUmemyLAAIIIBB4gUwfiFO9xSO+V4QmLnRCzEQ9KBRbkwhn/aydPYlmQ3NQmF4OsXM1xM4JYRIU8RNyxs5Bkeg4JkFh9puovLFzUJghHYkcGtN4Mo1HY47JNggggAACCCCQGwFHCYpoNCqRSCRliVgvMREuuKgA7YB2QDtIfhvx8vmRzgPxwYMHpUmTJodU1Dycmw9i33KhvzMP+fqzToipvRz0wV7ne7j4kkvrzQWh65gy6QSXuowcOUx+2vqMQ45740232G/5MEv/fhfJrbfcZP9nbILCrGMm2zT1iD/OqFHD7beOJCtvj/O615XNJCli3+IRO9lnotaQzC923XTi4eV2xfXAn9cD4kbcjADXF77XcT3IzvXAUYIi+aH5BAEEEEAAgWALpPNA7CeJRHNQ+KH8QY1HruyZJDNX0hwHAQQQQKAxAiQoGqPGNggggAACoREI6gMxCYrQNOF6FWWSzHDGnVojgAACfhEgQeGXSFFOBBBAAIG8CAQ1QZEXTBcOSjxcQGQXCCCAAAIIeFSABIVHA0OxEEAAAQS8IcADsTfiYEpBPLwVD0qDAAIIIICAmwIkKNzUZF8IIIAAAoET4IHYWyElHt6KB6VBAAEEEEDATQESFG5qsi8EEEAAgcAJ8EDsrZASj8ziwSSZmfmxNQIIIIBAdgVIUGTXl70jgAACCPhcgAdibwWQeGQWDybJzMyPrRFAAAEEsitAgiK7vuwdAQQQQMDnAjwQeyuAxMNb8aA0CCCAAAIIuClAgsJNTfaFAAIIIBA4AR6IvRVS4uGteFAaBBBAAAEE3BRwlKCIRqMSiURSHpf1EhPhgosK0A5oB7SD5LcRL58f6TwQHzx4UJo0aZLyfsl6iYmcuKQTDy+3K64H/rweEDfiZgS4vvC9jutBdq4HjhIUKb9psQICCCCAAAIBFUjngdhNgvc/+EBO/O53E+7yj+++Kz/4/vfdPJxv9pWvePgGKEVBmSQzKJGkHggggEAwBUhQBDOu1AoBBBBAwCWBfDwQL31wucyZe68MunSAjB0zsl5N5s1fKJVLHpKBA/od8plLVfb0bvIRD0+DpFk4JslME4zVEUAAAQRyKkCCIqfcHAwBBBBAwG8CuXwg/uqrr6R86DA5+eTvyTHHHC363yZBUV1dI1eNHCMdO7SXww8/vN5nfjPNpLy5jEcm5WRbBBBAAAEEEEhfgARF+mZsgQACCCAQIoFcPRBv3rxVLr9yhCx+YIF0aP9zqwfFvLokxOLKpbJk6TKZd+/dcuqPWtb7LEShsKuaq3iEzZX6IoAAAggg4AUBEhReiAJlQAABBBDwrEAuHohvvOlWqampkfvvm1/noAmKzz//Ql5+5RU5/fSfyJTJE+p9Ftu7wrN4WShYLuKRhWKzSwQQQAABBBBwIECCwgESqyCAAAIIhFcgmw/Eb7/9jlw5fJRcftkQe06J2OWaayfI79ZvkgeX3ietz2hV77PY3hVhi0w24xEGSybJDEOUqSMCCCDgXwESFP6NHSVHAAEEEMiBQDYfiFeseFie/t16eWjpA4fU5Nrxk+Xpp38nSyvvkzZtWpOg+D+BbMYjB80p74dgksy8h4ACIIAAAgg0IECCguaBAAIIIIBAAwLZfiDe9OxmGTZ8tDW8Y549AaZZtJfEP/7xD3nlldfk1FNbSsWUSfU+Y4jHW7RbBBBAAAEEEAiYAAmKgAWU6iCAAAIIuCuQ7QSFlvbgwYNy+RUj5ITvlsivbqqwKxA7jGOJ9VrRBxYvlXnz7pbTTv0Rk2RaPu++Q4LC3ZbO3hBAAAEEEMi/gKMERTQalUgkkrK0rJeYCBdcVIB2QDugHSS/jXj5/DAJildeel4KCwsbvBdqoqFJkyYp75fJ1lu2bKXc90Cl3L9onjz9zHo7cTFu7Ch7fzU1++SqEWOkffuz5Bvf+Ea914xmetz4Ant1f/v375dWrc+0i+skQeHldsX1wJ/XA+JG3IwA1xe+13E9yM71wFGCIuU3LVZAAAEEEEAgoALtO3a1kwPLl1VKu9K2Wa9ldXWNXHbFVXLcccfKGa1Ol7FjRtY75rz5i6Sy8kEZOLDfIZ9lvXB5PsAL23fIgIHl0rx5RJ5cuzrPpfHn4Zkk059xo9QIIIBAWARIUIQl0tQTAQQQQKBRAjo/xIaNm2TM6BE5TQiMnzhFBg8aIKf+qOUh5X733T/J979/cqPq4+eN7p5zrz28pWuXzrJwwVw/VyVvZWeSzLzRc2AEEEAAAQcCJCgcILEKAggggEB4BR5d9ZhMnFQhpaVtZMWyJeGF8EDN9a//27fvlOl3TJW+fXp5oEQUAQEEEEAAAQTcFCBB4aYm+0IAAQQQCJyAznvQoWOZ1B44IPPnzZFuZV0CV0c/VMgkigqaNpWtW6pSzgfihzpRRgQQQAABBBCoL0CCghaBAAIIIIBACgEztKCgoEDWPbFKSkqKMcuhwN691XLe+X2ktrY250NtclhNDoUAAggggEDoBUhQhL4JAIAAAgggkEpAe1H0GzBE9uyJSosWzWWB1ZOCJEUqNXc+1+TEcOvtJbt377Enx1y5fAm9JzKgZZLMDPDYFAEEEEAg6wIkKLJOzAEQQAABBIIgEDvUQ3tSzJg+jeEeWQ6sDuuYOm263XOCoR3uYDNJpjuO7AUBBBBAIDsCJCiy48peEUAAAQQCKBDbk0KrpxNn6qtH9d8W1l/3CwsLA1jr3FVJfXdbvVR0Ikx9paj+qws9J3IXA46EAAIIIIBAPgVIUORTn2MjgAACCPhOQB+iK5c8JJWVD9oTZ7JkT0B7TZSXD5LyIZeS/MkeM3tGAAEEEEDAMwKOEhTRaFQikUjKQrNeYiJccFEB2gHtgHaQ/Dbix/NDExXrqzZKVdUm2Vtdbc9PwZK5gPaWKCkulrKyzvYQmkS9UvzYXhLJUA/uC9wXgnVf4Dzn+26yFs313vn13lGCIvOvG+wBAQQQQAABBBBAIN8CTJKZ7whwfAQQQACBhgRIUNA+EEAAAQQQQACBkAgwSWZIAk01EUAAAZ8KkKDwaeAoNgIIIIAAAggggAACCCCAAAJBEiBBEaRoUhcEEEAAAQQQQAABBBBAAAEEfCpAgsKngaPYCCCAAAIIIIAAAggggAACCARJgARFkKJJXRBAAAEEEEAAgQYEmCST5oEAAggg4GUBEhRejg5lQwABBBBAAAEEXBRgkkwXMdkVAggggIDrAiQoXCdlhwgggAACCCCAAAIIIIAAAgggkK4ACYp0xVgfAQQQQAABBBBAAAEEEEAAAQRcF3CUoIhGoxKJRFIenPUSE+GCiwrQDmgHtIPktxHOD84Pzg/ODyPA9YDrAdcDrgdcDxp+9A7yddJRgiJlZoIVEEAAAQQQQAABBDwvwCSZng8RBUQAAQRCLUCCItThp/IIIIAAAgggECYBJskMU7SpKwIIIOA/ARIU/osZJUYAAQQQQAABBBBAAAEEEEAgcAIkKAIXUiqEAAIIIIAAAggggAACCCCAgP8ESFD4L2aUGAEEEEAAAQQQQAABBBBAAIHACZCgCFxIqRACCCCAAAIIIJBYgEkyaRkIIIAAAl4WIEHh5ehQNgQQQAABBBBAwEUBJsl0EZNdIYAAAgi4LkCCwnVSdogAAggggAACCCCAAAIIIIAAAukKkKBIV4z1EUAAAQQQQAABBBBAAAEEEEDAdQFHCYpoNCqRSCTlwVkvMREuuKgA7YB2QDtIfhvh/OD84Pzg/DACXA+4HnA94HrA9aDhR+8gXycdJShSZiZYAQEEEEAAAQQQQMDzAkyS6fkQUUAEEEAg1AIkKEIdfiqPAAIIIIAAAmESYJLMMEWbuiKAAAL+EyBB4b+YUWIEEEAAAQQQQAABBBBAAAEEAidAgiJwIaVCCCCAAAIIIIAAAggggAACCPhPgASF/2JGiRFAAAEEEEAAAQQQQAABBBAInAAJisCFlAohgAACCCCAAAKJBZgkk5aBAAIIIOBlARIUXo4OZUMAAQQQQAABBFwUYJJMFzHZFQIIIICA6wIkKFwnZYcIIIAAAggggAACCCCAAAIIIJCuAAmKdMVYHwEEEEAAAQQQQAABBBBAAAEEXBdwlKCIRqMSiURSHpz1EhPhgosK0A5oB7SD5LcRzg/OD84Pzg8jwPWA6wHXA64HXA8afvQO8nXSUYIiZWaCFRBAAAEEEEAAAQQ8L8AkmZ4PEQVEAAEEQi1AgiLU4afyCCCAAAIIIBAmASbJDFO0qSsCCCDgPwESFP6LGSVGAAEEEEAAAQQQQAABBBBAIHACJCgCF1IqhAACCCCAAAIIIIAAAggggID/BEhQ+C9mlBgBBBBAAAEEEEAAAQQQQACBwAmQoK2DrXMAACAASURBVAhcSKkQAggggAACCCCQWIBJMmkZCCCAAAJeFiBB4eXoUDYEEEAAAQQQQMBFASbJdBGTXSGAAAIIuC5AgsJ1UnaIAAIIIIAAAggggAACCCCAAALpCpCgSFeM9RFAAAEEEEAAAQQQQAABBBBAwHUBRwmKaDQqkUgk5cFZLzERLrioAO2AdkA7SH4b4fzg/OD84PwwAlwPuB5wPeB6wPWg4UfvIF8nHSUoUmYmWAEBBBBAAAEEEEDA8wJMkun5EFFABBBAINQCJChCHX4qjwACCCCAAAJhEmCSzDBFm7oigAAC/hMgQeG/mFFiBBBAAAEEEEAAAQQQQAABBAInQIIicCGlQggggAACCCCAAAIIIIAAAgj4T4AEhf9iRokRQAABBBBAAAEEEEAAAQQQCJwACYrAhZQKIYAAAggggAACiQWYJJOWgQACCCDgZQESFF6ODmVDAAEEEEAAAQRcFGCSTBcx2RUCCCCAgOsCJChcJ2WHCCCAAAIIIIAAAggggAACCCCQrgAJinTFWB8BBBBAAAEEEEAAAQQQQAABBFwXcJSgiEajEolEUh6c9RIT4YKLCtAOaAe0g+S3Ec4Pzg/OD84PI8D1gOsB1wOuB1wPGn70DvJ10lGCImVmghUQQAABBBBAAAEEPC/AJJmeDxEFRAABBEItQIIi1OGn8ggggAACCCAQJgEmyQxTtKkrAggg4D8BEhT+ixklRgABBBBAAAEEEEAAAQQQQCBwAiQoAhdSKoQAAggggAACCCCAAAIIIICA/wRIUPgvZpQYAQQQQAABBBBAAAEEEEAAgcAJkKAIXEipEAIIIIAAAgggkFiASTJpGQgggAACXhYgQeHl6FA2BBBAAAEEEEDARQEmyXQRk10hgAACCLguQILCdVJ2iAACCCCAAAIIIIAAAggggAAC6QqQoEhXjPURQAABBBBAAAEEEEAAAQQQQMB1AUcJimg0KpFIJOXBWS8xES64qADtgHZAO0h+G+H84Pzg/OD8MAJcD7gecD3gesD1oOFH7yBfJx0lKFJmJlgBAQQQQAABBBBAwPMCTJLp+RBRQAQQQCDUAiQoQh1+Ko8AAggggAACYRJgkswwRZu6IoAAAv4TIEHhv5hRYgQQQAABBBBAAAEEEEAAAQQCJ0CCInAhpUIIIIAAAggggAACCCCAAAII+E+ABIX/YkaJEUAAAQQQQAABBBBAAAEEEAicAAmKwIWUCiGAAAIIIIAAAokFmCSTloEAAggg4GUBEhRejg5lQwABBBBAAAEEXBRgkkwXMdkVAggggIDrAiQoXCdlhwgggAACCCCAAAIIIIAAAgggkK4ACYp0xVgfAQQQQAABBBBAAAEEEEAAAQRcF3CUoIhGoxKJRFIenPUSE+GCiwrQDmgHtIPktxHOD84Pzg/ODyPA9YDrAdcDrgdcDxp+9A7yddJRgiJlZoIVEEAAAQQQQAABBDwnsGvXHtm+Y6fU1tbK3r3Vsn7DRruM3bp2kZKSYikoKJDStm2kZcvmnis7BUIAAQQQCJ8ACYrwxZwaI4AAAggggECABV7YvkNWr14j+m91dU1dTYuKmtmJCl00MVFTs6/us+LiIulW1kW6du0s7UrbBliHqiGAAAIIeFmABIWXo0PZEEAAAQQQQAABhwLaQ2LqtDukasMmKWjaVEqtRENZWWc78VBYWJhwL/v375f1VRulqmqTbLcSGrUHDkif3hfImNEj7B4WLAgggAACCORSgARFLrU5FgIIIIAAAgggkAUBTUxULnnITkyUlw+S8iGX2kkJTUBowkJ7UmgCY291tX30kuJiOwGhPSfKrF4TZl3dR2Xlg3aiQvdRMWVSFkrLLhFAAAEEEEgsQIKCloEAAggggAACCPhUQBMQEyZOsZMQQwYPlLFjRtrJhkdXPSarH1tj9YrYWVczHeJhekVosiJ2iEdpaRu754T+X/d595x7ZcnSZXbyYsb0aUl7YPiUjWIjgAACCHhUgASFRwNDsRBAAAEEEEAAgYYENJHQf2C57N69R6bfMVX69ullzzsxddp0+3eakNDflVkTYiabBFMn0ayyJs7UhIYmLFq0aG71mphoz0Ohv5s4qcL+3YpllSQpaI4IIIAAAlkXIEGRdWIOgAACCCCAAAIIuCtgkhN7/7JXVixfaicgtNfDnLnz7MSE9qTQ5EQ6iyYkdB+aqNDtdR4KTWD0HzBYSk4oIUmRDibrIoAAAgg0SoAERaPY2AgBBBBAAAEEEMifwPCrRtvDOtauWWUN2yiye02sWv249O7VU2bOuC2jgo2fcL09PESHe2hvir17a6RHzz72cI8F8+dmtG82RgABBBBAoCEBEhS0DwQQQAABBBBAwEcCt0693Z4fwgzrMAmFiusn2hNkurHoRJlTb5tuJyl0Dgoz3EPnubihYrIbh2AfCCCAAAIIHCLgKEERjUYlEomk5GO9xES44KICtAPaAe0g+W2E84Pzg/PD2fmhk1t2/EU3e0JMTRSYYR1uJidMSUySQod66JAPkxjZ8uz6eq8g5fzl/OX8dXb+NvQwxXnEecR59HUbcJSgSJmZYAUEEEAAAQQQQACBrAvo0I4XXtghW7dUyS5rIswB1iSZbgzrSFZw0ztjuTVJZktrsswOHcukrKxLxsNIsg7FARBAAAEEfClAgsKXYaPQCCCAAAIIIBA2AX1DhyYkTI+Gc3v0tl8Jum3LhqxStO/YVU6wJ8lcUtdjQxMW+qYPFgQQQAABBNwUIEHhpib7QgABBBBAAAEEsiSgvRmqqjbavSfWW//qK0DNPBRODtl/wBCZPOk6Oe20UxOu/u9//1sGXjpUrp88vt46Zv4JPVY3q/eE9qLo0+cC5qJwgs46CCCAAAJpCZCgSIuLlRFAAAEEEEAAgfwIdOhUJi2aN5eFC+aK9p7Q5cm1q1MW5g9/eEEGl18hnTq2l06dOsqA/hcfso0mPEaOGie/6NRBOnbscMg62ouipKRYVlqvNB02fLTs3rNHtm6uSnlsVkAAAQQQQCAdARIU6WixLgIIIIAAAgggkAeBXbv22K/6NL0YWrU+s26oR0PFuWP6nfLmW7tkaeV9cvOvpkpzK8ERn6DQnhifffaZ/QrRG278VcJ1zGScr7z0fF3vDX3FacuWzfOgwSERQAABBIIqQIIiqJGlXggggAACCCAQGAHzRg2nCYK//vV/7F4TvS44X668YqjtEJ98eO21N+TyK66SCROukQv7ft0jI1mCIlGCJBtvDglMwKgIAggggECjBEhQNIqNjRBAAAEEEEAAgdwJmB4M777zVt1ElfpzomXVqsdl5q9n2b0mIpEf1q0Sm3y4a9Yc2fbc7+X+++bLf3/nOwnXid/390/5UV2vjdifc6fAkRBAAAEEgi5AgiLoEaZ+CCCAAAIIIOB7AZ0gU9/ioW/siP05vmJjxl4rR3zzCJk5/bZD6qwJimbNmsmTTz0j5/yym4waOTzhOomGgeiKp7cqrZscM/Zn3+NSAQQQQAABzwiQoPBMKCgIAggggAACCPhNQF/zWbVhk/12jV2790h1dU1WqvCVfCWlbdvYk1T2GzDYPob+bJZXX3tdhpRfKVNvvUnOO/echGW4asRo+cPzO+U3K5ZIixaJ545INsRDdxh7XP15+46dcpj1v2wsxcVF0tIqY5n11pCyrp2lsLAwG4dhnwgggAACHhNwlKCIRqNWF8FIyqKzXmIiXHBRAdoB7YB2kPw2wvnB+eG380MTE0uWLpPFlQ9KbW1tyu9Ima6QKkExZ+48effdP8nds+9MeqgRI8dawzr+ICtXLJVTf9Qy4XpeSVDEFq6goECGlg+SIYMH1ktUcN3guuG360ZD1wHaM+2Z9vx1G3CUoMj0psr2CCCAAAIIIIBAUAQ0OdF/YLnstnpM6NK27U+lXWlbKS1tY//VPxt/7ddhHdpjQV/tGftzrOnqx9bI7bfPlMrKRQkTEJp8KC4ulqesIR5drV4JY0aPOCQkDSUo6g3xOKOd9OndU26omOx6WNVXe6Ns377THtayY8eL9jG018eKZZVZ8XW9EuwQAQQQQKBRAiQoGsXGRggggAACCCAQRgF9eO7QqZvda6KgaVOZMeM26WYNQ8j24nSSzI8/+UTKraEeZ59dJiNHDKtXrNjkw+y775FnN2+VB+6bJ//v//2/uvUaSlDka5LM9dbwmQlWgqb2wAHR3hRbN68nSZHtBsf+EUAAgTwJkKDIEzyHRQABBBBAAAF/CcT2nGjePCIL58+VkpLiepWYM3e+rFj5sHzziG/IokXz5Ien/MCVSqb7mtFf33W31ftgpyxZvEiOOupbdhnikw9vvPGmXHbFCLn2mjFy8UV9E65jCp/v14zu3Vstw64aLXv2ROlJ4UqLYicIIICANwVIUHgzLpQKAQQQQAABBDwmYHoxaM+JdWtX28mJL7/8Uj7//HMrCXCUHHHEEXJO957WX/uvkWeeqZISazjF6NFX2bV43UoG/Pi0Uxtdo0QJAh2iMXbMyKT7fOmll2XI0Ctl+h3TpPs5Zx+SoDAbTr7+RvnE6nmxcME9SdcxdX/lpedFezRMnFQha9eskpYtE0+22eiKNrChJinO69Hb7kmRqu7ZOD77RAABBBDIvgAJiuwbcwQEEEAAAQQQ8LlA7NCO+fPm1A3rmDptunz00Ud2cmL//lo58ltHyrRbb5YPP/xQLh10mT0vxdp1T0nr1q1k1l0zpLioqNES7Tt2tea4aGElEubKufqgbg0z0TkpUi2jRl9tJ1C+8Y3DJdkrRPVNJDqJZqdO7aVTx44yoP/F9Xarx9aEjL45ZNjw0dYcEbvtV57menl01WN2coShHrmW53gIIIBAbgRIUOTGmaMggAACCCCAgI8FzBALnRDTvN5z4aIHpNCaE6Ffv4usCR1flGOOKbDfeqYTPB5z9NFSVNRMnn76d3KO1XtBl/N79pUn1jzaaAWdHFMTCToHg+nFMP2OqdK3T6+U+/zto6tl5sxZcv31E+SCnj0Srv/vf//bTqpMnnSdnBbT28MkBfRYOt+GzsGRrQkyU1bEWkFfcaoTZzqtu5N9sg4CCCCAgDcESFB4Iw6UAgEEEEAAAQQ8LKC9BjZs3HTI0IJly1fKAWuIx/ArL5c33nzLmjTzLusdaSJ//vN79lwJc6zXft53f6X1Zo0H7b/633///EbPS6FvtBhgvT3EDG9IpxeF0n788cfy3//932krx/aeMEM9lltv09A3l+RjMWXo2qWz3ZuEBQEEEEAgOAIkKIITS2qCAAIIIIAAAlkS6NCpTKqrayT+wXzUmKvl6nGj5Ysv/iG//vVsuc+aGPPgwYP2PAl//tN7csutt8m//vUv1+al0ETJ168bXW/31NCERZ/eF8iM6dOyUnPttaGvL9V66ytUtfdEmfWK0pnW20vytZhEjSaA1j2xKl/F4LgIIIAAAlkQIEGRBVR2iQACCCCAAALBEtBXbOqik0QWFhbKvfMWyZo1T8jJJ58sC+bPkfKhw2T2rJly9NGFovNS6BwUOi/F3upqu+fE7Ltm2r/re+EAez6KzVu2NmpeCp0osuMvusmQwQPlhorJYnoTVFw/0Xq96CBX0c2wFtNjY8LEKbJq9eOy5dn1h7y9xNUDp9iZzgfSqvWZ9lrvvvNWLg/NsRBAAAEEsizgKEERjUbtMZWpFtZLLIQLLipAO6Ad0A6S30U4Pzg/vH5+mASFeSDu9IuzpaJikj0Jpg6duOnmqbK08j5ZsPB+K4FRIP37XezavBTaI6NJkyZ1jeTWqbfLkqXL6uZgML0cKqZMkvIhl6b6uuboc5Oc6N2rp91bwsxDYRIjsTuJL1+yA7i5Xnw8GqoU1xeuL16/vlA+vh8YAa5X1ijJr6zF0Z2KlRBAAAEEEEAAgZAKxD8Qn9P9AjnllO/LpQP7S6tWP5GWp54hb+953dZ58KHl8sU//tHgvBTau2LS5Bvk2mvHynHHHpu2qpkTQ1/1WVJSJLdOvcMeiuHGcA+T8NDkxA1WEmbv3hrp0bOPeGnOh3QSFGnjsgECCCCAQN4ESFDkjZ4DI4AAAggggIBfBOIfiN9773157vfPy4yZd8nrr+6QKRU3yWmnniqXXHKh6Gs9r766/rwUhx9+uF3V1157QypuuFnWWnMn3PdApc6nKZdfVp42gw5z6DdgiD0vxoplS6Rly+Z1wz2Ki4tk7JiRdrIinUV7ScyZO8/epxnWsWvXHuk/cIjoPlcuX2IPb/HCQoLCC1GgDAgggID7AiQo3DdljwgggAACCCAQMIFkD8SzZs+155i4bOhg6dX7Evnwo4+keeSHsqRyUb15KWI5nnz6GXnrzV0y1JozQntC6DwVixbeKz/58WlpqZkkxZ490brhHjqBpPam0N/pJJL6WlDt+aAJjESLJiD07SSanNDEhL5GVZMb+oYOM6yjefOIp5ITWg8SFGk1FVZGAAEEfCNAgsI3oaKgCCCAAAIIIJAvgUQPxP/85z/lzLM62ZNGag8JHfaRaF6K+DK/++6f5Pbpd8r91hs/Pv30M2veivvs7a+9Zmza1dMkxfgJU+wkg84/oT0ftJeDJhd0QssdO16s26cmUkyiQhMTtbW1dZ9pYkJ7XPTt00t0n9qTonLJQ3ZyY+aMaZ7pOWEKTIIi7abCBggggIAvBEhQ+CJMFBIBBBBAAAEE8imQ6IF4n/VWjv7WMItnNz5jJxzWPL7O6oHQOuG8FLFl37jpWfnNbx61Xkl6r8y9Z75s2LBJelnzPegElI1dzMSZmoTQnhm6L01UaLJhfdVGu3eE/qyvJtVFXxmqn+vQDe1lYdbVyTcXVz5oJy8STYjZ2PK5vR0JCrdF2R8CCCDgDQESFN6IA6VAAAEEEEAAAQ8LJHsg/uCDv8hEa7LLGXdMtRING2XxkmXy6d//Lm+8/mK9eSliqzbsqjFyycV97fknljy4TC66sI+c88tucthh+pvGL/oKUh3eob0pNFHRznrDSJmVfCjr2jlpDwhNWlRZCZIqK4nxwvaddmJCJ8fUYR4lJcWNL0yWtyRBkWVgdo8AAgjkSYAERZ7gOSwCCCCAAAII+EegoQfi2toDVkKgqV0ZnbjyS2voR7ezu8qwKy6zhl9cLyef/D057rhj5bPPPpP58xfJ7FkzpXXrM+S68ZPlssuGSKvTf+IqhM5DoQkH7TlRU7Ovbt8NDfEoKmpm96TQhIbOP+H1hQSF1yNE+RBAAIHGCZCgaJwbWyGAAAIIIIBAiAScPhD/+b335PyeF8rvt22055U48sgjZeXKh+XlV16zh1iccsoP5Lprx9lyW7c9J5WVD0nl4oVZk9S5JrZbCYv9Vs+IREM8Cq2eFqVWQiLZJJpZK1iGO3YajwwPw+YIIIAAAjkWIEGRY3AOhwACCCCAAAL+E3D6QBw/L8UXX/xD+lhDJk4//cd2pVetelx+++hq0Tdj9O93kUy+/kZZsXyJHHHEEf5DyWOJncYjj0Xk0AgggAACjRBwlKCIRqMSiURS7p71EhPhgosK0A5oB7SD5LcRzg/OD6+fH+k8EL/33vsyecpN9rwUr772mvU2jGUy7dab5O23/ygrfvOITLl+gmzb9nvrDR6fWj9PTPn96uDBg9KkSRPWixFIJx5cX7i+eP36Qvn4fmAEuF6JOEpQpLwjsgICCCCAAAIIIBBggXQeiJUhfl6K448/Vvbt+1BO/t73ZNrUm+0JMT/55O/yne98O8Bq2atauvHIXknYMwIIIICAmwIkKNzUZF8IIIAAAgggEEiBTB6Ia/btk9Wr18ibb+2SNq1bWxNjDg6kUS4rlUk8cllOjoUAAgggkJ4ACYr0vFgbAQQQQAABBEIowAOxt4JOPLwVD0qDAAIIuCVAgsItSfaDAAIIIIAAAoEV4IHYW6ElHt6KB6VBAAEE3BIgQeGWJPtBAAEEEEAAgcAK8EDsrdASD2/Fg9IggAACbgmQoHBLkv0ggAACCCCAQGAFeCD2VmiJh7fiQWkQQAABtwRIULglyX4QQAABBBBAILACPBB7K7TEw1vxoDQIIICAWwIkKNySZD8IIIAAAgggEFgBHoi9FVri4a14UBoEEEDALQESFG5Jsh8EEEAAAQQQCKwAD8TeCi3x8FY8KA0CCCDgloCjBEU0GpVIJJLymKyXmAgXXFSAdkA7oB0kv41wfnB+eP38SOeB+ODBg9KkSZOU35tYLzGRE5d04sH1heuL168vlI/vB0aA65WIowRFyjssKyCAAAIIIIAAAgEWSOeBOMAMnqka8fBMKCgIAggg4KoACQpXOdkZAggggAACCARRgAdib0WVeHgrHpQGAQQQcEuABIVbkuwHAQQQQAABBAIrwAOxt0JLPLwVD0qDAAIIuCVAgsItSfaDAAIIIIAAAr4TeOSRVXJ8s+OlQ/uzGiw7D8TeCi3x8FY8KA0CCCDglgAJCrck2Q8CCCCAAAII+E6gY6du8smnn8oJJUVyQ8VkObNdacI6NOaBWLeZPWum9Dive90+X3r5Fbno4oHy7jtvpW2l+3vk4WXS+oxWSbdt7P7dLmvalUtzg8bEI81DsDoCCCCAQB4ESFDkAZ1DIoAAAggggIA3BDp3OUfee/8DOcwqTuHRhdKs2XEJExWNeSB2+6GfBMV/2kxj4uGNFkcpEEAAAQQaEiBBQftAAAEEEEAAgdAK1CUoNEOhy1dfJyqKio63ExXtStvav27MA3GqBEXNvn3SvkNXGX/d1TLzzln2cWJ7XJjP9fcD+l8sy1c8XNeDYu26p2Tc1ePr4qaf3/KrG+vKedJJJ8rGqqfqlV3/Y9vWDVLUrNkh8U5VVt1gwcL768oZX9ZYo9jjmB4dHdr/XLZue87uOZJqP04aY2Pi4WS/rIMAAgggkF8BEhT59efoCCCAAAIIIJBHgUMSFDFlKSgskOKiZnaiYsDAcvuTdIZmpHroNwkIfXivXLxQzMO8SSJ0KesuF/btLcOHXS4mIWGGeMT2pjCf6Xb79n1YbwhJon0kqoPTspptTdnNfyc7jqmTSbzEbxf/306bAgkKp1KshwACCPhLgASFv+JFaRFAAAEE0hB4dvNWWbX6cXnZGvf/0Ud/TWNLVg2LwFdWjwldDjM9KBJU/CvtVqHrWP/LRoIidl6J8qHDpLS0jZx//rl274rYHg8mKdHMmtQztheEeciPT1Akmo9CEwnjxo6qNy+G1s1pgiJRD4yGjlNkJXh0zg2zXWxZE/XkcNruTj6lpR0PFgQSCRx33LFyhjVXy4V9e0nHDu1BQgABHwk4SlBEo1GJRCIpq8V6iYlwwUUFaAe0g0TtYNeuPbJ9x06p2rDRBtq/v1Z2795j/9yiRXMptP6Cq0tZ1y5S2raNtGzZvB4k7Spxu3r55Zdl8ZJl8vTTv0t572KFcAukk6BQqT+9sysl2MGDB6VJkyaSKBkQ+zC/t7padJLO2Id+k6Bo06Z1XU+I2P3NmD7NniQzfpiEFmrL5vV2Is5MwmmOFV/g664dJ1cNv6LerxOV9cWXXpaLL7m0LikTvz/TK8KsF38cHbpi6qF1PP6442yXZPsx25v6NgRtelCkDAYrhF7gnHPOltun/Upqamp4nknQGvgewffTRN9Pk104ctFeHCUoQn9lAwABBBBwUWDv3mqZM3eevLB9h1RX16S15+LiIulW1kWGDL5USkqK09o2TCtfNWKMrK/aKE2bHiU331Rh/wXtO9/5dpgIqKtDgVRDPEqKi60hHpOk/4Ah9h7T6UGR6KFfh2PMvvsee34I05sgtgeF2aZ161ZJe1BoOZL1Sogd4qGJgAkTp9TNRdEQSaqyxm8b32sj2XHih600tJ90elQwxMNhAw/pap988nfZvGWr3HTzVPniiy/k7G5dZd69d4dUg2oj4C8BEhT+ihelRQABHwvs379flixdJnfPudeVWowdM9JKVAy0elkUurK/oOxkzZp1cs11E+3kxJrHfis6WSALAskE4hMUOpyjoKDAeu1oiZ2Y0J5LujTmgdj0cohNasTO1WAe8s0El4nmoDjrZ+3syS9j56AwCQqzX+11oRNQJpuDwgzpMPtP9KrSVGWNTazo8RPNQZHoOPHJlFT7cdpSGxMPp/tmveAI/PnP70nPXhfK559/IXfPvlPOO/ec4FSOmiAQUAESFAENLNVCAAFvCTy66jGZOm261NbWulowfZCqmDJR+vbp5ep+/byzy68cIc8+u0Wm3z5V+lrjj1kQaEjAJCjksK8TE98tOcFOTLRt+9N6mzX2gfjGm26x375hFpOMiH3IN2/o0N/FJw/McXUiTV1GjRpuD/EwSQn9nQ610F4ZJkEQX9bY4RCxbwmJd2morLpu/OfJymrK1OO87odM/OlkP05abGPj4WTfrBMsgd88/FuZUnGzNVSysyyYPzdYlaM2CARQgARFAINKlRBAwFsCOpwjWa+JgqZNrQnx2kpZWWd7yEZhQWHdPBM6P8X+2v2iQ0KqqjbJdmtISO2BAwkrp70pxowe4a2K56k0bUvby8effCIv7vi9fPvbx+SpFBzWLwI6B8THn/5dvvfdExMmJkw9svFA7NaEkX6xdrOc2YiHm+VjX94RMOfZ8ccfJ7/ftsk7BaMkCCCQUIAEBQ0DAQQQyJKADunQXhP6Fon4RWe216RCuj0ftCeGJjtqavYdss8+vS+we1OEfcgHDy5ZatAB3e3q1WvkOGvyxrPOatdgDbPRrkhQNL5RZSMejS8NW3pdgPbi9QhRPgT+I0CCgtaAAAIIZElAJ42LT05oj4ny8kF2ciKTRZMUlZUPHtKjQpMUOst/mBe+iIY5+tmrO+0qe7aN2TPxaIxaeLehvYQ39tTcfwIkKPwXM0qMAAI+ENAEgg7tiF00ObFi+dJDXhXa2OroEJD+AwYfkqTQoR6ZJkAaWyYvbMcXUS9EIXhloF15K6bEw1vx8HppaC9ejxDlQ+A/AiQoKxAHowAAIABJREFUaA0IIICAywI6DGPipIp6e23ePCIrly9xffiFDiPpZ73+cM+eaL3jTb/DmiAypBNn8kXU5QbN7mwB2pW3GgLx8FY8vF4a2ovXI0T5ECBBQRtAAAEEsiKgCYMO1qR7sW/r0J4TW7dUuZ6cMBWwj9mxrF5PCn0bwdbN67N2zKzgubRTvoi6BMlu6gnQrrzVIIiHt+Lh9dLQXrweIcqHQJoJimg0KpFIJKUb6yUmwgUXFaAdhKMdxA/tiB/WcfDgQWnSpEnK62m66yUa7hE71CNM7S+dL6JhcuE6lPy0c9IO0mlX6Z6/qS4I7O9QoXTi4SS+nB+ZnR9e96O9BDu+Xm9/lC+99scQj1TfCvgcAQQQcCigrwPt+Itu9dbO5XwQiea92PLsevv1pWFa0vkiGiYX6pqZAO0qMz+3tyYebosGe3+0l2DHl9oFS4AERbDiSW0QQCCPAuMnXC+rH1tTVwJ9lei2LRtyWqL2HbvWewVp7149ZeaM23JahnwfjC+i+Y5AMI9Pu/JWXImHt+Lh9dLQXrweIcqHwH8ESFDQGhBAAAGXBDp0KpPq6pq6veVjosr4CTqLi4usuSiqXKqhP3bDF1F/xMlvpaRdeStixMNb8fB6aWgvXo8Q5UOABAVtAAEEEHAs8Mgjq+T4ZsdLh/ZnJd1G54Do0bNP3ec698Srr2x3fAw3Vzy9VWm9CTPXrlnl2qtN3SxntvbFF9FsyYZ7v7Qrb8WfeHgrHl4vDe3F6xGifAiQoKANIIAAAo4FOlpv5fjk00/lhJIiuaFispzZrvSQbePnf+japbMsXDDX8THcXHHY8NGyYeOmul1WXD9RyssHuXkIT++LL6KeDo9vC0e78lboiIe34uH10tBevB4hyocACQraAAIIIOBYoHOXc+S99z+Qw6wtCo8ulGbNjjskUdFvwGDZsePFun3mY3iHOXj8MI+2bX8qK5cvdVxfv6/IF1G/R9Cb5addeSsuxMNb8fB6aWgvXo8Q5UOABAVtAAEEEHAsUJeg0AyFLl99nagoKjreTlS0K20r8QmK5csq7d/nY3lh+w4ZMLC87tAkKPIRBY4ZNAEecLwVUeLhrXh4vTS0F69HiPIhQIKCNoAAAgg4FjgkQRGzZUFhgRRbb+v4298+tv9vlny+3jN+PowWLZrLuidWOa6v31fki6jfI+jN8tOuvBUX4uGteHi9NLQXr0eI8iFAgoI2gEDoBJ7dvFVWrX5cXn75Ffnoo7+Grv6ZVPgrq8eELoeZHhQJdvaVdqvQdeyBICLvvvNWJofMeFvzZczsKN/lybhCaeyAL6JpYLGqYwHalWOqnKxIPHLCHJiD0F4CE0oqEgIBR68ZjUajEolEUnKwXmIiXHBRgXy1g5dfflkWL1kmTz/9u5TnMCskFkgnQWGSFMkSAgcPHpQmTZqkpM50vfgExVPrVofmOp7OF9F8nZcc13/3hXTaVabnb7wO+zu0vaQTD843/51vbn9vor0k/9rB+cH54fb5lun+HCUoUn6TZgUEEPCswFUjxsj6qo3StOlRcvNNFdKxQ3v5zne+7dnyerFgqYZ4lBQXy1//+lf5+ONP6orvpSEezZtH5Mm1q71Im5UypfNFNCsFYKeBFPBru9IhX9t37JTa2lrZu7da9lZX2/HR61ZJSbEUFBRIads2vnsVsV/jEciTwweVor34IEgUEYH/EyBBQVNAIMACa9ask2uum2gnJ9Y89ls56aQTA1zb7FUtPkGhwzn0S/0JJSXWJJmT7C/3TJKZPf9098wX0XTFWN+JgJ/alU6Uu3r1GtF/q6tr6qpXZM2Xo0kJXTRZUVOzr+6z4uIi6VbWRbp27Zy3CX6dxMGs46d4pFMv1s2OAO0lO67sFYFsCJCgyIYq+0TAIwKXXzlCnn12i0y/far07dvLI6XyXzFMgkIO+zox8d2SE+zEhL4dwyy8ZtQ7ceWLqHdiEaSS+KFdadJh6rQ7pGrDJilo2lRKrTcJlZV1thMPhYWFCcOxf/9+u5ddVdUm2W4lNGoPHJA+vS+QMaNH1CUzvBhHP8TDi25hLRPtJayRp95+FCBB4ceoUWYEHAq0LW0vH3/yiby44/fy7W8f43ArVosX6Nipm3z86d/le9898ZDEhFm3svJBmXrb9LpNu3bpLAsXzM0L5rDho2XDxk11x664fqKUlw/KS1nycVC+iOZDPfjH9Hq70sRE5ZKH7MSEnu/lQy61kxKagNCEhfakSDTEQ3tOlFm9Jsy6ug+9nmmiQvdRMWWSJ4Pr9Xh4Ei3EhaK9hDj4VN13AiQofBcyCoyAcwFuyM6tGlpTu0ofd9xxctZZ7ZKuFv9qT+1p8erLL7hTgDT3cvoZ7ezx5mZZu2aV78aXp1nleqvT7jPRY9tkAl5tV5qAmDBxip2EGDJ4oIwdM9JONjy66jFZ/dgaq1fEzroqNTTEo7S0jd1zQv+v+7x7zr2yZOkyO3kxY/q0pD0w8tVivBqPfHlw3IYFaC+0EAT8I0CCwj+xoqQIpC3ADTltsow2aN+xa70x3dPvsIbW9Mnt0Bp9KJk4qaLeA8m2LRsyqpffNqbd+y1i/iivF9uVJhL6DyyX3bv3iLne6LwTU6dNt3+nCQm9BpV17ZI0SanJ1aoNG+2Ehs5J0aJFc6vXxER7HgpzPdHfrVhW6akkhRfj4Y+WHM5S0l7CGXdq7U8BEhT+jBulRsCRADdkR0yurTR+wvX2XyzNol2nt26ucm3/TnbUoVNZvUnx9C+qN1RMdrJpYNah3QcmlJ6qiNfalUlO7P3LXlmxfKmdgNBeD3PmzrMTE9qTIt0EqSYkdB+aqNDtdR4KTWD0HzBYSk4o8VSSwmvx8FRjpTCHCNBeaBQI+EeABIV/YkVJEUhbgBty2mQZbaDjuzv+olu9fegXfP2in4vFPJzEHiufrzvNRZ0THYN2ny/5YB/Xa+1q+FWj7WEdOoSrpKTI7jWxavXj0rtXT5k547aMgmGSrTrcQ3tT7N1bIz169rGHeyyYn5+5deIr5LV4ZATOxlkXoL1knZgDIOCaAAkK1yjZEQLeE+CGnPuYxCcJdC6KFcuWZH0OCPuvnAOH1Jt7IpfJkdxLJz8i7d5L0QhOWbzUrm6ders9P4QZ1mESCm5NiNvtlz3kuGOPlT88/4I9J4XOQWGGe3ilV5aX4hGcVh7cmtBeghtbahY8AUcJimg0KpFIJGXtWS8xES64qEA+2kE6N+R8lC9fLtk8rna77tCxzJ4B3yyapNi6eb09fvvgwYPSpEmTlNfTdNY7YB2rg/WmkdiJMXUm/61bqurGjIcpvrT75M0rTO3A7fPctKtXXno+5VwM6Zy/6V4PTE8tkygwSdFEyYkv//d/5Y3X35TTTvuRHHHEESmvO7rC66+/IRf3GyTPPL1GNm3cbL+dyCQ7TWIkvmdWNuubqNB6nW3V+kz7o3ffeStlvWj3fA/jvsB9wQhwPfD+9cBRgiLllZ8VEEDAkwLp3JA9WQGfFip+okqtRrYmmYudJC+WKx8TdHolXLR7r0QiWOUwk+AutyaL1Akk87Xo0I4XXthhJyB3WRNhDrAmyUw2rCMafVuGDL1Szu7WVW6+6T+T5zZU9v4Dhsg7f/yj7Nz+nL2a6Z2h9W5pTZapCdiysi4ZDyPJxE8nAtV6N28ekSfXrs5kV2wbEgHuCyEJNNUMhAAJikCEkUogkFiAG3L+Wkai+SDcHu6RaFiH1jisQztMtGn3+Wv3QT7ysOGjZcPGTXk9v8yDuTnHz+3R234laLI39fzqlmly0kknyUsvvSzdrCTFeeee02CIXn31dRl3zXhp2+an9rAOs2hy5gR7kswldRNx5jNRY66vXbt0loULvDEnRpDbfhDqxn0hCFGkDmERIEERlkhTz1AKcEPOb9jj3+qhpdEkxdDyQfZDTiaLztS/uPLBesM6dH9uTJCXSbm8sC3t3gtRCF4ZTM+o0tI29oN6Pha9plRVbbR7T6y3/tVXCjfUW6rlqWfIyy/+Qb75zW/KmWd1ksdXPyLHHXds0qIPKb9S/vWv/0/69u0tF/TsUbeeqbseq5vVe0J7UfTpc0He3hCk8+1s376zwbrnIz4c07sC3Be8GxtKhkC8AAkK2gQCARbghpzf4OpfNm+deke9V4+aEukrSPXtHjoBXTqLztKvfz2srq45ZDNNTtxQMSnl+Ph0jufHdWn3foya98scO7/M/Hlz7Af1XC/6GuEWzZvbvQa094QuyYY4rHlinWzevFVm3TXDXu+DD/4ig4ZcLps3/S5hsV9+5VW57bYZUl1TkzCRob0oSkqKZaX1SlPtTbJ7z56cv0ZZC26SJfHz7OQ6FhzPXwLcF/wVL0obbgESFOGOP7UPuAA3ZG8EONFwD1My7VHRzvqLrI7p1i//BU0L6t74oUM4ag/UWq/4q7b/avqC9RfD2IkwY2sX9mEdsRa0e2+0+yCWwpzLet6ue0Jf71mcs2rq9UBf9Wl6MegkkQ2d9zqXxJgxI+rNl6EJTp2/ItFrSDV50eO87rJw0QOyYf2Th9TL1F0nCTW9N/QVpy1bNs+ZgV4Lzzu/j30d5JqXM/ZAHIj7QiDCSCVCIkCCIiSBpprhFOCG7J2461/9plq9KWLf7uFG6fSviBVWr4m+fXq5sbtA7IN2H4gwerIS2ouin/Xgv2dP1J74doHVkyJXSYpKa0iXvlHDSYLg/Q8+kCFDrpRnNz1ziOOkyTfIGWecLhdd2KfuM52j4o4Zd1nDOs6z6va23HrLjYdslyhB4tZrTZ0EW5MTw0eMkd3WxKA6OebK5UtC31vMiRvrfC3AfYGWgIB/BEhQ+CdWlBSBtAW4IadNltUN9OGmcslDovNHuLHoXxDLh1zKl/Q4TNq9G62LfSQTiB3qoT0pdDLJXAz3MD0Y9LWasT8nKud0K9lwzDGFMuzKyxNWo0tZd7l/0Tz53vdOsj8fOGiojBh+pSxf8Rs5z+pFcc4vuyXcTs8t03Mh9udstxY7wTttut1zgqEd2dYO5v65LwQzrtQqmAIkKIIZV2qFgC3ADdmbDUH/EqgPGDojf03NvrQKWVTUzH4YKh8yKGd/uU2rgB5YmXbvgSAEvAixPSm0qjpxpr56VP9tYf11v7Cw0HUBnSBTrxn6xo7YnxMdqHWbn1nDNJ6Sb3/7GPvj7uf1ktmzZsoPT/mB/d8ff/yx/LL7BdarRLfJzp0vyZ13zZaHVz4kZ/z0TNm04RkruXF0wvKf3qq0bnLM2J/drqz67rZ6qehEmFpn/VcXek64LR2e/XFfCE+sqan/BUhQ+D+G1ACBpALckL3fOLTb9HbrC/j6DRvtwu7fX2t3HzdfxgsLC+yfu3XtYj38tM3peG/v6yUuIe3er5HzV7lNjygdeuH20K1EEl/JV1Lato09SWW/AYPtVfTn+GX9+g2y+vEn7OEnulzc71K57ppxcvU1E+SRR5ZJUbNm9u+feWa9PLHuKfns089k1KjhcszRR8t1VhIk2aSbuk3scfXn7Tt2ymHW/7K9aK+JcuvtR/QYy7Z0cPfPfSG4saVmwRNwlKCIRqMSiURS1p71EhPhgosK5KMdpHNDzkf58uXCcZNfzoPQDmj3wY6v185fTVTopJFVVZtkb3V1XYIx5ZemNFdwmqAYevlwGTSwv3Tq1EHu/PVs+da3viUjrrpSvvzf/5XTT28ru3e9WnfkmTNnyZ7o2/LA/fOt1xYvtXp0fSgVUyYmLVkuExTaW6KkuNiaQLiz3WssUa+UIFyvvNaeEwU/CM7cF7gvGIEgtOegXzccJSjSvIeyOgIIeEQgnRuyR4pMMRDIWIB2nzEhO/CggA7r0B4LWzdX2UM8zM+xRf3rX/9Hzr+gr7zwhy2yecs2efDBZbL4gYV1q7z99jsyZtx18sxTaw6p4eVXjpD+l1wknTt3Slr7ekM8zmhnvSZZX2082YNaFAmB+gLcF2gRCPhHgASFf2JFSRFIW4AbctpkbBAAAdp9AIJIFQ4RcDJJ5tx75su//vUvueLyofKzn3eS11/9eu6G2CV+CIj57EentZYXdzwnRx55ZFL9fE2SSXNAIFMB7guZCrI9ArkTIEGRO2uOhEDOBbgh55ycA3pAgHbvgSBQBNcFnLxm9Oftu9jzTFxx5Ui5c8Zt9qtQEy2L7ntAPvnkU5k08Vr741dffV1umXqbrH70N0nLne/XjLoOyg5DJcB9IVThprI+FyBB4fMAUnwEGhLghkz7CKMA7T6MUQ9+nRMlCMwrP7X2W7c9J4sXPygnnvhd+cEPTpZLrXkoGlomX3+jNSfFj+Xii/rKvPmL5IsvvpDrrh2XdBPTg+OVl56359yYOKlC1q5ZxcS9wW96gagh94VAhJFKhESABEVIAk01wyng5Ib80suvyEUXD5RHHl4mrc9oZUN1KesuM6ZPq/vvcOpRa78KOGn3fq0b5Q63QPuOXaVlixaycMFcObdHb6mtrbXnpNBl5Khx0qzZ8fLX//mbzJl9pyOofv0Hy7hxo0SHhowYfqX87Gftkm6nxy4pKbbfHDJs+GjZtXu3/cpTFgT8IMB9wQ9RoowIfC1AgoKWgECABZzckE2CokP7n0vl4q8nUyNBEeBGEYKqOWn3IWCgigEU0MkxqzZsspIS6+t6MUy/Y6qc3a2rnGUN72ja9Cj5w3PPplXzM8/qJDq55h/fflMOOyzxK0MfXfWY3WNCj6Vv1OjQqRsTZKalzMr5FuC+kO8IcHwEnAuQoHBuxZoI+E7AyQ1ZExQTJk6Rs6y/nPXs2cPuNRGboFi77ikZd/V4u+4D+l8st/zqRt85ZLvAxlmPM3vWTOlxXvdsH1IWLLxftm/fWZdUSnVALWNsL5lU6/v5cyft3s/1o+zhFXhh+w4ZMLBczNAO04vioov6yP33L5Gn1j0mRUXN0gL6n7/9TR5bvUauvPKypNvF9p4wQz2WL6uUdqVt0zoWKyOQLwHuC/mS57gIpC9AgiJ9M7ZAwDcCTm7IJkHx0IMPyIIF99kJCJOg0O7C7Tt0lW1bN0hRs2ai+8vVA7hfkNVk/HVXy/Bhl9tFzlUigARF8hbipN37pX1RTgTiBXR4xdevGF1vDbPYYycsOv+io9x8U4UUFxe5Dqa9NlY/tkY0IdHSmnRTe0+Ude0sM61JOFkQ8IsA9wW/RIpyIsAQD9oAAoEWcHJDNgmKjVVPyY033SLDh18hlw66zJ6DoqZmn8y++x7Rz3TRz4uKiuoexgON56By2rsk1kc3UU9N7GhCR72Wr3i4bk/vvvOW/bn2WNHlvffel5NOOrHOV5MOM++cZX8WO+Qm9vemF0tsgiLR57qP8qHD7InzdF/6Lz0oHASVVRDwuMDevdXS8RfdZMjggXJDxWQxPRoqrp8o5eWDXC29eXOI6bGh165Vqx+XLc+ut+ejYEHALwJOvg/5pS6UE4GgCzjqQRGNRiUSiaS0YL3ERLjgogL5aAdObsjmgXnePbOkoLDQ7kXx+z+8kDRBcfjhh9tfilMt+ahvrp01AaGL9jpJVF9NYJjhHqZnxQcffCDXjb/eThaYHir6sy46WanpraJdqieMv8burq0PBSZJZHq37Nz5kj3E4/zzu8s99y485PPY5FKiiVCTxS8IcXPS7k39g1DfXLf72LaDX37ub7dOvV2WLF1mzwnRt08vMb0cKqZMkvIhl6a6PDv63CQnevfqafeWMPNQmMQI7YDvxfENycvXA+4LyU97L8eN+1s44+YoQeHoTsZKCCDgOQEnN+TYHhRaAfNX99gHaIZ4JA6t9lyoqalpcF4O46l7iE1EaG8KXUziwiQczESl+lnNvn3yxBNP1vWqMKXQISW6aIKitLRNws+1XLqYOUPCNPGpk3bvuZOVAiGQpoAO9diwcZP9qs+SkiK5deod9lCMPr0vsBPMmSwm4aHJiRsqJsnevTXSo2cf6dqls/0GERYE/CbAfcFvEaO8YRYgQRHm6FP3wAs4uSHHJyji/9rOJJnJm0miIR76u507X7SHyuj8HWZ+CpMg0L1pTwknCQpdN9lcE+b3mqBINFlmbO8O3Q8JisCf7lQwZAL79++XfgOGSHV1jaxYtkRatmxeN9xD56IYO2aknaxIZ9FeEnPmzrP3aYZ17Nq1R/oPHGLPb7Fy+RIptHrasSDgNwEn34f8VifKi0BQBUhQBDWy1AsBS4AbcvabQbJJMmMTEbFJn2QJCvN701tFe16ccEKxtGnzU/stKvG9WPQBQhMTvXv3TPi57k+3M/NeaFKEOSiy3x44AgK5FDBJij17onXDPfRNH9qbQn/XwprUUl8Lqj0fNIGRaNEEhPbE0OSEXlfatv2pndzQN3SYYR3Nm0dITuQysBzLdQG+D7lOyg4RyJoACYqs0bJjBPIvwA05+zHQYRjaU8IssW850V4LOhGmTlKpi/Z2aNOmdcIeFPp619jeKrGTZ8ZOtploksxEn+vxmCTz62E0LAgEWUCTFOMnTLGTDDr/hPZ80F4OmlzQCS137HixrvoFBQV1iQpNTNTW1tZ9pokJ7XGhc1roPrUnReWSh+zkxswZ0+g5EeRGFIK68X0oBEGmioERIEERmFBSEQQOFeCGTKsIowDtPoxRp85m4kxNQgy13uahk1lqokKTDeurNtq9I/RnfTWpLvrKUP1ch25oLwuzrk6+ubjyQTt5kWhCTKQR8KMA9wU/Ro0yh1WABEVYI0+9QyHADTkUYaaScQK0e5pEWAX0FaQ6vEN7U2iiop3Va6vMSj6Ude2ctAeEJi2qNmySKiuJ8YI1bEwTEzo5pg7z4FWiYW1Jwas394XgxZQaBVeABEVwY0vNEGAOCtpAKAX4IhrKsFPpGAGdh0ITDtpzQl85bBZNWoh8JXLYYfY/sUM89JXG2pNCExo6/wQLAkES4L4QpGhSl6ALkKAIeoSpX6gFuCGHOvyhrTztPrShp+IJBHSuie1WwmK/1TNCe0voEA5dzBCQQitpUWolJJJNohm7y/i3PulnuXxDkBvHN6921nl/ki26jpmYmEYVDAHuC8GII7UIhwAJinDEmVqGVIAbckgDH/Jq0+5D3gCofoMCmZwfbiQIMgmPG8dPlaAwEx+ToMgkUt7bNpN2773aUCIEgi3gKEERjUYlEomklGC9xES44KIC+WgH6dyQ81G+fLlw3OSX8yC0A9p9sOPL+ZtZfDM5P5IlCEaNHCa9Luhp96bQNxfpYt44pD8vWHi/zLxzVr3fm0SAvuVo67bn7FciJ9ve1Dj++Hq9GjHqapkxfZq9yoSJU+S7J5xg70/3W7l4of17fc2ybmuOZV65HPsGJF3vqXWr7f2Zty/p9onKHoTrZNjOo0zafbIzjnbA9/uwnUe5qq+jBEXKzAQrIICAJwXSuSF7sgIUCoFGCNDuG4HGJqERyOT8aKgHg851Mfvue2Rj1VO2pempYBIH5vdmSEizZsfbr2g2r2bW1ywn2j52KEZDxzeJCJN80OPrvnUx+9XtNVlh1tFj9jive73ymnJpD4p9+z60kx7xZW9oeEhoGpLPKppJu/dZVSkuAr4XIEHh+xBSAQSSC3BDpnWEUYB2H8aoU2enApmcHw0lCMyDvZYjtvdCbA8EU8bx110t559/rp2gMEMpTI+K+O1j65UqQRGbTNDeEbHLLb+60f7P+DkzyocOs3tc6KKJi9gExRNPPFnX8yO27MOHXe6Um/U8IpBJu/dIFSgGAqERIEERmlBT0TAKcEMOY9SpM+2eNoBAcoFMzg/TA0GHY5gl0ZwO5hjag6G6usaapHNn3XALs11Dcz3Ebm96OOh2DR1fP08nQWESEZos0YRDfM8OTZxogiJR2Wlf/hPIpN37r7aUGAF/C5Cg8Hf8KD0CDQpwQ6aBhFGAdh/GqFNnpwKZnh9m6IQmDmITBjpcYufOFyW2p8K4saPsYo27enxdTwmzfevWrer1oEi2fWyCQveV7PimLKZHRuwQDz2+JlVih3jovnS4R/zvY3tQvPTSKwnLHl8mp/aslz+BTNt9/krOkREInwAJivDFnBqHSIAbcoiCTVXrBGj3NAYEkgtken6Yh3xzBDOfg/537HCJ2GEesZNRmskzE/WgSLZ9bG2SHd/8/qSTTrQnuYydpNPsN36STDMpp/5el9LSNnZvCjXS/ejcE4nKTvvyn0Cm7d5/NabECPhXgASFf2NHyRFIKcANOSURKwRQgHYfwKBSJdcEgnp+JBr+4RoaO/K9QFDbve8DQwUQSCBAgoJmgUCABbghBzi4VC2pAO2exoFAcoGgnh8kKGj1DQkEtd0TdQSCKECCIohRpU4I/J8AN2SaQhgFaPdhjDp1dirA+eFUivWCJEC7D1I0qUvQBUhQBD3C1C/UAtyQQx3+0Faedh/a0FNxBwKcHw6QWCVwArT7wIWUCgVYwFGCIhqNSiQSScnAeomJcMFFBfLRDtK5IeejfPly4bjJL+dBaAe0+2DHl/M3s/hyfmTmR/vzpx/t3p9x43wLZ9wcJShSZiZYAQEEPCGwa9ce2b5jp9TW1srevdWyavXjdrn69L5ASkqKpaCgQErbtpGWLZt7orwUAoFsCKTzRTQbx2efCHhZwCvnR/zbONRs/HVX22/RSLQsWHi/bN++037Thv5buXihl5kpm8cEvNLuPcZCcRDwpAAJCk+GhUIh4Fzghe07ZPXqNaL/VlfX1G1YVNTMTlTIYYdJQdOmUlOzr+6z4uIi6VbWRbp27SztSts6PxhrIuADAb6I+iBIFDFvAl45Pxo7qaVJVJCgyFsT8uWBvdLufYlHoRHIsQAJihyDczgE3BLQHhJTp90hVRs22QmIUivRUFbW2U48FBYWJjzM/v37ZX3VRqmq2mT9BWqH1B44YPeuGDN6hN3DggWBIAjwRTQIUaQO2RLwyvnRUILixptukeUrHq4jePedtyS+B8WoUcPloosHin6mi9brkYeXSbNmx0v7Dl2lQ/uFgkcpAAAgAElEQVSfy9Ztz9mf67Yz75xlrzeg/8Vyy69uzBYv+/WogFfavUd5KBYCnhIgQeGpcFAYBJwJaGKicslDdmKivHyQlA+51E5KaAJCExbak0ITGHurq+0dlhQX2wkI7TlRZvWaMOvqPiorH7QTFbqPiimTnBWAtRDwsABfRD0cHIqWdwGvnB/xQzxOOulE2Vj1lO2zdt1T0uO87vUSDzt3vlRviEeqBMXsWTPtfehxJkycUrfvLmXdZcb0adL6jFZ5jwUFyJ2AV9p97mrMkRDwrwAJCv/GjpKHUEATEPpFS5MQQwYPlLFjRtrJhkdXPSarH1tjf3kziw7xML0iNFkRO8RDx/Bqzwn9v+7z7jn3ypKly+zkhX5xS9YDI4TkVNmHAnwR9WHQKHLOBLxyfqQa4lE+dJjdA0IX7RmRboJi29YNUtSsWb3eEwa5obkuchYIDpRTAa+0+5xWmoMh4FMBEhQ+DRzFDp+AJhL6DyyX3bv3yPQ7pkrfPr3seSemTptu/04TEvq7sq5dkk6CqZNoVm3YaCc0NGHRokVzq9fERHseCv3dxEkV9u9WLKskSRG+JhaYGvNFNDChpCJZEPDK+ZEsQVGzb589RMMkEUyPh0wSFEyqmYWG5LNdeqXd+4yN4iKQFwESFHlh56AIpCdgkhN7/7JXVixfaicgtNfDnLnz7MSE9qTQ5EQ6iyYkdB+aqNDtdR4KTWD0HzBYSk4oIUmRDibrekqAL6KeCgeF8ZiAV86PZAmK2N+bnxvqQaE9Jfbt+9CejyJ2DgrTg0KHi4y7eryY/9b6m+EfHgsNxcmigFfafRaryK4RCIwACYrAhJKKBFlg+FWj7WEda9essoZtFNm9JvQVor179ZSZM27LqOrjJ1xvDw/R4R7am2Lv3hrp0bOPPdxjwfy5Ge2bjRHIhwBfRPOhzjH9IuCV86OhIR7aa+K99963J7rURYcl6hL/mlEzDETX++Avf7GHKJpJMk1CQreLnXSTSTL90lLdLadX2r27tWJvCARTgARFMONKrQIkcOvU2+35IcywDpNQqLh+oj1BphuLTpQ59bbpdpJCv+CZ4R46z8UNFZPdOAT7QCBnAnwRzRk1B/KhAOeHD4NGkTMWoN1nTMgOEMiZgKMERTQalUgkkrJQrJeYCBdcVKAx7UAnt+z4i272hJiaKDDDOkxy4o0335JLB10mtbW1Kc/P+BW+kq+sYRxL7PkndDFJCh3qoUM+TGJky7Pr672CtDH1aKhw7I/zo7HnR7J2lc4XUdof7c/t9uf1/XF+JL8jcT0I7vWAdk+7NwKc594/zx0lKNJ+8mEDBBBwRUCHdrzwwg7ZuqVKdlkTYQ6wJsmMHdaxYuUj1rwRu2XqrTelfTydv+Krr76ykxFmMb0zlluTZLa0Jsvs0LFMysq6ZDyMJO3CsQECGQik80U0g8OwKQKeF3jkkUfl3nmL5L/+67/qyvr++x/YP5944nfrfvfvf/9bxo0dKb2sYYMsCARRgPtCEKNKnYIqQIIiqJGlXr4X0Dd0aELC9Gg4t0dv+5Wg27ZsqKub2wkK3XH7jl3lBHuSzCV1PTY0YWF6WvgelgoEXoAvooEPMRV0KLDtuT/IyFFXy4HPDzS4xVFHHSUL7p0jZ53VzuGeWQ0BfwlwX/BXvChtuAVIUIQ7/tTewwLam6GqaqPde2K99a++AtTMQ2GKHZugKD2zo/ztb39zVKPbb7tFPvzwo0N6UOjGZv4JPVY3q/eE9qLo0+cC5qJwJMtKXhDgi6gXokAZvCLQ/bwLJLrnHZHDEpdIh/v9qEVLWfvEo14pMuVAwHUB7guuk7JDBLImQIIia7TsGIHMBDp0KpMWzZvLwgVzRXtP6PLk2tX1dpqNHhR6AO1FUVJSLCutV5oOGz5adu/ZI1s3V2VWIbZGIEcCfBHNETSH8YXA8y9sl6tGjE06V1HTgqZy34J7pW3bn/qiPhQSgcYIcF9ojBrbIJAfARIU+XHnqAg0KLBr1x77VZ+mF0Or1mfWDfWI3TBbCQozGecrLz1f13tDX3HasmVzIoeA5wX4Iur5EFHAHAsk60VB74kcB4LD5U2A+0Le6DkwAmkLkKBIm4wNEMi+gHmjRqoEQTaGeGjtEiVI3HytafYFOUKYBfgiGuboU/dEAsl6UdB7gvYSFgHuC2GJNPUMggAJiiBEkToETsD0YHj3nbfqJqrUn+OXbPWg0OPozdxM0Bn7c+CwqVDgBPgiGriQUiEXBM7t0Uv27Hm73p5aWG9rWvfEKhf2zi4Q8LYA9wVvx4fSIRArQIKC9oCABwV0gkx9i4e+sSP251wmKE5vVVo3OWbszx7kokgI1BPgiygNAoFDBfSeMnzEGKndX2t/WFBYIAvnz5XStm3gQiDwAtwXAh9iKhggARIUAQomVcm+gL7ms2rDJvvtGrt275Hq6pqsHFTHBeuXRp2kst+AwfYx9OeGEhRuvcXDHCP2uPrz9h07rUngk0wDn6FCcXGRtLT+kldmvTWkrGtnKSwszHCPbB5mAb6Ihjn61L0hgdheFPSeoK2ESYD7QpiiTV39LuAoQRGNRiUSiaSsK+slJsLF/y6amFiydJksrnww6UzoKU+QNFZoTIIijd3bq86ZOy/ha0bzkaCILXtBQYEMLR8kQwYPrJeo4Dzy/3nUUBt1M77pfBF187haP/ZHO/VSO9D5hDS5XLVhox2Yfdbrpd9//3375xNPPFGaHX+c/XNZ1y52Ujx+ImTaM+3ZS+052T3ESTvlvpD8DuzELyjtgHr4ox04SlCk++DD+ggESUCTE/0Hlstuq8eELvoqtnalbaW01PoyZ/3VPxt/7ddhHfqlUl/tGftzvGs256CoN8TjjHbSp3dPuaFisuuhVV/tjbJ9+057WMuOHS/ax9C/7q1YVpkVX9crwQ49JZDOF1FPFZzCIOCCwN691XYCWq+niXr5aQI8WW847c3WzerJNmTwpfarplkQCIoA94WgRJJ6hEGABEUYokwdGy2gD88dOnWze00UNG0qM2bcZn95y/bSmEky3R7ika9JMtdbw2cmWAma2gMHRHtTbN28niRFthtcwPbPF9GABZTqOBIwPf30/tHQogkKXVIN2Rs7ZuQhPdkcFYSVEPCgAPcFDwaFIiGQRIAEBU0DgSQCsT0nmjeP2JOJxf9Fac7c+bJi5cPyzSO+IYsWzZMfnvIDVzwb85rRdA/c0BCPfL9mVP8COOyq0daM81F6UqQbWNa330CjS6I338CDQBAFHl31mEydNt31IYiaJK6YMlH69ukVRDbqFCIB7gshCjZV9b0ACQrfh5AKZEvA9GLQnhPr1q62kxNffvmlfP7553LUUUfJEUccIed072n9tf8aeeaZKikpLpbRo6+yi/P/s/cmYFZUZ/7/K3kyjpFunZnfo9KN0ThjGhhNRMKihkWgMSKILC4sKo1GUAFxY5F2iYIKGEFQFjU2KuASaUXQODSgglEWcRdoHZUYFs1EozaaZP6R/Os95Nypvtylbt+699at+lSePDb3njrnPZ/3VNWp733Pe956+x350fHHNdm0RAKB3fLTXWmulnjYvr+++RXRiIYJE6tl+bKl+61PbnIHPZyoIkWfvgNMJEWivnuogiIRJcBENKKOj2i3VWxOFjWhz6+OzpLEysru5hlWWlIau4/rc+arhq9E77V1dWucZXYbzf020aHRFHof5oBAMRB4/PEn5J6598p3vvOdmLm/+93H5u+jjvp+7LNvv/1Wxl1xufTv368YuoWNEIgMAQSKyLiajmZCwL20Y97c2bFlHfoL1aeffmrEia+crdoO+t5BMvWWm+STTz6R8y+4yOSlWL7iWWnXrq3MvHO6lJeVZdJso7Kdu/Z0cly0lgXz58gZ+qLuLDPRnBTJBAo/l3ho2zqZ1Z1DRo4a4+SI2Gq2PM33ob8KqjjCUo98ky/u9hAoitt/WO+NgD6n9Jm0tPap/U4oK2shKipkGvmg91wVO3bt2r1fnQMHnGWiKXKRd8lbjykFAW8E1r30slw++krZ83Viwc3Woj82zb9ntpxySidvFVMKAhDICwEEirxgppFiI2CXWGhCTLu954J7f+X8+lQigwef4/zS9KocemiJ2d1GEzweesghohPC3/zmv+T0008z3T2z3yB5etkTTe66JsfULU01B4ONYph2+5RGE85cRFBYUUDb0nwbmoMjVwkyvcDRLU41cWZ8372cS5loEkCgiKbfo9br8RMm7ydOaMRElbMLkooT2RwqUuhzMD6iQkWK6dOmZlM150IgLwR69zlL6re9r8lWEh6ai+U/W7eR5U83fZ6Wl47QCAQiSACBIoJOp8vpCWjUwKrVa/ZbWrBo8SOOIv+1jLrkYnn7nXedpJl3moffRx9tN7kSZs+6Q+67v8ZM7PRX//vvn9fkvBSagX2os3uIXd6QKIoiFwKFO3rCLvVY7OymoTuXFOKwNvTs0d1Ek3BAIB0BBIp0hPi+2AnY+6K7HypOLHGi3uK3Cm1qX3UJyBBHII4XKVhy11SinJdPAq+s3yCXXnZF0rwszUuay33z7zE7s3FAAALBIoBAESx/YE1ACHTpVmm2Z4t/MR899kq5ctwY+eabP8svfzlL7nMSY+7du9dM4D76cLvcfMut8re//c23vBQqlOzbbnSlidRQwcL9C5aKJLq0RJd//N1JzH5Akl8KkmGN759GbdQ+ucz0W7dQ1eiJyp7dZYaze0mhDivUqAC04umlhTKDdouIAAJFETkLUzMmYKPc3CdqIudHFi/0ffmFLiMZPHS4SVjsPohoy9htnFAAAsmiKIieKIAzaBICGRBAoMgAFkWjQ8C+4GiSSF1vq8mWli17Wo455hiZP2+2VI0YKbNmzpBDDik1a4A1B4Xmpdixc6eJnJh15wzz2aCzh5p8FC+8uLZJeSk0eVnXU3uZrd6ur55k1gZrQrTq6yaYMF4/D7usxf46ZsOHX3x+5X67l/jZbrq6dILctt1Jphi7MqSjxfdKAIGCcRBWAu78SLaPGjmx9sU638UJW79ps2tlo0gK8gKFdYSFq1/JoiiIngiXn+lN+Ah4Eijq6+vNWvt0B+USE4JL8XGJf8HpduppUl090STB/Oyzz+TGm6bIgzX3yfwF9zuTwhIZMvhc3/JSaERGs2bNYtBumXKbLHxwUSwHg41yqJ48UaqGn5/usvT0vRUnBjiZrDVawv5CZ4URdyXx9iVrwM9ymbxwcr0V3/WmFvvpN8ZL8sveT85++4360vstfmlH/LIOP++7ao2tL9FyD/dSD8YV992gXr9n9O3vRAC918hB6SIyGc+M56COZ7dnwjxOPQkUnt5wKASBEBGIf8E5vfdZcuyx/y7nDxsibdv+WNocd6K8t+0t0+OHHl4s3/z5zynzUmh0xcRJ18vVV18hhx92WMakbE4M3eqzZcsyuWXK7WYphh8Jy6zgoeLE9Y4Is2PHLunbb6AEKedDJi+cGcPlhNARYLyEzqV0yCFgI+rcMPKZDyJR3otCR9gxMCCQjoAuEx112VhpcHZe06PE+VFpwbw50rFD+3Sn8j0EIFAgAggUBQJPs8EmEP+Cs3377+Sl374i02fcKW+9sVEmV98oxx93nJx33tkyeoyTl+LKxnkpvvvd75oOvvnm21J9/U1Oluilct+vakwy6Ysvqsq483YdsObFWLJooUmCZieL5eVlJmO7ihWZHBoloctFtE47yTW/kg0bLlpnLtYzZ2KfuywvnE0lF83zGC/R9HvYe23FZNtP3Tkq39s/axJl9xakNuou7OzpX3ETcEdRpIueKO6eYj0EwkEAgSIcfqQXPhNI9oIzc9Yck2PiohEXSv8B58knn34qrSp+KAtr7m2Ul8JtzjO/eU7efWeLjHByRmgkhOapuHfBPfLjHx2fkdXuZGU2QZn+MqDRFJrATB+6ui2oRj4ky+KuAoTuTqLihAoTmr1axQ3docMu68hVsrWMOhtXmBfObOhF71zGS/R8HoUe2+TNtq+FSFQZn6BTxey1L9RFAT99LGICOlfSH1/00K3jiZ4oYmdieiQIIFBEws10MlMCiV5w/vKXv8hJp3QTDWnVCAld9pEoL0V8Wx988KHcNu0Oud/Z8eOLL7508lbcZ86/+qorMjVLVKS4dvxkIzJo/gmNfNAknjppXFr7lGzc+GqsThVSrFChwoTu9GEPFSY04mLQwP6mTo2kqFn4sBE3ZkyfmrNkaxl3+B8n8MLZVHLRO8+dVNUmuY0eBXocNgJ6D9eld/bQ3BNvvL6hIN08oW3HRgkzdemhX1ubFqRDNBp6AvpcOKFdJyeK9QDhuRB6d9PBEBBAoAiBE+mC/wQSvRDvdnblGOJst/b86ueM4LDsqRVOBEK7hHkp3BatXvO8PProE86WpPfInLvnyapVa6S/k+9BE1A29bCJM1WE0MgMrUuFCn0Ir6xbbaIj9G/dmlQP3TJUv9dfuzTKwpbV5JsP1DxkxItECTGbap/f5yFQ+E00nPXpmB/ibMW7ZevWf4z71s6SqJrACW7hpB+sXtl7hlqlOy717dM75wZq0uQNGzZJzQMLPLWlNj7+2CJpd2LbtOXj8z8UMkeQzYlkjc7FrlJpgVAAAh4J8FzwCIpiEAgQAQSKADkDU4JDINkL8ccf/14mOMkup98+xREaVssDCxfJF3/6k7z91quN8lK4ezLy0rFy3rmDTP6JhQ8tknPOHiin/6yXHHCAftL0QxOm6fIOjaZQoaKTs8NIpSM+VPbsnvSFTB/UdY5AUueIGOudibQKE7qGWJd5tGxZ3nRjcnwmAkWOAYegejsJ3eqIcrpMSQ+79AmRIgQOzqALer+49porZdTIi81ZmQgBGTSzX9FcChSDh17YKEKuEMs7bIfjl3loRJ6GzXNAIGgEeC4EzSPYAwFvBBAovHGiVMQIpHohbmjY4wgCzQ2RwU5ExV+dpR+9TuspI39+kbP84jo55pgfyOGHHyZffvmlzJt3r/n1rl27E+WaayfJRRcNl7Yn/NhXmrq2UgUHjZxwJy9LtcRDk6tpJIUKGpp/IugHAkXQPVRY++InoZrg1V6fiBSF9U2+W1++4lmZddfdsrru2VjTm197XVq0OELKWrSQG268WRYveSz23Qfvvyv6/fgJk81nmhD56KOPip2vosOMO2aa77p0/mksOsL9+dAh58rNv7jBbDttIygSfa91VI0YKWvXvWTq0v96jaCIFygWO5FBhbp36zNnqBOpZA8EinyPctrzQoDnghdKlIFAMAkgUATTL1hVYAJeX4g/2r5dzux3tvx23WqTV+Kggw6SRx55TF57/U2zxOLYY/9Drrl6nOmNTkZrah72HP7bFAS6TnmDM3n8yomMSLTEo9SJtOjoCBLFtl7Yqz+awoxziptAokmoLmHSw51YVpPIEklR3L72Yr0KEHqoYJDoUAHDLvewkRVa7pxzhxmxQIWMzl16mr/t5+vWrjLiRo/K3jLuitGiAq8KGlYE0c+nT5sqmzZtNgLF6NGjEn6vArIVT1QUsW16WeIRnyCzkNt7xufDYFcELyOTMvkkwHMhn7RpCwL+E0Cg8J8pNYaAgNcX4vi8FN9882cZ6CyZOOGEHxkKS5c+Jb9+otaEnA8ZfI5Muu4GWbJ4oRx44IEhoJS/Lnj1R/4soqUgEEg1CbX2IVIEwVP5s0EjF3bt2pVUoFBLbBSD/u0WIjSaQg8rXFjBwZ1TYtfu3fL008/Eoipsz3RJiR4qUHR0ltvZqAv392qXHlY8scKGF4HCnVND67C25o9s45aCZk+hONBu8AjwXAieT7AIApkS8CRQ1NfXS0XFvjW9qQ7KJaYDl+LjkskLsYYET5p8o8lL8cabbzq7YSySqbfcKO+999+y5NHHZfJ142Xdut86O3h84fw9wUx+45O22V/TdNK5d+9eadasWbrLLW05284ZvX8Wq8/dTnwDfrVr6/Wzvkz8wfVWfNebWpyp39JNQt3jL5VIkWm76S5M6ivs+Itf4qH+eO/9D5zohldl1Kifm+gIm5/CCgRqsUYzeBEotL7nX1iXMBmmXeKhAsWaNS/ExA9LJD66Q9sffflI6X9Wv3TDyjw33EcygcLP+662l6y+eHueXVHLPDGBF7kf5Pd+wHOhMW/GX37Hn23NRDNv3OTkfFttPvrqqwbR/Fh6aMRZaWmJ+buyZw+z5W18VDN+E/EkUKR9chZpAU0yaBIGehhAmngwyEkEi9QFgTU7kxdi7UR8XoojjjhMdu/+RI75wQ9k6pSbTELMzz//k/zrv/5LWoHCLyjphBC/2slHPZn6Ix820UbhCKSbhCayjEiKwvkr3y0nS5Kpdlghwr3Ewv25/h2/9MMu8dDIiyOPLJf27X8i4668Vuzn9l6ruydpBMWAAf0Sfq9163k270UmSzw6d+3ZKMdQkJZ4aITgM8tr8+1m2oNAIwI8FxgQhSSg75Sz58x1EtBvNDvpZXLYHfaGX3g+75r/ABc5gUJvYLq1omahbsoAGjSwf2xLx0wGH2WLi0A2L8QaAlxbu0zeeXeLtG/XzkmMeWGjznsRDvRXQJ3I2sMmYdN/u5Ov6b+TbaHnpZ10dbl/JbOTcTuxt0ne8hFqnI0/imvkYW06Ak2ZhNo6ESnS0Q3H93oP1kgJe7jvkRq1oFFvev/SQ6Md2rdvlzCCQpdeuO/F7uSZ7mSbiZJkJvpe2yNJZjjGGL0IFgGeC8HyR5Ssse+VuhW0H4fuqjf8wmGR3x49UgLF0tqnzLaMurWiHiXNm5tdDHSCotERpSWlsTAbDc/5quErUUVMfxHRXRIa9uzZd56TaPD66okycMBZfoxF6ggggVy+EHsRDtzb4tkJsgoEeujE24oCdiKeSCRI1078ufH/1on82YMGmK36rA3uX/6SCSO5cGcu/ZELe6kzNwSymYRaixApcuMbas0tAbYZzS1fai9eAjwXitd3xW65/tg9Zeq02HulX/3R98zqyRNEfxSP6hEJgUJFhlGXjY2t/9EtsVShynSLLg3bUYVs48ZXzXjRdUTz584mHCeEV08uX4jj1+668akAoEKBZoy3hxUO3AKFjWZIhd6rQJGorkS5KtwZ7DU02YsNfg2NXPrDLxtT1aPsTjm5036J+5J9ng+biq0NL5PQBff9Sja/+pocd1zj9fpjx1zWqLuIFMXmfeytqXlIptw6LQaiZ4/usmD+nIKAGTlqjKxavSbWdrWTW6mq6oKC2EKj0SbAcyHa/i9k73U5R7KoCf0BXHfMq6zclx4g2Q/gdXVrzM579gfw+P7ou2r8/KWQfc5n26EXKDQSYsiw4Ubd0q3Brq+eJL2cqIlsjpVONMUtU24z60FV5VqyaGHRbduYTf+jcG4uX4jTCQfKN37phX4Wv8TC+iFZJIMVFOyWelo+Xniw/46vK/5z+70ml7Ph0AgUmV0J8Rn7vew2kFkL4S3tZRKqvZ9cfaM8+tgT+4HQB7w+6N0HIkV4x0sYexa/tafOPd54bX1BunrCiZ0a/WK4fNlS5kAF8US0G+W5EG3/F6r3Ou40akKj8uMPfc/UuUamkQ8aiaFih75Xxh8ara/RFHb79EL1O9/thlqgUIdPmFhtmOqvDTOmT/XNwTpArx0/OfYrwjRnB4dMB2S+nU173gkUUqCw4oAVANwRFO7ICu1Nqu8SCRTxGe7dRNx1aYLP8RMmy+q6Z/eDFm+fd6pNL5lLfzTdqszOVG6WafxyGrcg5c43YtfLa0vuzzNrubhLe52Eai+T/aKRSKDQ8ogUxT02omZ9fKLMQsw73PMq5a8T8nUv7lt+yAGBfBHguZAv0rQTT0DncfHihEZMaBRZ/A8hmdJTkUKj5eIjKlSkmD5taqbVFXX50AoU7l8bNNmIRk7k4tBICk26qQe/IuSCcGHqzOULcboIivgoB5tUTQWLzZtfl1l33R0TDlLloLAvve78FPF5JVLV5RY4EmW8J4Ii87GpPtFD89qMHj1KNAmfW7jQ72ykhSrpbv+485Jk3nJxnpHJJFR7mKlAoecgUhTn2Iii1deOv05qn1wW67pmfl/7Ql1eUXTpVtkowXgu51d57RiNFQ0BngtF46rQGaoCgs4z3IeKE0sWP+hbFJmJ/B964X4iRbIfWkIH+R8dCqVAoTkn+pw50IQg5uPhaUUKDblc8fRSclKE4GoppECh+KwooX/rEg59UR13xWjR5Rru7PD6/eOPLTIvuomO+LLxv8Knq8udL8MuJSGCIrsBrr7VxLyafFSPRMt5dCnNmWeeEduJQHccqHlgQXYNF9nZmU5CmypQIFIU2cCIsLk6t+l6aq9GBPI5aU00OS/kdqcRHgqR7TrPhci6vuAdj48eU4N0i+VHFi/0LTrfdtL9w4m744WImisU+FAKFCpObN26zSzryFcSKZs0ShNnqkjBUdwEcilQFDeZwlgfJn8kEig0oiKVAGH7n8+dUwrj6X2tNmUSmo1AgUhRSG/TdiYE4kWCfOXBcufzsvbmUxzJhBFlw0mA50I4/VoMvdKx16Vbr0a5dzRyYu2Ldb6LE26RokvXykaRFHq/X/vCypy1GSRfeBIo6uvrpaKiIq3dQShnFS5dF/nM8tpGTty7d680a9YsbT+aUk4H7xl9B5gEJ/EKVxC4pOo09u1PJ5MX4qaMl1T+oL7s/BH08aw7oHTv3i0WQeHeRlZzjNglQLt27TKh1Df/4gYDJFFOEf086P3N1L50k9BU10dTlni460u13CPTfqR70FBfYkJwSc3FTJRTTFpz8fzY42yxnm5yjt8Yz7l8HvFcaDy+uN7ye73tJwzHLevIxX1X31cTLfdwC8NhHgeeBIp0E62gfO9WuOY5239mu1tHpv3S3T0udbYzjZLClSmjYimfiUBRLH0qZjvD5I/4CAr1i3upjXsZjnupTxSWeaSbhKYbw00RKOLrJCdFOsp8X2gCiUKNNXpzyaIa3z2ecLwAACAASURBVH9Zc1+T7n5HKdS40P6Oevs8F6I+Agrbf5bWFYZ/qAQKq3B16PATZ03QgwUhOthJbLJx46tm39pss7kWpAM0agiE6YU4DC7FH2HwYuo+ZDsJ1dr9ECi0HkSK8I+3Yu9hwmRtPm97nmhZh3JjflPso6d47Oe5UDy+Cqul8cmJC7FzUfwOTgP693N2prw1rMhNv0IlUNjs0oudXxE6dexQEMfZKIpCZNcuSIdD2igvxMFyLP4Ilj/8tsaPSaifAgUihd8epr5cEIifOGsbGsE5wtnuTkWEbA4V+x7Q7e6cZOPuIwoT42y4ca5/BHgu+MeSmppOIH7nokJEj8VHzUXhHTM0AoUNwdGkJW+8vqHpI9GHM09o29EkNSG7tQ8wfa7i8ceXyhEtjpAunU9JWTMvxD6Dz7I6/JElwDycrtdWCyf3T+efnpxRa35NQv0WKBApMnIjhQtAQK+dW6bc3mjrUWuGTmA1inPggLMysmxp7VOi0Rma/yb+UHHi+uqJvi8jychACkeCAM+FSLi5oJ308j6gUWR9+w2M2VnId0z7bmmNWb5sqW9bmxbUEUkaD41AUeMo/VNunSZBUPftrxrV102QKueXDI7gEOjqZOH9/Isv5MiWZc5Ea5Kc1KljQuMyeSF2b8XprizV9p+5IrJr926zNeW6tatEEy4mO2xixvhtR23Og0LYnopJJv7IFVvqTU2g26mnyWd/+pN8/8iW5iXGSxSbn5PQXAgUiBSM+mIgkGi5h7VbIyo6OdsaV1b2MFuglzQviU1qdfLdsKdB9AeeOieH1npnN6H4iAlbD8s6imEkhMNGngvh8GPQe+HlfSD+3prP3SHj+dndIu3nYX/HDI1AYXM/FCL0Jn4Q2VCcQg7koN8YCmVf9x6ny/bffSwHOAaUHlIqLVocnlCoyOSFWMsG5YU+E4Fi1l13y/btv5MP3n835g7ty9FHHyXTp02Vdie2LZSb9ms3E38ExuiIGRK7tpyLq7S0VHSd5g3XT5KOHdonJOH3JDRXAgUiRcQGcpF2V+cdU5xoCo3e9PPQXwyrHcFx0MD+flZLXRDgucAYKCgBL+8D9t3SGlrId8z4ZR6FzLeYD8eFTqAoZP4J67D1GzbK0GFVEvbBk48B6ncb7pcoU/ff9wkVZWVHGKHC/uqbyQtxKoHCCgYaqbB4yWOmyWuvuTK2xaT+2x2BYYWOeKEh/t+bX3tddLtKW9+MO2aaqAk9NIJC29DPErWnn2kEhQoU3z/ySBk9epQRI7TOu++eLx///veNBIpU9nntl43o0K0yrfihNmza9GpsG81Uvs7EH36PGerzRmC/a8s5TX+91V9tNaLCLVR4FSc0tFJ/5c3k+LtzUR9gJMh9h/5bD/dn6erTHRFWPL20UTESZ6ajxveFJqBjtGbhwyZZbKrD6zWhURNVw89nSUehHRuR9nkuRMTRAemml/eBeIGikO+Y9t3S4gv7O2ZoBIo+Zw6UrVu3BSLvg12zlGiSG5DrMrJmJHqJsjBKSkuk3PnVV4UKFZj0cEcXJIPmVaC4+Rc3GGFg3JXXxurVF/azBw0wgoX9zi002Bf7eIFC25w1c4b07dM7tkWl+zy7dCO+PdsHK1Bo23po+/MX3G/+/vUTtTERIZ19ydpJdJ6ytG1oe7q1Zvv2PzF9SHcgUKQjVPjvU15bLqGidasKGeJcX3q/buX8/cjihUlfgJItn8pHbxNd+4gU+SBPG9kS0CUbGpqsE9pdu3bvV10qgUIjn3SL9qrhFxhxkQMC+SDgVZxQW3gu5MMj4W/Dy/vAH//4mej/7VHI3ILx+TDC/o4ZGoEiaC8whbyBhv+20vQe/n3fj6lywP/9wJpy8uZVoIivRJdJrK57VlJFQug58fki9MV+3BWjpV27to2+c9eze/cnJnrC2ub+Lr7OZEs+rECh0QwaNVHzwALR/BMaTTF+wmQjULRwkon6YZ/aZPulk1/bnn6mjLwcXE9eKBW2TKbXVjpxIogTUbXJLVJ0dNb2L1m0sLDgaR0CKQjopHaDI1SsXLXalNr9yafy+49/b/4+8vtHSosjDjd/9+rZQzo6u5+1adMKnhDIOwH7I2MYngt5h0eDTSKQ6ZxFG/HyTtAkYzyeFD8XLrQ9Hs1uUjFPAkV9fb1UVFSkbaCQ5Xr32fdLcCpn7d27V5o1a5a2H36U44UqLeaCFMj0huTl4vcSQaHRDUccfrh88umnsZf+eKFBgahIoGFb/fr1SSpQbN78ulmeUfdfK2LjWW3wEnlhoVuBQgUCPVf7af9rl2FoWbcQ4tU+2694B9ulLdbWyZNvMsKIl+uN66kgl0tGjWZ6ban6v8TZElrzVeiRaBwU0u/x1761z/1LX6IQy0I+B4P+nMa+/S+pfI+XM/r2l23b3jOGtGr1Q3lm+ZMpr/N822eNod3EbgkrFxtKH4bnQkYPTgoXjECmc5ZU75he5rHJ5jmJACSrL35O9OyK2sC/nzf1ue9JoCjY6Mmg4c5de5pQxkKG31hzbRiOKsHPLK/NoBcUzTWBdCFdLcv3rZcfMnS4McVPgUJ31UgV7aDt5TuCQgUKFUX0l+ANTgZ3FQysQJFNBIVGYSSLjtClHXqUlZU1ysWRyvdBi5DK9TgtxvrTLfEoL9+3fKqNI0wMdq6vbdvqJX4yGt/vIAkUalsmYcjF6ENsDjeBV9ZvkMsuH2fGsR66rHH+3NmedtwJNxl6V2gCmSyf47lQaG+Fo30v7wN/+MMf5LPPPo91uJDvmPFLPML+jhkagcKqr4VMYGJHMEkyg3vzir8h6VpcTeR3ZMt9WyPaRH6ZvBB7jaCIFyj038lyPOh37jwTmrvBJsKM/05f+DUBZ1MjKGzdNsLBncgyXQ6KZDkyrNCi+SVsQk+bANTmxchk55NM/BHc0Rduy1IlybzBESY02sAeXiejNuzXK7lEa+vjk2Z6qUvD3HWPcfeBOOGFHGWCTKB3n7Okftv7mjE2dniJoghyn7AtPAR4LoTHl8XQEy/vAyTJLJwnQydQFHILGOtGthkt3IBO17K9IckB+4SJ77c80ggT7pcnrSOTF+Jkar4msUyVS0KFBndb+rf7pd2+yOvndlcOKwi4d/GwO2k0VaCIFxDcAkUy+9LtMhJ/nk3oqZ/ruedfcJHn/BOZ+iPdGOD73BBwP+yN6HekE400ubEwEf/C7zWSwqvFunuBJgeMP3Q3givGXu61mv3KIU40GR0nBoTAy6+sl8tHXxmLnrBmEUUREAdhhiHgVaTIBBfPhUxoRaesl/cBthkt3HgIjUBRU/OQTLl1mgzo309mTL+1cET1ZXL8dVL75DKpvm6CVFVdUFBbaLwxga7deslnX/xJfvD9oxIKE7Z0JgJFoRm780kU2hYv7WeyvWgx+sMLgzCW0Wvr8y++kKOPOlJuqL7O2aGlXdpu+j0ZzcVEFHEirRspUAQEEkVPWLOJoigCB0bIRJ4LEXJ2Abvq5X3AvltaM3v26C4L5s8piNUjR42RVavXxNoO+ztmaAQK3Var66m9zK/ib7y2viCDxzZ6womdpKGhIRD5MAoKIoCN19Yuk8OdZJWnnNIppXVBFihs9IK7AzayIoDIG5nk3krVRpB4sTnI/vBifxTKqCh7xOFHyMknd8you35ORv0WKBAnMnIlhQNKIFn0hDWXKIqAOi7CZvFciLDz89R1L+8D8XkfCvmOad8tLR5dhhrmXZdCI1Cow2yizELmoVhZt1ouvWyskwCwhax7cVWeLjOa8ZsAL8R+E82uPvyRHb+gn+3XZNRPgQJxIuijBvu8Euh9hpN74j0n90SKgygKrzQply8CPBfyRZp2UhGw75a2TCFSCdjUAdaGKLxjhkqg0LXHOkEt5N70Q4YNN7shZLvmmdtFYQnwQlxY/vGt449g+SMX1vgxGfVLoECcyIWHqbMQBNaufUnGjL1K9nz9dcrmv3fw92Tu3XdJ55+eXAgzaRMCCQnwXGBgFJqAXbZv7SgvL5O1L9Tl1awu3Spl585dsTaHXzjM7IoW5iNUAoXeyLp0rZSGPXtknrN1Vq/KHnn1nY2eKGneXNa+WCelpaV5bZ/G/CPAC7F/LP2oCX/4QTH4dWQ7GfVDoECcCP44wULvBJ54olbumXevfOc734md9OGHH5m/jznmB7HPvv32W/PDSv+zzvReOSUhkAcCPBfyAJkmkhKwKQTcBfL5I7T98d3dfiG3O83XUAmVQKHQbBiMKlwrnl6aN5FAb6C6JZ4qXIUI/8nXgIlKO8X+Qhyfp8K9i0Yx+rDY/VGMzAtlczaT0WwFCsSJQnmddvNJgPtpPmnTlh8EeC74QZE6mkogXiTQXBRLFi3MeQ4IzYGhkfma19Ae+RRHmsrLj/M8CRT19fVSUVGRtr2glDuj7wDZtq1eKnt2l/nz/i/b6t69e6VZs2Zp+9GUcqMuHSN1q9ZIq1YV8szy2kZtBIVLso5j3/5kMpnANWW8pBqEftSn9tstS1/d/Jqce975ki6Rph/tuvvlZ32Z+IPxnHh0FROXVJPRVOOqKQKFrS+dOFFM/FLdX+hH8V8f2fqX+2lyglwfwb0+eC78n28Yp/kdp+4IfduyihRrX1hpfgj3c76r9Wt9e5zVAF2c3dHc4kR8hH6Yx4EngSLtG33ACmg4Th9HpNClHvlYp3PLlNtk4YOLRAfOCkecaNmyPGBEMCdTAplM4DKtO9fldacMzU5c88CCWFM33Hizs+3jT6Rvn965bj4n9RezP3ICJAKVNuUXs6YIFIoynTgRAdx0MUIEuJ9GyNkh6yrPhZA5tIi6E5+oUk1v3bqVE0lR43u0vntO4kYUpQj9UAoU6kz31jBVw8+X6skTc3IZTJl6u9QsfNjUHfYtX3ICMKCVhm0C16Oyt0yfNlXandg2oMRTmxU2fxSlEwpgdKaT0aYIFIgTBXAsTRaUAPfTguKn8SwJ8FzIEiCnN5lAonwQfi/3SLSsQw2OytIO65zQChTaQbfapcs99AXNr8SVeoMcP2GyWdahR5RUrSZf2UV0YpgmcNqXa6+5UkaNvLiIPNDY1DD5o2idUCDDM5mMZipQIE4UyKk0W1AC3E8Lip/GfSDAc8EHiFTRJALxu3poJSpSjKi6wIgI2Rw6h3mg5qFGyzq0vgH9+8mM6bdmU3XRnRtqgUK9YZSooRea5R6aOFMjKbLd3UN369DICU2Iqcs6lix+MOeJUopuZBW5wWGZwGnkxLgrRhft0g47jMLijyK/LApmvtfJaCYCBeJEwdxJwwUmwP20wA6geV8I8FzwBSOVZEhAx90tU26X2ieX7XemvmdeMfZyGTjgrIxqXVr7lGh0hnsrUVuBihPXV0/07Qf2jAwrYOHQCxTKVnNSjHSSWGriTD06dmwvVcMvMEk0Mzk0WqJm4UOyYcMmc5omxFzgJOEk50QmFIujbBgmcLqTx/kXXCSr654tDugprAyDP4reCQXugNfJqD7k4w+dMLgPxIkCO5PmC0qA+2lB8dO4jwR4LvgIk6oyIpBouYetQCMqOjnvmpWVPcw7YknzktgP2frDecOeBvNuWuf84L3eead0J8J0GxG1ZR3uvkdCoLAd1iUfUxzVS6Mp9NABpNEUKlikGkAqSGjUhB1AGjVR7ahZgwb2z2gwU7h4CDCBC5av8Eew/FEoa7xORlPZhzhRKO/RblAIcD8Niiewww8CPBf8oEgdTSEQ/17ZlDoSncN7pkikBAodBHoj06SWOqh27dqd0VgqK2thRAlNuulXLouMDKBw3giEYQJHBEXehgsN5ZFANpNRxIk8OoqmAksgDM+3wMLFsIIQ4LlQEOw06nqv1CWmfhwaNcF7ZgQFCvfgcYfXfNXwlSNeNMSWgejyjdLSEiktKW0UpuPH4KOO4BNgAhcsH+GPYPmj0NY0ZTKKOFForyVuX7dFHnfltbEvZ82ckTJnzvwF95tllu5tlPVkvUc8/tiihDsV2fuHlktXfzpKidrZ/NrrJmm2ezldpjsnpbLf2qRl1q1dJWUtWqQzM+X33E+zwsfJASXAcyGgjomIWfpOqcs+1m/Y2KQfwDWiX9MPkDZg34CJXARFRK4TupklASZwWQL0+XT84TPQEFSXyWQUcSKYDtcor85desZeuvVF/5xzhyUVGrQXmQoU8bsYeRECUtEqlEARzyobj3I/zYYe5waZAM+FIHsnOrZpnokNjlCxctVq0+lEP4Dr5716apqBDmy0kGBoeBIo6uvrpaKiIu3IolxiRHApPi6ZTOD27t0rzZo1S3t9UC4xIi9cMvEH11vxXW9qcVP8lmoyasdVOnGiKe2mutipz/v4s4LEB++/GzvJzc8dXTF0yLly8y9uiAkUEydcJbdPu1PWrntJunT+qflvfASFnj99xp2y7sVVsfq1zRYtjjBRCDfceLMsXvJY7Du1wwoBtk79rGrEyJTtJIqg6Ny1p4nW0EOjK75/5JGxOmz0R7J6E9ml9emyVLVLz1ehZsYdM039lo3X64j7afIrmOvX+/WbqGQQ+PFc+D/PBMEfPC/xR7oXpETj1JNAka5ivodA2AhkMoELW9+D2B/8EUSvBMOmVJPRdOJEMHoQbSvcL9pugSE+YkDvAfrCr9uw6RKPAQP6yay77jbLKpJFXuiLvh4qbCQ6VMDo26e3+cpGRqh4oVEddimIlknXTqolHlq3OyrE9kM/T1ZvKrt0icfu3Z80WlLSlOUk2r5bGIr2KKT3YSPAcyFsHqU/USOAQBE1j9NfTwR4IfaEKW+F8EfeUBdlQ4kmo9qRIcOqZOvWbWZL6EcWLyS5cYC9awUJNVFfwjdvfj32Aq+fqdhQVlZmeqACxZFHlpu/rfiQ6CVdxY9du3YlFSj0fBvFoH+rQGIFCpvrIV7kSNROOoHCnZ/C1mddkcz+VHY9/fQzsegJW8+111wpo0Ze7MnD3E89YaJQkRPguVDkDsT8SBNAoIi0++l8MgJM4II1NvBHsPwRRGviJ6NqI+JEED2V2iYVAM4eNEDKy8uyFijc0Q+2Vf1s06ZXZdSon5tICftib4WHpgoUGiXhjkiwERnabiYChW0/lV0qUCRKFOrV29xPvZKiXLET4LlQ7B7E/qgSQKCIqufpd0oCTOCCNUDwR7D8EVRr7GR067ZtcoDzPyInguqpfXbZ5R3unSmSCQWJlnjo7h8qCqRKrpksSaa2b0UF9/nxAoXNg+GlHbssxJ1bw/5t++he4pHIfi92aXSJnhtfp12uks7r3E/TEeL7MBHguRAmb9KXqBBAoIiKp+lnRgSYwGWEK+eF8UfOEYemAZ2Mtm13kunP65tfYVlHwD0bnxDSvVQhVZJMTRSZLnmldt29dET/7d5mVMWQ7dt/ZxJP6tGxY3s588wzGu0sop97accKERa3zadhPz/66KNMW+6ElsnqTWSXLt/Q+6DWo3k33NzcdXpxN/dTL5QoEyYC+lw4oV0n06U3Nq/nuRAm59KXUBJAoAilW+lUtgSYwGVL0N/z8Ye/PMNeG+Ml7B4unv4l2qmk0NZzfRTaA7SfbwLrnS0fhzo5ifRYvKhGOjlbO3JAAALBJYBAEVzfYFkBCTCBKyD8BE3jj2D5I+jWMF6C7qHo2IdAER1f09PgEjijb3/Ztu09Y2CrVj+UZ5Y/GVxjsQwCEBAECgYBBHghDvwY4IUz8C4KlIGMl0C5A2MCRoDrI2AOwZycEnhl/Qa57PJxoss89CgpLZH5c2cTRZFT6lQOgewIIFBkx4+zQ0qACVywHIs/guWPoFvDeAm6h7CvkAS4PgpJn7bzTaB3n7Okftv74uRNjh1EUeTbC7QHgcwIeBIo6uvrpaKiIm3NlEuMCC7Fx8VO4Lwk2du7d680a9Ys7fVBucSI0nFxJz10b+OXDDjXW/Fdb2qxn37L5AXMz3b97gf1Jb+t4remX+dcH4wrSyDs19HLr6yXy0dfGYuesP1OF0URdi7xVwD9bfr9lOd0bu6nngSKtG9eFIBAyAh07tpTdu3aTTKlAPjVJrfSLSOfWV4bAIswIegEMnkBC3pfsM8/AvE7bWjN7l1D4lvSbVA3bNhkdvfQ/+rOIWE4uD7C4EX64IVAougJex5RFF4IUgYChSGAQFEY7rQacAIjR42RVavXyNgxl8kVYy8PuLXhNu+u2ffI7DlzpWeP7rJg/pxwd5be+UKAFzBfMIaukqYmrLRCBQJF6IYEHQoxgWTRE7bL6aIoQoyGrkEg8AQQKALvIgwsBIEnlj4pEyZWm1/OlixaWAgTaPMfBIYMG25+vZx2+xQZNLA/XCCQlgACRVpEkSyQSqC44cabZfGSx2JcdDlZfATF6NGj5Jxzh4ldaqbj7PHHFkmLFkdI5y49pUvnn8radS+Z7/XcGXfMNPUNHXKu3PyLGwLDnOsjMK7AkBwS6H2Gk3viPSf3RIqDKIocOoCqIZAFAQSKLOBxangJaN6DLl0rpWHPHpnnZHvuVdkjvJ0NcM+sUFTSvLmsfbFOSktLA2wtpgWFAC9gQfFEsOyIX+Jx9NFHyeq6Z42Ry1c8K3379DZ/W+Fh06bNjZZ4pBMoZs2cYerQdsZPmByru0dlb5k+baq0O7FtIIBwfQTCDRiRQwJr174kY8ZeJXu+/jplK987+Hsy9+67pPNPT86hNVQNAQhkSgCBIlNilI8MAbu0oKSkRFY8vVRatiyPTN+D0NEdO3ZKnzMHSkNDA0ttguCQIrKBF7AiclYeTU23xKNqxEgTAaGHRkZkKlCsW7tKylq0aBQ9YbuXKtdFHhHEBBj9w0vS4XzbRnsQ8IPAE0/Uyj3z7pXvfOc7seo+/PAj8/cxx/wg9tm3335r5hf9zzrTj2apAwIQ8IkAAoVPIKkmfAQ0imLw0OGybVu9tG7dyuybjUiRHz+rODHqsrGydes20eSYjyxeSPREftCHohUEilC40fdOJBModu3ebZZoWBHBRjxkI1AEOakm14fvQ4sKi4AA474InISJEPgHAQQKhgIEUhBwL/XQSAoN02W5R26HjC7rmDJ1momcYGlHblmHtXYmomH1bHb9SiZQuD+3f6eKoNBIid27PzH5KNw5KGwEhS4XGXfltWL/rePRLv/Irgf+nM314Q9HaikuAoz74vIX1kabAAJFtP1P7z0QcEdSaHFNnNmpYwfz39bOr/vkRfAAMY0ItNWJUtFfHHVLUf2vHkROZMc1ymczEY2y95P3PdUSD42a2L79dybRpb3P63/jtxm1y0C03Me//70RrW2STCtI6HnupJskyWQ8QqDwBHguFN4HWAABrwQQKLySolykCahIUbPwYampecgkzuTIHQGNmqiqukCqhp+P+JM7zKGumYloqN1L57IkwPWRJUBOL0oCjPuidBtGR5SAJ4Givr5eKioq0iKiXGJEcAkPFxUqVtatlrq6NbJj506Tn4IjewIaLdGyvFwqK7ubJTSJolK4jsJzHSXqiZ/+zWQi6me72i/qY5wGfRxwfSR/ZnH9hvf6Zdwz7i0BrvPgX+eeBIrsXz+oAQIQgAAEIJAfAplMRPNjEa1AoHAEtmzZJhs2bjJ5fTQB8dLap4wxAwecZRI/a36ljh3aS5s2rQpnJC1DIMcEeC7kGDDVQ8BHAggUPsKkKghAAAIQKDwBJqKF9wEWFJaA5vOprV1m8vrs3LkrZkxZWQsjVOihwsSuXbtj35WXl5kItp49u5s8SxwQCBMBngth8iZ9CTsBBIqwe5j+QQACEIgYASaiEXM43Y0R0AiJKVNvl7pVa8wuSB0doSHV0jk90b10cYMjaGieJY2uGDvmMrbWZmyFhgDPhdC4ko5EgAACRQScTBchAAEIRIkAE9EoeZu+WgIqTGgy5/hEwypAqGChkRQqYGj+JD00748u8dDIiUonakJz/8QnhNZkxdWTJwIZAkVPgOdC0buQDkSIAAJFhJxNVyEAAQhEgQAT0Sh4mT5aAioqjJ8w2YgQwy8cJleMvdyIDU8sfVJqn1wW27pZy+sSDxUl9FCxwr3EQ7fO1sgJ/b/Wedfse2Thg4uMeKHbqbKlNmOumAnwXChm72F71AggUETN4/QXAhCAQMgJMBENuYPpXoyACglDhlXJ1q3bZNrtU2TQwP4m78SUqdPMZypI6GeVPXskTYKpSTTrVq02goYKFq1bt3KiJiaYPBT62YSJ1eazJYtqECkYe0VLgOdC0boOwyNIAIEigk6nyxCAAATCTICJaJi9S98sAStO7Pj9Dlmy+EEjQGjUw+w5c40woZEUKk5kcqggoXWoUKHnax4KFTCGDL1QWh7ZEpEiE5iUDRQBnguBcgfGQCAlAQQKBggEIAABCISKABPRULmTziQhMOrSMWZZx/JlS51lG2UmakK3EB3Qv5/MmH5rVtyuHX+dWR6iyz00mmLHjl3St99As9xj/rw5WdXNyRAoBAGeC4WgTpsQaBoBBIqmceMsCEAAAhAIKAEmogF1DGb5RuCWKbeZ/BB2WYcVFKqvmyBVVRdk3U6vn/WVww87TF5+Zb0RKTQHhV3uoXkurq+elHUbVACBfBLguZBP2rQFgewIeBIo6uvrpaKiIm1LlEuMCC5wUQKMA8YB4yD5Y8TP6yOTiaif7eLf/Pg36pw1uWXXU3uZhJgqFNhlHYnEib/+7//K22+9I8cf/59y4IEHpp3HaYG33npbzh18gTz3m2WyZvULMuXWaWaphy75sMLIi8+vbLQFKdcRz7egX5c8F7g/WwLcr4J/v/IkUHh6olEIAhCAAAQgEAACmUxEA2AuJkAgIwK6tGP9+o2y9sU62eIkwhzqJMlMtqyjvv49GT7iEjmtV0+56cZqT+0MGTpc3v/v/5ZNG14y5W10xmInSWYbJ1lml66VUlnZI+tlJJ6MoRAEfCLAc8EnkFQDgTwQQKDIA2SagAAEIACB/BFgIpo/1rSUXwK6Q4cKEjai4Yy+A8yWoOteXJXQkF/cPFWOPvpoUNpQkgAAIABJREFU2bz5NenliBR9zjg9pcFvvPGWjLvqWunQ/idmWYc9OnftKUeaJJkLYxEbKljoTh8cECgGAjwXisFL2AiBfQQQKBgJEIAABCAQKgJMREPlTjrjIqDRDHV1q030xErnv7oFqM1DkQhUm+NOlNdefVn++Z//WU46pZs8Vfu4HH74YUmZDq+6RP72t/9PBg0aIGf16xsrZ/NPaFu9nOgJjaIYOPAsclEwOouGAM+FonEVhkIAgYIxAAEIQAAC4SLARDRc/qQ3/0egS7dKad2qlSyYP0c0ekKPZ5bXJkS07OkV8sILa2XmndPN9x9//Hu5YPjF8sKa/0pY/rXX35Bbb50uO3ftSihkaBRFy5bl8oizpenIUWNk67ZtsvaFOtwDgaIgwHOhKNyEkRAwBIigYCBAAAIQgECoCDARDZU76cw/CGzZss1s9WmjGNq2Oym21CMRJM0lMXbsZY2WYeg2pJq/ItE2pCpe9O3TWxbc+ytZtfKZ/aq0yThf3/xKLHpDtzht06YVPoJA4AnwXAi8izAQAjECCBQMBghAAAIQCBUBJqKhcied+QeBmpqHzI4aXgSC3338sQwffok8v+a5/fhNnHS9nHjiCXLO2QNj32mOitun3+ks6+gj27a9J7fcfMN+5yUSSPza1hQnQyDXBHgu5Jow9UPAPwIIFP6xpCYIQAACEAgAASaiAXACJvhOwEYwfPD+u7FElfp3omOaIzYcemipjLzk4oTf96jsLfffO1d+8IOjzffDLhghl426RBYveVT6OFEUp/+sV8Lz9NqyCTrdf/veWSqEgM8EeC74DJTqIJBDAggUOYRL1RCAAAQgkH8CTETzz5wWc09AE2TqLh66Y4f770Qtt2t/srNM41n5l3851Hzdu09/mTVzhvzw2P8w//7ss8/kZ73PcrYSXSebNm2WO+6cJY898rCc+JOTZM2q5xxx45CEHTqhbcdYckz337nvPS1AIDsCPBey48fZEMgnAQSKfNKmLQhAAAIQyDkBJqI5R0wDLgK6zWfdqjVmd40tW7fJzp27csLn7/J36dihvUlSOXjohaYN/Tv+WLlyldQ+9bTMnzvbfHXu4PPlmqvGyZVXjZfHH18kZS1amM+fe26lPL3iWfnyiy9l9OhRcughh8g1jgiSLOmmnuNuV//esHGTHOD8LxdHeXmZtGndSiqdXUMqe3aX0tLSXDRDnREhwHMhIo6mm6Eg4EmgqK+vl4qKirQdplxiRHCBixJgHDAOGAfJHyN+Xh+ZTET9bBf/5se/QeGswsTCBxfJA05uiIaGhrRzpGwLeBUoRlw8Si4YNkS6desid/xylnzve9+Tyy69RP76v/8rJ5zQQbZueSNmyowZM2Vb/Xvyq/vnOf14UHbt+kSqJ09Iamo+BQq3ESUlJTKi6gIZfuGwRkIF1y/PVa/3A54L0bo/p7rfct8I/n3Dk0CR7UOV8yEAAQhAAAL5IpDJRDRfNtFOuAioODFkWJVsdSIm9OjQ4Sdmt4yOHdubX/1z8Wu/LuvQiAXd2tP9t5vsH/7wP3LmWYNk/csvygsvrpOHHnIElF8tiBV57733Zey4a+S5Z5ft55CLL7lMhpx3jnTv3i2psxot8Tixkwwc0E+ur57ku3OVr0ajbNiwySxr2bjxVdNGa4ftkkU1OeHreyeoMFAEeC4Eyh0YA4GUBBAoGCAQgAAEIBAqAkxEQ+XOwHVGX567dOtloiZKmjeX6dNvlV7OMoRcH16SZM65e5787W9/k59fPEJO/mk3eeuNTfuZFb8ExBb4z+PbyasbX5KDDjooaVcKlSRzpbN8Zrwj0DTs2SMaTbH2hZWIFLkecCGrn+dCyBxKd0JNAIEi1O6lcxCAAASiR4CJaPR8nq8euyMnWrWqkAXz5kjLluWNmp89Z54seeQx+ecD/0nudXbKsIkps7XRyzajP+3cw+SZ+Pkll8sdjnCiEQeJjnvv+5V8/vkXMnHC1ebrN954S26ecqvUPvFoUjMLvc3ojh07ZeSlY5xtUOuJpMh2MEXwfJ4LEXQ6XS5aAggURes6DIcABCAAgUQEmIgyLnJFwEYxaOTEiuW1Rpz461//Kl9//bUcfPDBcuCBB8rpvfs5v/Zf5SShrJOW5eUyZsylxpy33n5HfnT8cU02LZFAYLf81ErXrntJHnjgITnqqO/Lf/zHMXK+k4ci1THpuhucnBQ/knPPGSRz590r33zzjVxz9bikp9i+v775FdGIhgkTq2X5sqXSpk1iEaTJHU1xoooUffoOMJEU7r7noi3qDBcBngvh8ie9CTcBBIpw+5feQQACEIgcASaikXN5XjrsXtoxz9khwy7rmDJ1mnz66adGnPjqqwY56HsHydRbbpJPPvlEzr/gIpOXYrmzW0a7dm1l5p3TpbysrMn2du7a08lx0VoWzJ8jZ+iLurPMRHNS6HH56HHSosUR8of/+aPMnnWHpzYGD7lQxo0bLbo05LJRl8jJJ3dKep62rYKM7hwyctQYJ0fEVrPlab6PJ5Y+acQRlnrkm3xxt8dzobj9h/XRIoBAES1/01sIQAACoSfARDT0Li5IB+0SC02Iabf3XHDvr6TUyYkwePA5TkLHV+XQQ0vMrmea4FG37SwrayG/+c1/yemnn2ZsPrPfIHl62RNNtl+TY+qWppqDwUYxTLt9ipzWq6ec4izvaN78YHn5peczqv+kU7qJJtf87/fekQMOSLxlqBUFtC0VZjQHR64SZHoxXncT0cSZas+ggf29nEKZiBPguRDxAUD3i4oAAkVRuQtjIQABCEAgHQEmoukI8X1TCGjUwKrVa/ZbWrBo8SOyx1niMeqSi+Xtd951kmbeKeK853/00XaTK0GjGe67v0ZU4NBf/e93tvRsal4K3dFiqLN7iF3eYKMozjlnoFPvQnl2xZNGFMnk+J8//lGerF0ml1xyUdLT3NETdqnHYmc3Dd25pBCHtaFnj+4mmoQDAukI8FxIR4jvIRAcAggUwfEFlkAAAhCAgA8EmIj6AJEq9iPQpVul7Ny5S+JfzEePvVKuHDfGyeHwZ/nlL2fJfU5izL1795o8CR99uF1uvuVWs7OGX3kpVCjZt93oShOpoYJF91O7yk03Vkt5edOXjyRzuUZt1D65zPRbt1DV6InKnt1lhpOEs1CHFWpUAFrx9NJCmUG7RUSA50IROQtTI08AgSLyQwAAEIAABMJFgIlouPwZlN7YcaVJIktLS+WeuffKsmVPyzHHHCPz582WqhEjZdbMGXLIIaWieSk0B4Xmpdixc6eJnJh15wzz2aCzh5p8FC+8uLZJeSk0UWTXU3vJ8AuHyfXVk8RGE1RfN0Gqqi7wFZdd1mIjNsZPmCxLa5+SF59fud/uJb42nKYyzQfStt1JptQH77+bz6Zpq0gJ8FwoUsdhdiQJeBIo6uvrzZrKdAflEhOCC1yUAOOAccA4SP4U8fP6yGQi6me7+Dc//i0U5/hx1e3U06S6eqJJgvnZZ5/JjTdNkQdr7pP5C+53BIwSGTL4XN/yUmhERrNmzWKAb5lymyx8cFEsB4ONcqiePFGqhp+fbrrm6XsrTgzo389ES9g8FFYYcVcSb1+yBvwsx3Ue7uvN7+uc8cJ4sQR47gd/Pu5JoPD0JKMQBCAAAQhAIAAEMpmIBsBcTCgSAvHj6vTeZ8mxx/672c6zbdsfS5vjTpT3tr1levPQw4vlmz//OWVeCo2umDjpern66ivk8MMOy5iCzYmhW322bFkmt0y53SzFGDjgLJk+bWrG9blPsIKHihPXOyLMjh27pG+/gRKknA9c51m5OHInM14i53I6XMQEECiK2HmYDgEIQAAC+xNgIsqoyAWB+HG1ffvv5KXfviLTZ9wpb72xUSZX3yjHH3ecnHfe2TJ6jJOX4srGeSm++93vGrPefPNtqb7+Jlnu5E6471c1mk9TLr6oKmOTdZnD4KHDTV6MJYsWSps2rWLLPTQXxRVjLzdiRSaHRknMnjPX1GmXdWzZsk2GDBtu8ls8snihWd4ShIPrPAheKB4bGC/F4ysshQACBWMAAhCAAARCRYCJaKjcGZjOJBtXM2fNMTkmLhpxofQfcJ588umn0qrih7Kw5t5GeSncHXnmN8/Ju+9skRFOzgiNhNA8FfcuuEd+/KPjM+qvFSm2bauPLffQBJIaTaGfaRJJ3RZUIx9UwEh0qAChu5OoOKHChG6jquKG7tBhl3W0alURKHFC+8F1ntFQiXxhxkvkhwAAiogAAkUROQtTIQABCEAgPQEmoukZUSJzAonG1V/+8hc56ZRuJmmkRkjoso9EeSniW/vggw/ltml3yP3Ojh9ffPGlk7fiPnP+1VddkbFhKlJcO36yERk0/4RGPmiUg4oLmtBy48ZXY3WqkGKFChUmGhoaYt+pMKERF4MG9hetUyMpahY+bMSNGdOnBiZywhrMdZ7xUIn0CYyXSLufzhcZAQSKInMY5kIAAhCAQGoCTEQZIbkgkGhc7XZ25RjiLLN4fvVzRnBY9tQKJwKhXcK8FG6bVq95Xh599AlnS9J7ZM7d82TVqjXS38n3oAkom3rYxJkqQmhkhtalQoWKDSvrVpvoCP1btybVQ7cM1e916YZGWdiymnzzgZqHjHiRKCFmU+3z+zyuc7+Jhrs+xku4/UvvwkUAgSJc/qQ3EIAABCJPgIlo5IdATgAkG1cff/x7meAku5x++xRHaFgtDyxcJF/86U/y9luvNspL4TZq5KVj5bxzB5n8EwsfWiTnnD1QTv9ZLzngAP2k6YduQarLOzSaQoWKTs4OI5WO+FDZs3vSCAgVLeocgaTOETHWb9hkhAlNjqnLPFq2LG+6MTk+k+s8x4BDVj3jJWQOpTuhJoBAEWr30jkIQAAC0SPARDR6Ps9Hj1ONq4aGPY4g0NyYoYkr/+os/eh1Wk8Z+fOLnOUX18kxx/xADj/8MPnyyy9l3rx7ZdbMGdKu3YlyzbWT5KKLhkvbE37saxc0D4UKDho5sWvX7ljdqZZ4lJW1MJEUKmho/omgH1znQfdQsOxjvATLH1gDgVQEECgYHxCAAAQgECoCTERD5c7AdMbruPpo+3Y5s9/Z8tt1q01eiYMOOkgeeeQxee31N80Si2OP/Q+55upxpl9r170kNTUPS80DC3LWT801scERLL5yIiMSLfEodSItOjqCRLIkmjkzLMuKvfojy2Y4PSQEGC8hcSTdiAQBBIpIuJlOQgACEIgOASai0fF1PnvqdVzF56X45ps/y0BnycQJJ/zImLt06VPy6ydqRXfGGDL4HJl03Q2yZPFCOfDAA/PZnaJvy6s/ir6jdMAXAowXXzBSCQTyQsCTQFFfXy8VFRVpDaJcYkRwgYsSYBwwDhgHyR8jfl4fmUxE/WwX/+bHv4XinMm42r79dzJp8o0mL8Ubb77p7IaxSKbecqO8995/y5JHH5fJ142Xdet+6+zg8YXz94S086u9e/dKs2bNKOcikIk/uM55/jJewn1/LtRzgXZzM648CRRpn4gUgAAEIAABCASEQCYT0YCYjBlFQCDTcRWfl+KIIw6T3bs/kWN+8AOZOuUmkxDz88//JP/6r/9SBL0PnomZ+iN4PcCifBJgvOSTNm1BIDsCCBTZ8eNsCEAAAhAIGAEmogFzSEjMyWZc7dq9W2prl8k7726R9u3aOYkxLwwJlcJ1Ixt/FM5qWi4UAcZLocjTLgQyJ4BAkTkzzoAABCAAgQATYCIaYOcUsWmMq2A5D38Eyx9Bt4bxEnQPYR8E/o8AAgWjAQIQgAAEQkWAiWio3BmYzjCuAuMKYwj+CJY/gm4N4yXoHsI+CCBQMAYgAAEIQCCkBJiIhtSxBe4W46rADohrHn8Eyx9Bt4bxEnQPYR8EECgYAxCAAAQgEFICTERD6tgCd4txVWAHIFAEywFFZg3Xb5E5DHMjTYAlHpF2P52HAAQgED4CTETD59Mg9CjbcaXnz5o5Q/r26R3rzubXXpdzzh0mH7z/bsZd1Poef2yRtDuxbdJzs63fXbEXGzUZaOcuPZPa5cVmryCy9YfXdigXDgKMl3D4kV5EgwACRTT8TC8hAAEIRIYAE9HIuDqvHc12XBWTQNGjsrecPWiAjBp5sWE8f8H9MuOOmWmFFASKvA5JGsuAQLbXbwZNURQCEMiSAAJFlgA5HQIQgAAEgkWAiWiw/BEWa7IdV+kECvtyf+01VxoxQA93xIX9Xj8fOuRcWbzksVikwvIVz8q4K6+Nodbvb/7FDbFEkkcffZSsrnvWfG/7oX+vW7tKylq0aOQi2078d/H2u+uxkRzxAkUqm7MdF9n6I9v2Ob+4CDBeistfWBttAp4Eivr6eqmoqEhLinKJEcEFLkqAccA4YBwkf4z4eX1kMhH1s138mx//FopzJuNq79690qxZs0ZAEgkUr25+Tc4973wTmWBf5rt0/qnUPLBA7PIMFQqOOPxwqTytTyyqwQoSVhiwSyfanvBjeebZ54xYoeft3v1JoyUkNjLikp+PiJVLtHSjasRIWbvuJZl553Q5s+8Z+znWHWFhbdH29HAv8UhULt2yFK0jEb94IzLxB9c5z1/GS7jvz4V6LtBubsaVJ4EirTJBAQhAAAIQgEBACGQyEQ2IyZhRBASyHVdeIyjcL/AqFHTs2F7OPPMM8+LvjmqwokSLFkc0ioJwR0C4BYpE+ShUQBh3xehGeTGsK+KjMmw0R6IIC1tPu3ZtYwKF2pXM5lR5M7wOhWz94bUdyoWDAOMlHH6kF9EggEARDT/TSwhAAAKRIcBENDKuzmtHsx1XicQAt2iQ6MXfChTt27fbL5mm1jd92lSTJNPmiHADiY+gsG3FQ9MlJTbXRDKg9lwVT/SIT+wZL6QkK+e2OVvnZeuPbNvn/OIiwHgpLn9hbbQJIFBE2//0HgIQgEDoCDARDZ1LA9GhbMdVIoFCoxRm3XW3yQ+RKMFkfGRCoggKKxjY71JFUIyfMDmWiyIZVLWptnaZWWbiPlLZQgRFIIYoRqQgkO31C1wIQCB/BBAo8sealiAAAQhAIA8EmIjmAXKImnj88aVyhLMcoUvnU1L2KttxlWgnDHeOBiss2ASX7hwUmshSy55ycieT/NKdg8IKFDaXhM0fkSwHhV3S4Y6KiF9yEb8cxZ1nwtpid/lIl4Mikc0s8QjRBVQkXcn2+i2SbmImBEJBAIEiFG6kExCAAAQgYAmcdEo3+cMf/kdeful5OfzwwwADgZQEunbrJZ9/8YUc2bJMrq+eJCd16piwvB8vODfceLPZfcMeVozQf7sFClsmPqGktUETaeoxevQos8TDihL6meaK0KgMK0TE2+3efcO9S0h8p93l9LtEu3rYc5Lt4qHfJ7M522Hphz+ytYHzi4PA7k8+kZ927mGeB/pc4IAABIJNAIEi2P7BOghAAAIQyJDAqEvHSN2qNTLttikyaFD/DM+meNQIdO9xumz/3cdygNPx0kNKpUWLwxMKFbl+IU62vWfU/OG1v7n2h1c7KBd8Ao8+9muZXH2TnHZapcy9e1bwDcZCCEScAAJFxAcA3YcABCAQNgIvv7Jezr/gImne/GBZ9uSv5eijjwpbF+mPjwRiAoUqFHr8fZ9QUVZ2hBEqOnXsYD7O9QsxAkVmTs21PzKzhtJBJfDhhx/JWQPOka+//kYeWfygdOjwk6Cail0QgMA/CCBQMBQgAAEIQCB0BCZMrJYnlj4pJc2byy9uul66du0shx56SOj6SYeyJ7CfQOGqsqS0RMrLWhihYuiwKvONzfWQfcvUkA0BBIps6IX/3D/+8Y+ydt1v5Rc3T5U9e76Wc84eKLfdenP4O04PIRACAggUIXAiXYAABCAAgcYEGhoa5NLLrpBX1m8ADQRSEvi7EzGhxwE2giJB6b9rWIWWcf6HQBGMAXXMsW2MPzggkI7AySd1krlz7zKCNQcEIBB8Ap4Eivr6eqmoqEjbG8olRgQXuCgBxgHjgHGQ/DGSq+vjrtn3yLO/+S/ZvXu3CfHlgEA8gUwECj33w/e3pIW4d+9eadasGeXiCPjJJT6JZ1rYFIgUgYMP/p7ojjO9e/9Mxo65zPQ9V8+ZdGBpl/kf4y+z+Z8ngSLdhcf3EIAABCAAAQhAoBgJpFvi0bK83FniMVGGDB1uukcERTC8zBKPYPgBKyAAAQj4TQCBwm+i1AcBCEAAAhCAQNEQiBcodDlHSUmJs+1oSyNMdOzQ3vQlyC/ENsGmha6JYVfXPeuLD7Tf8dud+lJxlpUE2R9Zdo3TIQABCESaAAJFpN1P5yEAAQhAAALRJmAFCjlgnzDx/ZZHGmEiPtt/UF+IN7/2upxz7rBGIsL8BffLr5+o9UWkQKCI9vVB7yEAAQjkmwACRb6J0x4EIAABCEAAAoEh0LVbL/nsiz/JD75/VEJhwhoaVIGiR2VvOXvQABk18uJGTPXz6dOmSrsT28ryFc/KuCuvjX0/dMi5cvMvbhArbnTp/FNnx4OXzPIVdzSGllu85DEiKAIzWjEEAhCAQPgJIFCE38f0EAIQgAAEIACBJARqa5fJ4YcfLqec0ikloyAKFFZMSLcEwx0FYcWKdWtXOcljPzHRF7NmzpC+fXqb/rsFD1s2Xf2FGFxB9EchONAmBCAAgbARQKAIm0fpDwQgAAEIQAACvhMI4guxFShUbNAdCxIdWsb9nfscK1DY8xPVxxIP34cSFUIAAhCAQAoCCBQMDwhAAAIQgAAEIJCGQBAFCjXZi4CgOSlm3DGzUQ/dERRWoLBLPtw7lbiXigRpkATVH0FihC0QgAAEipEAAkUxeg2bIQABCEAAAhDIK4GgvhBXjRgpHTu23y8HhX4+YEA/KStrYZZxJIqSIIIir0OIxiAAAQhAwAMBBAoPkCgCAQhAAAIQgEC0CQRVoEi3i0d8VIQKF5oQM1EEhXpYIyZOObmTSaJJDopoj3l6DwEIQKAQBDwJFPX19VJRUZHWPsolRgQXuCgBxgHjgHGQ/DHC9cH1EfTrIxOBYu/evdKsWbO08ya/ylkRwjZ49NFHNdpi1IoS+r0mxJx1190y7orR+0VX2PNtX3V3Dz1Gjx5ldgNJdvjVD1u/l/oy8Qf3F+4vQb+/YB/zA0uA+5U4u347R9onKAUgAAEIQAACEIBAhAlk8kIcYUx56zr+yBtqGoIABCCQVwIIFHnFTWMQgAAEIAABCBQjAV6Ig+U1/BEsf2ANBCAAAb8IIFD4RZJ6IAABCEAAAhAILQFeiIPlWvwRLH9gDQQgAAG/CCBQ+EWSeiAAAQhAAAIQCC0BXoiD5Vr8ESx/YA0EIAABvwggUPhFknogAAEIQAACEAgtAV6Ig+Va/BEsf2ANBCAAAb8IIFD4RZJ6IAABCEAAAhAILQFeiIPlWvwRLH9gDQQgAAG/CCBQ+EWSeiAAAQhAAAIQCC0BXoiD5Vr8ESx/YA0EIAABvwggUPhFknogAAEIQAACEAgtAV6Ig+Va/BEsf2ANBCAAAb8IIFD4RZJ6IAABCEAAAhAILQFeiIPlWvwRLH9gDQQgAAG/CHgSKOrr66WioiJtm5RLjAgucFECjAPGAeMg+WOE64PrI+jXRyYvxHv37pVmzZqlnTdRLjEiL1wy8Qf3F+4vQb+/YB/zA0uA+5WIJ4Ei7ROWAhCAAAQgAAEIQCDEBDJ5IQ4Shi1btsmGjZukoaFBduzYKTt27jTmtSwvl5Yty6WkpEQ6dmgvbdq0CpLZaW0pVn+k7RgFIAABCEScAAJFxAcA3YcABCAAAQhAID2BYnohXr9ho9TWLhP9786du2KdKytrYUQJPVSs2LVrd+y78vIy6VXZQ3r27C6dOnZID6TAJYrJHwVGRfMQgAAEiooAAkVRuQtjIQABCEAAAhAoBIFieCFW0WHK1NulbtUaKWneXDo6QkNlZXcjPJSWlibE9tVXX8nKutVSV7dGNjiCRsOePTJwwFkydsxlMTGjELzTtVkM/kjXB76HAAQgAIH9CSBQMCogAAEIQAACEIBAGgJBfyFWYaJm4cNGmKiqukCqhp9vRAkVIFSw0EiKREs8NHKi0omasGW1jpqah4xQoXVUT54YyLERdH8EEhpGQQACECgCAggUReAkTIQABCAAAQhAoLAEgvpCrALE+AmTjQgx/MJhcsXYy43Y8MTSJ6X2yWVOVMSmGLhUSzw6dmxvIif0/1rnXbPvkYUPLjLixfRpU5NGYBTKK0H1R6F40C4EIACBsBBAoAiLJ+kHBCAAAQhAAAI5IxDEF2IVEoYMq5KtW7fJtNunyKCB/U3eiSlTp5nPVJDQzyp79kiaBFOTaNatWm0EDc1J0bp1KydqYoLJQ6GfTZhYbT5bsqgmUCJFEP2Rs8FHxRCAAAQiRACBIkLOpqsQgAAEIAABCDSNQNBeiK04seP3O2TJ4geNAKFRD7PnzDXChEZSqDiRyaGChNahQoWer3koVMAYMvRCaXlky0CJFEHzRyacKQsBCEAAAskJIFAwOiAAAQhAAAIQgEAaAkF7IR516RizrGP5sqVOMssyEzWxtPYpGdC/n8yYfmtW/rx2/HVmeYgu99Boih07dknffgPNco/58+ZkVbdfJwfNH371i3ogAAEIRJ0AAkXURwD9hwAEIAABCEAgLYEgvRDfMuU2kx/CLuuwgkL1dRNMgkw/Dk2UOeXWaUak0BwUdrmH5rm4vnqSH01kVUeQ/JFVRzgZAhCAAAQaEfAkUNTX10tFRUVadJRLjAgucFECjAPGAeMg+WOE64PrI+jXh30hfn3zK2lzMezdu1eaNWuWdt7UlHK6E0fXU3uZhJgqFNhlHX6KE9ZwK1LoUg9d8mGFkRefX9loC9Km9CMVnHT16fKWtu1OMlV88P67aTlzf+H+EvT7C/YxP7AEuF+JeBIo0t75KQABCEAAAhCAAARCTKBz154mN8NiJ1mkJpAs1KFLO9av3yhrX6yTLU4izKFOkkw/lnUk64+b17AyAAAgAElEQVSNztB+t3GSZXbpWimVlT2yXkaSDT9NBKr9btWqQp5ZXptNVZwLAQhAAAIBI4BAETCHYA4EIAABCEAAAsEjMHLUGFm1eo1JHKnRBIU47Iu5teGMvgPMlqDrXlyVU3NUnDnSJMlcGIvYKKRQY6NGevboLgvmByMnRk4dQOUQgAAEIkQAgSJCzqarEIAABCAAAQg0jYDNwdCxY3vzol6IQ6MZ6upWm+iJlc5/dQtQm4fCiz1Dhg6XSROvkeOPPy5h8W+//VaGnT9Crpt0baMytu/aVi8nekKjKAYOPKtguSiGDBsuGzZsyqjvXvhQBgIQgAAECk8AgaLwPsACCEAAAhCAAAQCTkAjFfTFvGHPHpk3d7Z5Uc/30aVbpbRu1cpEDWj0hB5elji8/PJ6ubDq59Kta2fp1q2rDB1y7n6mq+Bx+ehxcmq3LtK1a5f9ymgURcuW5fKIs6WpRpNs3bZN1r5Ql28EsWSdJc2bG6GmtLQ07zbQIAQgAAEI5I4AAkXu2FIzBCAAAQhAAAIhImCXFpSUlMiKp3V7z/K89W7Llm1mq08bxaBJIr0sN7l92h3yzrtb5MGa++SmX0xx8ja02k980EiML7/80mwhev0Nv0hYxvZdk4Ta6A3d4rRNm1Z5Y6AJQvucOVAaGho89T1vhtEQBCAAAQj4RgCBwjeUVAQBCEAAAhCAQJgJaBTFYGeZxLZt9dLaSRg534mkyJdIYXfU8CoQ/OEP/2OiJvqfdaZc8vMRxi3x4sObb74tF//8Uhk//io5e9C+iIxkAkUigSQXO4ckGz8qToy6bKxsdRKDanLMRxYvJHoizBcbfYMABCJLAIEisq6n4xCAAAQgAAEIZErAvdRDIymmT5ual+UeNoJBt9V0/53I/qVLn5IZv5xpoiYqKn4YK+IWH+6cOVvWvfRbuf++efJv//qvCcvE161brdqoDfffmTLMtLzmwJgydZqJnGBpR6b0KA8BCECguAggUBSXv7AWAhCAAAQgAIECE3BHUqgpmjhTtx7V/7Z2ft3PRV4ETZCpu3jojh3uv+NRjL3iajnwnw+UGdNu3Y+SChQtWrSQZ559Tk7/WS8ZffmohGUSLQPRgie07RhLjun+2293KN+tTpSKJsLUPut/9SBywm/S1AcBCEAgeAQQKILnEyyCAAQgAAEIQCDgBPQlumbhw6JLLzRxZq6Pv8vfpWOH9iZJ5eChF5rm9G97vPHmWzK86hKZcsuN0ueM0xOac+llY+TlVzbJo0sWmiUqiY5kSzy0rLtd/XvDxk1ygPO/XB8aNVFVdYFUDT8/J+JPru2nfghAAAIQ8E7Ak0BRX1/vhAhWpK2VcokRwQUuSoBxwDhgHCR/jHB9cH0U6/WhQoUmjayrWyM7du40+SlycaQTKGbPmSsffPCh3DXrjqTNX3b5Fc6yjpflkSUPynH/2SbQAoVGS7QsL5fKyu5mCU2iqBTuG9w3ivW+kchzjGfGM+N53xjwJFDk4kFLnRCAAAQgAAEIQAAC3gjosg6NWNCtPd1/u8+ufXKZ3HbbDCeq496EAoRGR5Q7L/3POks8evbsbvJJxB+pIigaLfE4sZMMHNBPrq+e5K0DlIIABCAAAQh4IIBA4QESRSAAAQhAAAIQgEAhCXhNkvnZ5587yyEukdNOq5TLLxvZyGS3+DDrrrvl+RfWyq/umyv/7//9v1i5VAJFoZJkFpI7bUMAAhCAQH4JIFDklzetQQACEIAABCAAgYwJZLrN6C/vvMtJMLlJFj5wrxx88PdMe/Hiw9tvvyMX/fwyufqqsXLuOYMSlrGGFnqb0YyBcQIEIAABCBQlAQSKonQbRkMAAhCAAAQgECUCiQQCu+VnMg6bN78mw0dcItNunyq9Tz9tP4HCnjfpuhvkcyfyYsH8u5OWsREcr29+xeTcmDCxWpYvWypt2iROthkl39BXCEAAAhDwjwAChX8sqQkCEIAABCAAAQjkjEDnrj2lTevWjpAwR87oO0AaGhpMTop0x+gxVzpRFAfLP/3Td52tOlvJ0CHn7ndK3ao1okk0u3XrLN26dt2vjLbdsmW52Tlk5KgxsmXrVrPlKQcEIAABCEDATwIIFH7SpC4IQAACEIAABCCQIwKaHFOFhLUvrIxFMUy7fYoMGtg/bYu/fqJWZsyYKdddN17O6tc3Yflvv/1Wzr/gIpk08Ro5/vjjYmWeWPqkiZjQtnRHjS7depEgMy1xCkAAAhCAQFMIIFA0hRrnQAACEIAABCAAgTwTWL9howwdVmV237hi7OUZRVGoqZ999pn827/9W8ZWu6Mn7FKPxYtqpFPHDhnXxQkQgAAEIACBVAQQKBgfEIAABCAAAQhAoEgI6PKKfduNrnSWWWwzgsXAAWfJ9GlTc9IDjdrQ7UtVkGjTupWJnqh0tiidMf3WnLRHpRCAAAQgEG0CCBTR9j+9hwAEIAABCECgiAjs2LFTup7aS4ZfOEyur54kNqKh+roJzvaiF/jaE7tziI3YGD9hsiytfUpefH6lyUfBAQEIQAACEPCbgCeBor6+XioqKtK2TbnEiOACFyXAOGAcMA6SP0a4Prg+uD68Xx+3TLlNFj64yOSE0PwTNsqhevJEqRp+ftr5mpcCVpwY0L+fiZaweSisMOKug+uX65fr1/v1m6wk1xHXEdfRvjHgSaDw8iCjDAQgAAEIQAACEIBAfgjoUo9Vq9eYrT5btiyTW6bcbpZi+LHcwwoeKk5cXz1RduzYJX37DZSePbqbHUQ4IAABCEAAArkigECRK7LUCwEIQAACEIAABHJE4KuvvpLBQ4fLzp27ZMmihdKmTavYco/y8jKTRFPFikwOjZKYPWeuqdMu69iyZZsMGTZctM5HFi+U0tLSTKqkLAQgAAEIQCAjAggUGeGiMAQgAAEIQAACEAgGAStSbNtWH1vuoTt9aDSFftbaSWqp24Jq5IMKGIkOFSA0EkPFCRUmOnT4iRE3dIcOu6yjVasKxIlguBwrIAABCISeAAJF6F1MByEAAQhAAAIQCCsBFSmuHT/ZiAyaf0IjHzTKQcUFTWi5ceOrsa6XlJTEhAoVJhoaGmLfqTChERea00Lr1EiKmoUPG3FjxvSpRE6EdQDRLwhAAAIBI4BAETCHYA4EIAABCEAAAhDIlIBNnKkixAhnNw9NZqlChYoNK+tWm+gI/Vu3JtVDtwzV73XphkZZ2LKafPOBmoeMeJEoIWamdlEeAhCAAAQgkAkBBIpMaFEWAhCAAAQgAAEIBJSAbkGqyzs0mkKFik4d20ulIz5U9uyeNAJCRYu6VWukzhEx1m/YZIQJTY6pyzzYSjSgjsYsCEAAAiEmgEARYufSNQhAAAIQgAAEokdA81Co4KCRE7t27Y4BUNFCDvjHP/8ujZZ4lJW1MJEUKmho/gkOCEAAAhCAQCEIIFAUgjptQgACEIAABCAAgTwQ0FwTGxzB4isnMkKjJZY6W5HqMdCJktBlHaWOaNHRESSSJdHMg4k0AQEIQAACEIgRQKBgMEAAAhCAAAQgAAEIQAACEIAABCBQcAKeBIr6+nqpqKhIayzlEiOCC1yUAOOAccA4SP4Y4frg+uD64PqwBLgfcD/gfsD9gPtB6lfvMN8nPQkUaZUJCkAAAhCAAAQgAAEIQAACEIAABCAAgSwIIFBkAY9TIQABCEAAAhCAQDERGDJsuDF3yaKFxWQ2tkIAAhCAQEQIIFBExNF0EwIQgAAEIAABCAweeqGB8MjiB4EBAQhAAAIQCBwBBIrAuQSDIAABCEAAAhCAAAQgAAEIQAAC0SOAQBE9n9NjCEAAAhCAAAQgAAEIQAACEIBA4AggUATOJRgEAQhAAAIQgAAEIAABCEAAAhCIHgEEiuj5nB5DAAIQgAAEIBBRAiTJjKjj6TYEIACBIiGAQFEkjsJMCEAAAhCAAAQgkC0BkmRmS5DzIQABCEAglwQQKHJJl7ohAAEIQAACEIAABCAAAQhAAAIQ8ETAk0BRX18vFRUVaSukXGJEcIGLEmAcMA4YB8kfI1wfXB9cH1wflgD3A+4H3A+4H3A/SP3qHeb7pCeBIq0yQQEIQAACEIAABCAAAQhAAAIQgAAEIJAFAQSKLOBxKgQgAAEIQAACECgmAiTJLCZvYSsEIACB6BFAoIiez+kxBCAAAQhAAAIRJUCSzIg6nm5DAAIQKBICCBRF4ijMhAAEIAABCEAAAhCAAAQgAAEIhJkAAkWYvUvfIAABCEAAAhCAAAQgAAEIQAACRUIAgaJIHIWZEIAABCAAAQhAAAIQgAAEIACBMBNAoAizd+kbBCAAAQhAAAIQcBEgSSbDAQIQgAAEgkwAgSLI3sE2CEAAAhCAAAQg4CMBkmT6CJOqIAABCEDAdwIIFL4jpUIIQAACEIAABCAAAQhAAAIQgAAEMiXgSaCor6+XioqKtHVTLjEiuMBFCTAOGAeMg+SPEa4Prg+uD64PS4D7AfcD7gfcD7gfpH71DvN90pNAkVaZoAAEIAABCEAAAhCAAAQgAAEIQAACEMiCAAJFFvA4FQIQgAAEIAABCBQTAZJkFpO3sBUCEIBA9AggUETP5/QYAhCAAAQgAIGIEiBJZkQdT7chAAEIFAkBBIoicRRmQgACEIAABCAAAQhAAAIQgAAEwkwAgSLM3qVvEIAABCAAAQhAAAIQgAAEIACBIiGAQFEkjsJMCEAAAhCAAAQgAAEIQAACEIBAmAkgUITZu/QNAhCAAAQgAAEIuAiQJJPhAAEIQAACQSaAQBFk72AbBCAAAQhAAAIQ8JEASTJ9hElVEIAABCDgOwEECt+RUiEEIAABCEAAAhCAAAQgAAEIQAACmRLwJFDU19dLRUVF2roplxgRXOCiBBgHjAPGQfLHCNcH1wfXB9eHJcD9gPsB9wPuB9wPUr96h/k+6UmgSKtMUAACEIAABCAAAQhAAAIQgAAEIAABCGRBAIEiC3icCgEIQAACEIAABIqJAEkyi8lb2AoBCEAgegQQKKLnc3oMAQhAAAIQgEBECZAkM6KOp9sQgAAEioQAAkWROAozIQABCEAAAhCAAAQgAAEIQAACYSaAQBFm79I3CEAAAhCAAAQgAAEIQAACEIBAkRBAoCgSR2EmBCAAAQhAAAIQgAAEIAABCEAgzAQQKMLsXfoGAQhAAAIQgAAEXARIkslwgAAEIACBIBNAoAiyd7ANAhCAAAQgAAEI+EiAJJk+wqQqCEAAAhDwnQAChe9IqRACEIAABCAAAQhAAAIQgAAEIACBTAl4Eijq6+uloqIibd2US4wILnBRAowDxgHjIPljhOuD64Prg+vDEuB+wP2A+wH3A+4HqV+9w3yf9CRQpFUmKAABCEAAAhCAAAQgAAEIQAACEIAABLIggECRBTxOhQAEIAABCEAAAsVEgCSZxeQtbIUABCAQPQIIFNHzOT2GAAQgAAEIQCCiBEiSGVHH020IQAACRUIAgaJIHIWZEIAABCAAAQhAAAIQgAAEIACBMBNAoAizd+kbBCAAAQhAAAIQgAAEIAABCECgSAggUBSJozATAhCAAAQgAAEIQAACEIAABCAQZgIIFGH2Ln2DAAQgAAEIQAACLgIkyWQ4QAACEIBAkAkgUATZO9gGAQhAAAIQgAAEfCRAkkwfYVIVBCAAAQj4TgCBwnekVAgBCEAAAhCAAAQgAAEIQAACEIBApgQ8CRT19fVSUVGRtm7KJUYEF7goAcYB44BxkPwxwvXB9cH1wfVhCXA/4H7A/YD7AfeD1K/eYb5PehIo0ioTFIAABCAAAQhAAAIQgAAEIAABCEAAAlkQQKDIAh6nQgACEIAABCAAgWIiQJLMYvIWtkIAAhCIHgEEiuj5nB5DAAIQgAAEIBBRAiTJjKjj6TYEIACBIiGAQFEkjsJMCEAAAhCAAAQgAAEIQAACEIBAmAkgUITZu/QNAhCAAAQgAAEIQAACEIAABCBQJAQQKIrEUZgJAQhAAAIQgAAEIAABCEAAAhAIMwEEijB7l75BAAIQgAAEIAABFwGSZDIcIAABCEAgyAQQKILsHWyDAAQgAAEIQAACPhIgSaaPMKkKAhCAAAR8J4BA4TtSKoQABCAAAQhAAAIQiBKBr776SupWrZG6utWyZes22blzV5S6n7O+lpeXSZvWraSysodU9uwupaWlOWuLiiEAgWAQ8CRQ1NfXS0VFRVqLKZcYEVzgogQYB4wDxkHyxwjXB9cH1wfXhyVQTPcDFSYWPrhIHqh5SBoaGtLOlSnQdAIlJSUyouoCGX7hsEZCRTGNl1S9px88B3kO7hsDngSKpt9KOBMCEIAABCAAAQhAAALhI6DixJBhVbLViZjQo0OHn0injh2kY8f25ld/fu3PzufKV6NRNmzYJOs3bJSNG181FbZ22C5ZVAPf7PByNgQCSwCBIrCuwTAIQAACEIAABCDgLwGSZPrDU1+eu3TrZaImSpo3l+nTb5VezjIEjtwRWOksnxk//jpp2LNHNJpi7QsrESlyh5uaIVAwAggUBUNPwxCAAAQgAAEIQCC/BEiSmT1vd+REq1YVsmDeHGnZsrxRxbPnzJMljzwm/3zgP8m9986VHx77H9k3TA2yY8dOGXnpGNm2rZ5ICsYDBEJKAIEipI6lWxCAAAQgAAEIQAAC/hO4a/Y9MnvOXBM5sWJ5rREn/vrXv8rXX38tBx98sBx44IFyeu9+zq/9V8lzz9VJy/JyGTPmUmPIW2+/Iz86/jj/jYpQjSpS9Ok7wERSjB1zmVwx9vII9Z6uQiD8BBAowu9jeggBCEAAAhCAAAQg4AMB99KOeXNnx5Z1TJk6TT799FMjTnz1VYMc9L2DZOotN8knn3wi519wkclLsXzFs9KuXVuZeed0KS8r88Ga6FbxxNInZcLEapZ6RHcI0PMQE0CgCLFz6RoEIAABCEAAAhCAgH8EapzdOqbcOs0kxHxk8YOm4gX3/kpKnZwIgwef4yR0fFUOPbTE7H6nCR4PPeQQKStrIb/5zX/J6aefZsqf2W+QPL3sCf+MimhNulxJE2dOu32KDBrYP6IU6DYEwkcAgSJ8PqVHEIAABCAAAQhAICEBkmRmNzBGjhojq1av2W9pwaLFj8geZ4nHqEsulrffeddJmnmns1eeyEcfbTe5EmbPukPuu79GVODQBI/33z+PvBTZuULsUpuePbrLgvlzsqyN0yEAgaAQQKAIiiewAwIQgAAEIAABCOSYAEkyswPcpVul7Ny5SxY721zqlqL2GD32Srly3Bj55ps/yy9/OUvucxJj7t271+RJ+OjD7XLzLbfK3/72N/JSZIe/0dm69ehQZ5tXFYBWPL3Ux5qpCgIQKCQBBIpC0qdtCEAAAhCAAAQgAIGiIfDvx/6nsfX1za+YLS7vmXuvLFv2tBxzzDEyf95sqRoxUmbNnCGHHFIqmpdCc1BoXoodO3eayIlZd84wnw06e6jJR/HCi2vJS9FE72s+kLbtTjJnf/D+u02shdMgAIGgEfAkUNTX15u1dOkOyiUmBBe4KAHGAeOAcZD8KcL1wfXB9cH1YQkE+X5gBQr7Qtzt1NOkunqiSYL52WefyY03TZEHa+6T+QvudwSMEhky+Fzf8lJoREazZs3STcdN5EZUysX7IxWcII8r7n/c/4rh/pevcepJoEh7J6QABCAAAQhAAAIQgAAEQk4g/oX49N5nybHH/rucP2yItG37Y2lz3Iny3ra3DIWHHl4s3/z5zynzUmh0xcRJ18vVV18hhx92WMjp+d+9TAQK/1unRghAIBcEEChyQZU6IQABCEAAAhCAQAAJkCQzO6fEvxBv3/47eem3r8j0GXfKW29slMnVN8rxxx0n5513towe4+SluLJxXorvfve7xoA333xbqq+/SZY7uRPu+1WN5tOUiy+qys64CJ6NQBFBp9Pl0BNAoAi9i+kgBCAAAQhAAAIQ2EeAJJnZjYRkL8QzZ80xOSYuGnGh9B9wnnzy6afSquKHsrDm3kZ5KdytP/Ob5+Tdd7bIiKoLRHcH0TwV9y64R378o+OzMzJCZyNQRMjZdDUyBBAoIuNqOgoBCEAAAhCAAAQgkA2BRC/Ef/nLX+SkU7rJi8+vFI2Q0GUfifJSxLf7wQcfym3T7pD7nR0/vvjiSydvxX3m/KuvuiIbEyN1LgJFpNxNZyNCAIEiIo6mmxCAAAQgAAEIQAAC2RFI9EK829mVY8jQ4fL86ueM4LDsqRXSoUO7hHkp3K2vXvO8PProE86WpPfInLvnyapVa6R//34y/MJh2RkZobMRKCLkbLoaGQIIFJFxNR2FAAQgAAEIQAACEMiGQLIX4o8//r1McJJdTr99iiM0rJYH/v/27i1IiuoM4PjHVKlllW6MD8IiUQGrBpVEYEMw0QVLLiZeIIqKCCoIugjIJQqIIAhCJYhV3GS5yizIJSDgDTGKGANaiYlCTGJ0UBJUdtcnL4tK5WXInNYz1TP07HRP9/R09/znRXan+1x+3+mePZ+nzzRslC+/+EL++Y+3s/alMNddd+8EuXXITcb+Ew0bNsotNw+WX/1ygLRpo37Dy44ACQo7ShyDQLgESFCEK160FgEEEEAAAQQQKFqATTKLpjNObG1CfOzY1+l9KM4wjhuaXlHxv/SjHwOu7id1d4+SKVMfkk6dOkrbtufIV199JStWrJbFixZKTU0PeWDKdBk1aoR073apu8ZV4NkkKCow6HQ58gIkKCIfYjqIAAIIIIAAAgh8J8Amme5Ggt0J8X+PHJGBg26WN/fvNfaVOP3002XLlq1y4OC70tLSkv5q0gvlgfsnGY3Zt/8NSSSeksS6Ve4aV4Fn241HBdLQZQRCK0CCIrSho+EIIIAAAggggAACfgrYnRDn7kvx7bfHZXB6f4lu3X5iNHfHjmfl6e07pUuXuNw29BaZ/tAs2bypQU477TQ/uxP6uuzGI/QdpQMIVJCArQRFMpmUeDxekIXjrIlwwUUJMA4YB4yD/B8jXB9cH1wfXB9aIMj3AycT4iNHPpbpM2Yb+1L8/d13JZHel2L+o7Pl0KGPZPPvt8mMh6bK/v1vpr/B48v0v6cV/Ds7lUpJLBbjOJOAk3gEeVxx/+P+F4b7n1/j1FaCouCdkAMQQAABBBBAAAEEEIi4gJMJsaLI3ZeiXbtzpLn5M+nUsaPMn/eIsSHm559/IWef/cOIy5Wme07jUZpWUCoCCHgpQILCS03KQgABBBBAAAEEAizAJpnuguNmQtzU3Cw7dz4n/3rv39Kzpia9Mead7hrD2a1uWgoPAgiEU4AERTjjRqsRQAABBBBAAAHHAmyS6Zgs6wQ3CQp3NXO2lQDxYFwgED0BEhTRiyk9QgABBBBAAAEEECiBABPiEqC6KJJ4uMDjVAQCKkCCIqCBoVkIIIAAAggggAACwRJgQkw8giVAaxCIngAJiujFlB4hgAACCCCAAAIIlECABEUJUF0USTxc4HEqAgEVIEER0MDQLAQQQAABBBBAwGsBNsl0J+rXhFjXk9va/ftelfbV1a12Qm3GWdu7n2zbulGqq9ud9G87ZdhReufAQbllyHDxqjw7deYe41c8imkb5yCAQHECJCiKc+MsBBBAAAEEEEAgdAJskukuZH5NiFU9ixctlOuvuybT4Fmz58qnnzZKYt0qEhTfC/gVD3ejhrMRQMCJAAkKJ1ociwACCCCAAAIIIFCxAn5NiK0SFHrFwuEP38v4m1daqBUTNT26S6EVFMNuGyKbNm81yjAnQV7YtVsmTZ6SKVsdN3fOLMu6VBtyV1CMvKtOPvn0U9m7Z7dv48OvePjWISpCAAGxlaBIJpMSj8cLcnGcNREuuCgBxgHjgHGQ/2OE64Prg+uD60MLBPl+4GRCnEqlJBaLFfz72eo4qwTFw7PmyNGjTZkVFH37XyM333SjjKkbLTq5oB63UOX1uXJA3kc8etdeYZTx9jsHZMitt2ce0VB16iSHubx2bdtK/6uvk0kTxxsrOlauWitNTU0yaND1mUc8Vq5cIydOnJBH584uqr9WJ9nxcxKPII8r7n/c/8Jw//NrnNpKUBS803AAAggggAACCCCAAAIRF3AyIXZDkW8PCr16Qq+SMO//oBIWKolQU9O91T0odBJCtU+teujVq6cMHHht1t4W5vKbmz8zEhHmlRvqff17tdJCvcyrLdz03cm5fsXDSZs4FgEE3AmQoHDnx9kIIIAAAggggEBoBNgk012o/JoQm1dQ6GSB+XEMq8c9zMkGu5tk6nPUKgy1MmLh44uygFQCxCpBoQ7SbdCPjJgTGO6U7Z/tVzzst4gjEUDArQAJCreCnI8AAggggAACCIREgE0y3QXKrwlx7iMe5kcu1Ld4eLWCQq+6aN++OusbOQqtoDAnKFQS4/nnXzQe+/B7FYVf8XA3ajgbAQScCJCgcKLFsQgggAACCCCAAAKRE1iydLk0NjbJhPvGSocO5+btn18TYqs9KNRqB/XS3+KRbw8KdUxrKyj05pfmTS5zV0mouvbtf8Nyfwq10uLp7TvlsQXzs5Ia5j0s/BogfsXDr/5QDwIIiL1NMoFCAAEEEEAAAQQQQCCqAipBsXRZvdG9wTf+Om+iwq8JsVWCQq9qmPLAZGNjTPVy+y0euftRqKSEeqnHSRYveSKzMaauW8ff6ls89CoPPx/18CseUR339AuBIAqwgiKIUaFNCCCAAAIIIIBAiQRaWlqMkquqqkpUQziLPXq0UVSiYuczz+VNVDAhDlZsiUew4kFrEPBCgASFF4qUgQACCCCAAAIIhESg95X9jZbue31PSFrsbzNbS1QwIfY3FoVqIx6FhHgfgfAJkKAIX8xoMQIIIIAAAgggULTAo/N+a5z78MzpRZdRCSdaJSq273hG2rRpk/WVm5VgEdQ+kqAIamRoFwLFC5CgKN6OMxFAAAEEEEAAgdALJBIbZEl6/4Vdz+/IbBDJ79KbUX7vsmbVctn29I7Mox8q4MswRFsAAA1rSURBVH7usxD6AVbCDpCgKCEuRSNQJgFbCYpkMinxeLxgEznOmggXXJQA44BxwDjI/zHC9cH1wfVRvuvDmIin917Y9cLOrATFosXLZPeLz2YnLSrwuDWr641vrdix89lMkOwkKFKplMRisYJ/P3OcNZEdFycJCj5n+Jzhc6Z8nzP5ara6Lm0lKAreWTkAAQQQQAABBBBAAIEICahHPNQ3e+jExI03DDL+zSMewQmykwRFcFpNSxBAoDUBEhSMDwQQQAABBBBAAAEEvhewSkxMnDDOWElSzITY6itD3zlwUG4ZMrxsj4p43SZVnvkrS60GUyn6XEw8GOgIIBBsARIUwY4PrUMAAQQQQAABBBDwQaC1xISuvpgJsdfJAC8ovG4TCQovokIZCCCgBEhQMA4QQAABBBBAAAEEKlpA7cGhHudQL/Uoh14xkYtSqgTFylVrZeHjizLVLV60UK6/7prMz7pe9Yv9+16V9tXVolck9K69Qvbtf8NYjVGoHHOiJbcO8wqHpuZmqe3dT6Y8MDnTLvPx+n1V3rDbhsimzVszKyhe2LVbJk2ekmm7en/unFmZ1ScXXHC+7N2z23jfql9OBmIx8XBSPscigID/AiQo/DenRgQQQAABBBBAAIEACagEhVpBkS8xYZ7Yq3/b2STTaTJAl6kn//rnvv2vkZtvulHG1I0WPflX7+mEgk4c5J6X+7OZu9AKCn2uSn4k1q3K1KWTI1Zt0o94mFdT6Paq85qbP8t6rCVfv5wMCxIUTrQ4FoFwCJCgCEecaCUCCCCAAAIIIIBAmQWKmRDbTQboyb+5i1b7NqiJ/aSJ46V9+2pjwq/P00kFq3Jy2ey2ybyvxMi76qRXr54ycOC1xuoKcz06KVFd3c5Y3aFf5jaZExSt9cu8cqRQuIuJR6EyeR8BBMorQIKivP7UjgACCCCAAAIIIBASgWImxDqhYJ54507Q9c+aQa+KyP29fl89etGzZ01WgkK9l6+cXN5CbbJKdugEha7XvIpElffYgvlS06P7SY+ZqLpzV1C01i+1UsTuq5h42C2b4xBAoDwCJCjK406tCCCAAAIIIIAAAiETKGZCbJUMUI8+LF7yRGYvBjND7qqDqdNmWB6nJ/n5Vky0tqKiUJv0ueYVFPqcmprueVdQqH7kW9WRu4IiX7+cDIli4uGkfI5FAAH/BUhQ+G9OjQgggAACCCCAAAIhFChmQqw3rsxdcWDeV8KcrLDag0I90qFWYOikhEoc5CYDcpMere1BUahN+ly9wWVuMkQlKy7/xWXG5pd6nwlzm3Rf1aoLtYFnvj0orPqlVmHYfRUTD7tlcxwCCJRHwFaCIplMSjweL9hCjrMmwgUXJcA4YBwwDvJ/jHB9cH1wfXB9aIEg3w+cTIhTqZTEYjGjW7NmzzW+6UK/9MRf/ayOe2TOvKz3zSsX1DHmb7vIffzDvIIit57ccsyj7OFZc2Tzlm2WbTInKHS787VJbaSpXuPG1clPa3qITkqo36m2quSLTkTk+ln1SzfI7Jfv6nASjyCPK+5/3P/CcP/za5zaSlDkHzK8gwACCCCAAAIIIIBAZQg4mRCHWcTJhpvl7GelxKOcxtSNgN8CJCj8Fqc+BBBAAAEEEEAAgVAKVMqEmARFKIcnjUYgEgIkKCIRRjqBAAIIIIAAAgggUGqBSklQlNrRq/KJh1eSlINAcARIUAQnFrQEAQQQQAABBBBAIMACTIiDFRziEax40BoEvBAgQeGFImUggAACCCCAAAIIRF6ACXGwQkw8ghUPWoOAFwIkKLxQpAwEEEAAAQQQQACByAswIQ5WiIlHsOJBaxDwQoAEhReKlIEAAggggAACCCAQeQEmxMEKMfEIVjxoDQJeCJCg8EKRMhBAAAEEEEAAAQQiL8CEOFghJh7BigetQcALARIUXihSBgIIIIAAAggggEDkBZgQByvExCNY8aA1CHghYCtBkUwmJR6PF6yP46yJcMFFCTAOGAeMg/wfI1wfXB9cH1wfWiDI9wMnE+JUKiWxWKzg388cZ01kx8VJPII8rrj/cf8Lw/3Pr3FqK0FR8M7KAQgggAACCCCAAAIIRFzAyYTYS4qPP/lEzj/vPMsiPzp8WC7s3NnL6kJTVrniERogGopACAVIUIQwaDQZAQQQQAABBBBAwH+BckyI12/YJEuXLZc7bh8mEyeMy+p0/YpVkmh4SoYPG3rSe/7r+F9jOeLhfy+pEYHKEiBBUVnxprcIIIAAAggggAACRQr4OSE+ceKEjLyrTjp16ihnnfUDUT/rBEVjY5PcO26C9OldK6ecckrWe0V2LZSn+RmPUALRaARCKECCIoRBo8kIIIAAAggggAAC/gv4NSF+/fV9MvqesbLuyZXSu/aK9AqK+kwSYl1ivTSs3yj1y5dI10suznrPf5Hy1uhXPMrbS2pHoLIESFBUVrzpLQIIIIAAAggggECRAn5MiGfNflSamppk7ZoVmVaqBMU333wrBw4elG7dLpUZ06dmvWdeXVFk10J5mh/xCCUMjUYgxAIkKEIcPJqOAAIIIIAAAggg4J9AKSfEhw59KPeMGS+jR40w9pQwv35z/1R5+ZXXZMP6NVLTo3vWe+bVFf5JBKOmUsYjGD2kFQhUngAJisqLOT1GAAEEEEAAAQQQKEKglBPizZu3yksvvyJPrX/ypJbdP2W6vPTSy7I+sUZ69qwhQfG9QCnjUcTw4BQEEPBAgASFB4gUgQACCCCAAAIIIBB9gVJPiF/74+tSN+a+9OMd9cYGmPqlVkkcP35cDh58V7p2vVhmzngw6z0e8Xgv+oOPHiJQIQIkKCok0HQTAQQQQAABBBBAwJ1AqRMUqnWpVEpG3z1WfnReB5kze6bRYPNjHA3prxV9ct16qa9fIj/uegmbZKZ9Dn9IgsLdyOZsBIIjYCtBkUwmJR6PF2w1x1kT4YKLEmAcMA4YB/k/Rrg+uD64Prg+tECQ7wc6QXHwnT9LVVVVq38bq0RDLBYr+PdzvuM2btwia55MyNrV9fLSH14xEheTJo43ymtqapZ7x06Q2trL5dRTT836mlG39eY2OKjltbS0SPeanxvNtZOgCPK44v7H/S8M9z+/xqmtBEXBOysHIIAAAggggAACCCAQcYHaPv2M5MCmjQm5rNfPSt7bxsYmGXX3vdK27TnSo3s3mThhXFad9StWSyKxQYYPH3rSeyVvXJkr+Mtbf5Vhw0dKly5xefGFnWVuDdUjgIBXAiQovJKkHAQQQAABBBBAAIFIC6j9IV7d+5pMuG+srwmBKdNmyJ13DJOul1x8ku/hw/+Rzp07RdrdqnNLli43Hm/p1/cqWbVyWcX1nw4jEFUBEhRRjSz9QgABBBBAAAEEEPBUYPuOZ2TagzOlV6+esnljg6dlU5gzgduGj5C33vqbLPjdPLlp8A3OTuZoBBAIrAAJisCGhoYhgAACCCCAAAIIBElA7XvQu09/Ofb117KifqkM6N83SM2rmLboRNGZZ5wh+/60p+B+IBUDQ0cRiIAACYoIBJEuIIAAAggggAACCPgjoB8tOPPMM2XX8zukQ4dz/amYWgyBo0cb5bqBg+XYsWO+P2pDCBBAoPQCJChKb0wNCCCAAAIIIIAAAhERUKsohg4bIR98kJSLLuoiK9MrKUhS+BNclZwYk/72kvff/8DYHHPLpgZWT/hDTy0I+CZAgsI3aipCAAEEEEAAAQQQiIKA+VEPtZLisQXzedyjxIFVj3XMm7/AWDnBox0lxqZ4BMooQIKijPhUjQACCCCAAAIIIBBOAfNKCtUDtXGm+upR9d+L0v93v6qqKpwdC0irle/76VUqaiNM9ZWi6r/qxcqJgASIZiBQIgESFCWCpVgEEEAAAQQQQACBaAuoSXSi4SlJJDYYG2fyKp2AWjUxcuQdMnLE7SR/SsdMyQiUXcBWgiKZTEo8Hi/YWI6zJsIFFyXAOGAcMA7yf4xwfXB9cH1wfWiBMN4PVKLilT17Zc+e1+RoY6OxPwUv9wJqtUSHc8+V/v2vMh6hsVqVEsbxYiVDP/gc5HPwuzFgK0Hh/vZCCQgggAACCCCAAAIIIIAAAggggEB+ARIUjA4EEEAAAQQQQAABBBBAAAEEECi7AAmKsoeABiCAAAIIIIAAAggggAACCCCAAAkKxgACCCCAAAIIIIAAAggggAACCJRdgARF2UNAAxBAAAEEEEAAAQQQQAABBBBAgAQFYwABBBBAAAEEEEAAAQQQQAABBMouQIKi7CGgAQgggAACCCCAAAIIIIAAAgggQIKCMYAAAggggAACCCCAAAIIIIAAAmUXIEFR9hDQAAQQQAABBBBAAAEEEEAAAQQQsJWgSCaTEo/HC2pxnDURLrgoAcYB44BxkP9jhOuD64Prg+tDC3A/4H7A/YD7AfeD1qfeUb5P2kpQFMxMcAACCCCAAAIIIIAAAggggAACCCDgQoAEhQs8TkUAAQQQQAABBBBAAAEEEEAAAW8ESFB440gpCCCAAAIIIIAAAggggAACCCDgQoAEhQs8TkUAAQQQQAABBBBAAAEEEEAAAW8ESFB440gpCCCAAAIIIIAAAggggAACCCDgQuD/52TFIy6GLHUAAAAASUVORK5CYII=;" vertex="1" parent="1">
          <mxGeometry x="4700" y="489" width="1064" height="667" as="geometry" />
        </mxCell>
        <mxCell id="WF0BPh4e2S1r3RLNXFHs-202" value="" style="shape=image;verticalLabelPosition=bottom;labelBackgroundColor=default;verticalAlign=top;aspect=fixed;imageAspect=0;image=data:image/png,iVBORw0KGgoAAAANSUhEUgAAA2wAAAHBCAYAAAAVcThIAAAgAElEQVR4XuzdCXhV1bn4/1een7VWEnt776OSYGttvQSqrYgQey2DQmhFERnUMggJDiAK4sAchyqogBWEyuCUgIDVSpTBoQSQwbYCzhOotbWWBNtbrRJq2/tv8b/fbdfpyck+OdM+Z0/ffZ/7SJO91/BZa+9z3qy11zrkM+sQDgQQQAABBBBAAAEEEEAAAd8JHELA5rs2oUAIIIAAAggggAACCCCAgC1AwEZHQAABBBBAAAEEEEAAAQR8KpA0YHvrrbekQ4cOKYvNec5EuOCiAvQD+gH9IPnHCPcH9wf3B/eHEeB5wPOA50Hy5wEjbClDUk5AAAEEEEAAAQQQQAABBLwRIGDzxp1cEUAAAQQQQAABBBBAAIGUAgRsKYk4AQEEEEAAAQQQQAABBBDwRoCAzRt3ckUAAQQQQAABBBBAAAEEUgoQsKUk4gQEEEAAAQQQQAABBBBAwBsBAjZv3MkVAQQQQAABBBBAAAEEEEgpQMCWkogTEEAAAQQQQAABBBBAAAFvBAjYvHEnVwQQQAABBBBAAAEEEEAgpQABW0oiTkAAAQQQQAABBBBAAAEEvBFIGrCx47xzg+CCiwrQD+gH9IPkH1rcH9wf3B/cH0aA5wHPA54HuT8PGGHzJlAmVwQQQAABBBBAAAEEEEAgpQABW0oiTkAAAQQQQAABBBBAAAEEvBEgYPPGnVwRQAABBBBAAAEEEEAAgZQCBGwpiTgBAQQQQAABBBBAAAEEEPBGgIDNG3dyRQABBBBAAAEEEEAAAQRSChCwpSTiBAQQQAABBBBAAAEEEEDAGwECNm/cyRUBBBBAAAEEEEAAAQQQSClAwJaSiBMQQAABBBBAAAEEEEAAAW8ECNi8cSdXBBBAAAEEEEAAAQQQQCClQNKAjZ3pne1wwUUF6Af0A/pB8s8X7g/uD+4P7g8jwPOA5wHPg9yfB4ywpYxpOQEBBBBAAAEEEEAAAQQQ8EaAgM0bd3JFAAEEEEAAAQQQQAABBFIKELClJOIEBBBAAAEEEEAAAQQQQMAbAQI2b9zJFQEEEEAAAQQQQAABBBBIKUDAlpKIExBAAAEEEEAAAQQQQAABbwQI2LxxJ1cEEEAAAQQQQAABBBBAIKUAAVtKIk5AAAEEEEAAAQQQQAABBLwRIGDzxp1cEUAAAQQQQAABBBBAAIGUAgRsKYk4AQEEEEAAAQQQQAABBBDwRiBpwMbO9M4NggsuKkA/oB/QD5J/aHF/cH9wf3B/GAGeBzwPeB7k/jxghM2bQJlcEUAAAQQQQAABBBBAAIGUAgRsKYk4AQEEEEAAAQQQQAABBBDwRoCAzRt3ckUAAQQQQAABBBBAAAEEUgoQsKUk4gQEEEAAAQQQQAABBBBAwBsBAjZv3MkVAQQQQAABBBBAAAEEEEgpQMCWkogTEEAAAQQQQAABBBBAAAFvBAjYvHEnVwQQQAABBBBAAAEEEEAgpQABW0oiTkAAAQQQQAABBBBAAAEEvBEgYPPGnVwRQAABBBBAAAEEEEAAgZQCSQM2dqZ3tsMFFxWgH9AP6AfJP1+4P7g/uD+4P4wAzwOeBzwPcn8eMMKWMqblBAQQQAABBBBAAAEEEEDAGwECNm/cyRUBBBBAAAEEEEAAAQQQSClAwJaSiBMQQAABBBBAAAEEEEAAAW8ECNi8cSdXBBBAAAEEEEAAAQQQQCClAAFbSiJOQAABBBBAAAEEEEAAAQS8ESBg88adXBFAAAEEEEAAAQQQQACBlAIEbCmJOAEBBBBAAAEEEEAAAQQQ8EaAgM0bd3JFAAEEEEAAAQQQQAABBFIKELClJOIEBBBAAAEEEEAAAQQQQMAbgaQBGzvTOzcILrioAP2AfkA/SP6hxf3B/cH9wf1hBHge8DzgeZD784ARNm8CZXJFAAEEEEAAAQQQQAABBFIKELClJOIEBBBAAAEEEEAAAQQQQMAbAQI2b9zJFQEEEEAAAQQQQAABBBBIKUDAlpKIExBAAAEEEEAAAQQQQAABbwQI2LxxJ1cEEEAAAQQQQAABBBBAIKUAAVtKIk5AAAEEEEAAAQQQQAABBLwRIGDzxp1cEUAAAQQQQAABBBBAAIGUAgRsKYk4AQEEEEAAAQQQQAABBBDwRoCAzRt3ckUAAQQQQAABBBBAAAEEUgokDdjYmd7ZDhdcVIB+QD+gHyT/fOH+4P7g/uD+MAI8D3ge8DzI/XnACFvKmJYTEEAAAQQQQAABBBBAAAFvBAjYvHEnVwQQQAABBBBAAAEEEEAgpQABW0oiTkAAAQQQQAABBBBAAAEEvBEgYPPGnVwRQAABBBBAAAEEEEAAgZQCBGwpiTgBAQQQQAABBBBAAAEEEPBGgIDNG3dyRQABBBBAAAEEEEAAAQRSChCwpSTiBAQQQAABBBBAAAEEEEDAGwECNm/cyRUBBBBAAAEEEEAAAQQQSClAwJaSiBMQQAABBBBAAAEEEEAAAW8EkgZs7Ezv3CC44KIC9AP6Af0g+YcW9wf3B/cH94cR4HnA84DnQe7PA0bYvAmUyRUBBBBAAAEEEEAAAQQQSClAwJaSiBMQQAABBBBAAAEEEEAAAW8ECNi8cSdXBBBAAAEEEEAAAQQQQCClAAFbSiJOQAABBBBAAAEEEEAAAQS8ESBg88adXBFAAAEEEEAAAQQQQACBlAIEbCmJOAEBBBBAAAEEEEAAAQQQ8EaAgM0bd3JFAAEEEEAAAQQQQAABBFIKELClJOIEBBBAAAEEEEAAAQQQQMAbAQI2b9zJFQEEEEAAAQQQQAABBBBIKZA0YGNnemc7XHBRAfoB/YB+kPzzhfuD+4P7Izz3x5tv7pEdO3dJ/cZNdqX272+S3bv32P/u2LFMiouL7H9X9Okt5d26SqdOZc0qz/OA5wHPg9yfB4ywpYxpOQEBBBBAAAEEEIiOwN69DbJg4SJ5bsdOaWhozKjipaUl0reit1SOukjaty/N6FpORgABZwECNnoGAggggAACCCCAgDV6tl9ql62Quxbc7YrGVROusAK3EdYoXLEr6ZEIAlEVIGCLastTbwQQQAABBBBA4F8Cj65+TGbOmi1NTU2umhQVFUn1jCkyZPBAV9MlMQSiJEDAFqXWpq4IIIAAAggggECCgE5/TDaqVtS2rZSXd5OKijPtKY7FRcWx99T0/bb9TftFp1DW12+WHdYUyqYDBxx9dbRtwvhx2COAQBYCBGxZoHEJAggggAACCCAQdAGdAqmjaqvrHm9RlZKSdqJBVqYjYzpSp8FfY+O+FmkOHnSePdrGFMmg9xzKX2gBArZCi5MfAggggAACCCDgA4HJU2a0CNZ0RK2qaqQdrOVyaNBWU7O8xYibBm1zZs/KJWmuRSByAgRskWtyKowAAggggAACURfQgEqnQsYfGqytWrmsxdL82VrplMlhw0e1CNp0amSuAWG2ZeI6BIIoQMAWxFajzAgggAACCCCAQJYCOm1xytTqZleXlXWQh1bWuj5dUaddDh1eKXv2vNUsv9m3z8x4umWW1eUyBAIvQMAW+CakAggggAACCCCAQHoCGkD16NW32WqQOrK2bWu968GaKZGdZ8+KZiNtunrkti0b8pZnehqchUAwBJIGbOxM79yAuOCiAvQD+gH9IPmHHPcH9wf3h3/vj8SpkInTIA8ePCht2rRJ+S020/OcpkfGT43kucFzg+dG8tuOEbaUjyROQAABBBBAAAEEgi+gy+/3PKNvs4oU8n0yp/fmtj6zwd4ugAMBBAjY6AMIIIAAAggggECkBSZNni51j62JGejS/du3biyoSfeefZot+T9o4ACZO+fWgpaBzBAImgAjbEFrMcqLAAIIIIAAAghkIdCjV4U0NDTGrvRi4Y/EBU9KS0usd9nqs6gNlyAQHQECtui0NTVFAAEEEEAAgRAKPPLIajmm3THSo/vpSWun75D1HzA49nt9d+3ll3Z4onFy5/JmC5CsW7Pata0EPKkQmSKQZwECtjwDkzwCCCCAAAIIIJBPgZ7Wqo8fffyxHNu+RK6vnibfPa28RXaJ74/16X2mLF2yMJ/FSpr2mLHjZeOmzbHfV0+fYm/WzYEAAs4CBGz0DAQQQAABBBBAIMACZ/Y+S9773ftyiFWH4iOLpV27o1sEbkOtDax37nw+VksvpkOazBOnRXbrdqq1B9yyALcARUcgvwIEbPn1JXUEEEAAAQQQQCCvArGATSM2PT77PHArKTnGDtxOK+9mbV7dPGBbuaLG/rkXx3M7dsrwEVWxrAnYvGgF8gySAAFbkFqLsiKAAAIIIIAAAgkCLQK2uN8XFRdJqbUa5J/+9KH9/+bwcjn9xPfpOnYsk/VrV9OuCCCQRICAja6BAAIIIIAAAqETeGbLNqmre1xefOll+eCDP4SufvEV+swaUdPjEDPC5lDbz3TYTc+xJ06KvPvOG56afOOEbzXL3+vyeIpB5gikEEgasLHjvLMcLrioAP2AfkA/SP7pwv3B/eHl/fHiiy/KA7Ur5Kmnfh6ZL4GZBGwmaEsWIB08eFDatGmT0i7X8xIDtifX10mHDh1S5svzheeLl88Xr/ofI2wpHw2cgAACCCCAAAJBEbh83ATZUL9J2rY9Qm66sVp69uguX/nKfwSl+FmVM9WUyPalpfLHP/5RPvzwo1j6fpoSWVbWQZ5YV5dV3bkIgSgIELBFoZWpIwIIIIAAAhEQWLNmvVxz3RQ7WFvz2M/kuOO+FoFaiyQGbDr9saioyFrmv7216MhUKe/WlUVHItETqGRYBQjYwtqy1AsBBBBAAIGICVxy2Th55pmtMvu2mTJkyMDI1N4EbHLI54HaV9sfawdquvqiOVjWPzLdgYqGUICALYSNSpUQQAABBBCIokC38u7y4Ucfya4dz4Z+GmR8++rG2R9+/Gf5+le/1iJQM+fV1CyXmbfOjl3GxtlRvEOoc1AFCNiC2nKUGwEEEEAAAQSaCZiFLKK24mBd3Ro5+uij5fTTT0vaIxKX0teRuJdffM6THnTyKadJU1NTLO91a1ZLp05lnpSFTBEIggABWxBaiTIigAACCCCAQEqBqAZsKWH+dUL3nn2ksXFf7PTZt1tTRwcXduroo6sfkylTq2NlKLH2iNu+dWO6VeA8BCIpQMAWyWan0ggggAACCIRPgICt9TadNHm61D22JnZSaWmJbNtSX9CO0KNXhTQ0NMbyrBw1wprGOa2gZSAzBIImQMAWtBajvAgggAACCCDgKEDA1nrH2Lu3QXqe0bfZSRPGj5OrJlxRkB5114K7ZcHCRc3y8nJ7gYJUmkwQcEGAgM0FRJJAAAEEEEAAAe8FCNhSt0Fi0KTvsq1aUZv3d8j0HbphIyqbvbtWyGAxtQxnIOBfgaQBm1c7eZOvc2fBBRcVoB/QD+gHyT9QuT+4PzIJ2KLaX/bv3y89elZI04EDsQ6jQdu2LRukuLhYDh48KG3atEn5zTWT8w5YefWwVrKMX2ikqG1b2ba13s6T5xrPNSMQ1fsy1Q3HCFsqIX6PAAIIIIAAAoEQyCRgC0SF8lTIxIU/NJuOHcuskbaaWADlVtYaIA4bUSW7d+9plqQXC564VSfSQaDQAgRshRYnPwQQQAABBBDIiwABW/qsTu+TuT090mkapJaQqZDptxNnIqACBGz0AwQQQAABBBAIhQABW2bNmLhqpF6tQdvoqpF2UJXLoYuLPGBt1h0/DVLTGzRwgMydc2suSXMtApETIGCLXJNTYQQQQAABBMIpQMCWWbvqdMVbZt7ebKl/k4Iu+a+rRw4edF5Gia6ue1x09C5+6X6TgAZr11dPdX3aZUYF5GQEAihAwBbARqPICCCAAAIIINBSgIAtu17hND3SpKQjbqeVd5WKit7Svn2pFLUtiq0oqVMemw40iW4XUF+/SZ7bsavFiJpJh2mQ2bUNVyGgAgRs9AMEEEAAAQQQCIUAAVv2zagLkcy0RtviV4/MPrV/X6mrQVZbo2pDBg90IznSQCCSAgRskWx2Ko0AAggggED4BAjYcmtTnSJZU/tgi82ts01VR9WqKi9iCmS2gFyHwL8ECNjoCggggAACCCAQCgECNneaUac46jTJ53bslMbGfRklWlLSTvpa0yerKkfaUyg5EEAgdwECttwNSQEBBBBAAAEEfCBAwOZ+I+h7ajuswG3Dxk124vv3N8mePW/Z/y4r62CNnhXZ/+7bp7eUl3eLvd/mfklIEYHoCiQN2Nhp3LlT4IKLCtAP6Af0g+QfnNwf3B9e3R+ZBGz0U/qpV/2UfPn8MALpPocYYYtusE7NEUAAAQQQCJVAJgFbqCpOZRBAINQCBGyhbl4qhwACCCCAQHQECNii09bUFIEoCRCwRam1qSsCCCCAAAIhFiBgC3HjUjUEIixAwBbhxqfqCCCAAAIIhEmAgC1MrUldEEDACBCw0RcQQAABBBBAIBQCBGyhaEYqgQACCQIEbHQJBBBAAAEEEAiFAAFbKJqRSiCAAAEbfQABBBBAAAEEwihAwObcqsZFfzt/3lzpf06/vDf/kqX3Wfu37ZKaB5amlZeW8ZGHV0iXUzqndT4nIRAlAUbYotTa1BUBBBBAAIEQCxCwtWxcNZl03dUydswl9i8LFRgRsIX4RqNqBRcgYCs4ORkigAACCCCAQD4ECNiaq65b/6TMv+snsqn+ydgvXnjxJWnX7hgpaddObrjxZlm56uHY79595w3R30+eMsP+2Xvv/U6OO+5rses1CJt7xzz7dz26fy82ehb/8+HDLpSbf3SDxAdsTr/XNKpGj5Ft25+109L/MsKWj7uCNMMgkDRgS3fnbc5z7ga44KIC9AP6Af0g+Ucl9wf3h9v3RyYBWxT6nwZkemgA5VRfDejM9Egz8vb+++/LdZOm28GTBnbde/Sx/63HBReOkO3bNtrBXveefWTypGukpKSdHeCZoLB3RT+ZM3uW7Nr1gj0l8txz+8lP7l7a4veNjftiwaQGiZp2OgFbFNot/slAfXlOqgAjbGEIu6kDAggggAACCNjT/fTQkSIOsUe5Ghsb7YAt2WFGufT38YGZMTSBnAnA4t9Ja9y3T9aufSI26mby0CmYemjAVl7e1fH3Wi4TTOp/TaDHO2z0XARaChCw0SsQQAABBBBAIBQCBGzNm9FpSqT+bNeu52Xs2Evt0TPzfpsJmDQFHe1KJ2DTc5O9q2Z+rgGb0+Ij8aN/BGyhuP2oRB4FCNjyiEvSCCCAAAIIIFA4AQK2ltbJFh2JD8zipyQmC9jMz82USB2ZO/bYUuna9VSZePWk2FRJzU9XomxoaLQDtUGDBjj+XtPT68x7c+lOiSxcbyInBPwjQMDmn7agJAgggAACCCCQgwABW0s8nbaoI2nmiF/WX0fVdGERXfRDDx0N69q1i+MIm05V1NE5DbL0iF+MJH7xEqdFR5x+r2mw6EgOnZ1LIyVAwBap5qayCCCAAAIIhFeAgC28bUvNEIiyAAFblFufuiOAAAIIIBAiAQK2EDUmVUEAgZgAARudAQEEEEAAAQRCIUDAFopmpBIIIJAgQMBGl0AAAQQQQACBUAgQsIWiGakEAggQsNEHEEAAAQQQQCCMAgRsYWxV6oQAAklH2NhZ3blz4IKLCtAP6Af0g+QfoNwf3B9e3R+ZBGz0U/qpV/2UfPn8MALpPoeYEknQjgACCCCAAAKhEMgkYAtFhakEAghEQoCALRLNTCURQAABBBAIvwABW/jbmBoiEEUBArYotjp1RgABBBBAIIQCBGwhbFSqhAACQsBGJ0AAAQQQQACBUAgQsIWiGakEAggkCBCw0SUQQAABBBBAIBQCBGyhaEYqgQACBGz0AQQQQAABBBAIowABWxhblTohgAAjbPQBBBBAAAEEEAiFAAFbKJqRSiCAACNs9AEEEEAAAQQQCKMAAVsYW5U6IYAAI2z0AQQQQAABBBAIhQABWyiakUoggEC6I2zp7rzNec59ChdcVIB+QD+gHyT/3OX+4P5w+/7IJGCj/9H/3O5/pMfz3gi4/XxhhI0YHgEEEEAAAQRCIZBJwBaKClMJBBCIhAABWySamUoigAACCCAQfgECtvC3MTVEIIoCBGxRbHXqjAACCCCAQAgFCNhC2KhUCQEEhICNToAAAggggAACoRAgYAtFM1IJBBBIECBgo0sggAACCCCAQCgECNhC0YxUAgEECNjoAwgggAACCCAQRgECtjC2KnVCAAFG2OgDCCCAAAIIIBAKAQK2UDQjlUAAAUbY6AMIIIAAAgggEEYBArYwtip1QgABRtjoAwgggAACCCAQCgECtlA0I5VAAIF0R9jc3qGb9Jz7Hi64qAD9gH5AP0j++cz9wf2R7v2RScBGv6JfpduvOI/nsxHw6rnBCBsxPAIIIIAAAggEUuDNN/fIjp27pKmpSfbubZDVdY/b9Rg86Dxp375UioqKpLxbV+nUqSyQ9aPQCCCAgAoQsNEPEEAAAQQQQCAwAs/t2Cl1dWtE/9vQ0Bgrd0lJOztwk0MOkaK2baWxcV/sd6WlJdK3orf06XOmnFbeLTB1paAIIIAAARt9AAEEEEAAAQQCIaAjaDNn3S71GzfbAVm5FXhVVJxpB2LFxcWOddi/f79sqN8k9fWbZYcV4DUdOGCPvk0YP84egeNAAAEEgiDACFsQWokyIoAAAgggEGEBDdRqah+0A7WqqpFSVXmRHaRpQKYBnI60aUC3t6HBVmpfWmoHZDqyVmGNqplzNY2amuV24KZpVM+YGmFVqo4AAkERIGALSktRTgQQQAABBCImoAHZ5Ckz7KCsctQIuWrCFXbw9ejqx6TusTXWqNmumIhOiTSjZhq8xU+JLC/vao+s6f9rmnctuFtql62wg7k5s2clHaGLGDfVRQABnwoQsPm0YSgWAggggAACURbQwGrYiCrZvXuPzL59pgwZPNB+b23mrNn2zzRA059V9OmddFERXZSkfuMmO8DTAK5jxzJrVG2K/R6b/mzK1Gr7Z0sWLWCKZJQ7G3VHwOcCBGw+byCKhwACCCCAQNQETLC29/d7ZdXKZXZApqNiCxYusgM1HWnTYC2TQwM0TUMDN71e32PTgG7Y8FHS/tj2smpFDSNtmYByLgIIFEyAgK1g1GSEAAIIIIAAAukIjL18vD0Nct2a1dbIV4k9qqZL9g8aOEDmzrk1nSSSnjNp8nR7OqVOj9TRtr17G2NB2/q1q3NKm4sRQACBfAgQsOVDlTQRQAABBBBAICuBW2beZr9fZqZBmgCrevoUe8GRXI++P+gvRx91lPzyV8/ZQZu+w2amR+qom46+cSCAAAJ+EkgasHm1kzf5OncPXHBRAfoB/YB+kPwjlPsj+PeHLhbS84y+9gIj11dPi02DdArW/v5//yevvfq6nHTSt+Swww5L67vVq6++JhcOHSlPP7VGNm/aIjNvnS0mbRMo6qhe/Ebb9Kvg96vWOgftS/sG4XOVEba0HvGchAACCCCAAAL5FtCpkM89t1O2ba2XN62FRYZbi44kmwb51ltvS+Xoy+T7ffvITTdWp1W0YcMr5Z1f/1p27XjWPt+M3q203l/rZC0+0qNnhXT6VkfrfbbatNLjJAQQQKAQAgRshVAmDwQQQAABBBBoVUBXgNQAzUxLPLv/IHsJ/u1bNzpe96ObZ8lxxx0nL7zwovS1grZzzj6r1fRffvlVmXjNJOnW9VR7GqQ5uvfsI0ceeaTo+2vJRtloOgQQQMBLAQI2L/XJGwEEEEAAAQRsAR3tqq/fZI+ubbD+q0vum/fYnIg6nXiKvPj8L+WLX/yifPf0XvJ43SNy9NFHJdWsrLpM/vGP/0+GDBkk5w3oHzvPvL+mo2y64bZOyXRjcROaFQEEEHBLgIDNLUnSQQABBBBAAIGsBXr0qpCOZWWydMlC0dE1PZ5YV+eY3pq162XLlm0y78459u/ff//3MrLyEtmy+eeO57/40sty661zpKGx0TGw01G2Y+2l/WtlzNjxsmPnLnn5xeeyrgsXIoAAAm4KELC5qUlaCCCAAAIIIJCxgO6H1n/AYHtErW9Fb+nc5buxqZFOiem7aBMmjLM3wDaHLvuv7785LfuvwVz/c/rJ0nvul40bnmiRpNnjbeszG+x35y4fN8HeUiB+8ZGMK8UFCCCAgEsCBGwuQZIMAggggAACCGQnUFOz3F6x8aUXfhWbDpksYPrd++9LZeVl8szmp1tkNnXa9XLKKSfLBecPjv1O33G7fc6d1jTIc2TPnrfllptvaHGdCRgXL1pgbZ5dZL9L59Y2AtmJcBUCCCDwbwECNnoDAggggAACCHgqYEa43n3njdhS/vpvp2O2FXx9+cvFMuaySxx/37uin9x3zyL5+tePs38/YuRoGTf2Mlm56qdyjjXKdtYP+jpe940TvhUb1Yv/t6cwZI4AAghYAgRsdAMEEEAAAQQQ8FRAFxzRVSJ1Rcj4fzsVqkvX/7GmNT4p//EfX7Z/3e+cgTJ/3lz57xO+af/vDz/8UH7Q7zxr6f7tsmvXC3LHnfPl4YcelFNO/a5s3vi0Fewd6VjXkzuXS7k1xVLfodOArU/vM+1/cyCAAAJeCxCwed0C5I9AjgK67HX9xs326mr67kVDQ2OOKXK5CpSWltj7MlVY79NU9DnTmiZVDAwCkRMo1PPlM/lMyrt1lYdWLpOhw0fZzvrvxGPDho1S9/haWWJNXdTjwqEXyXXXTJSrr5ksjzyyQkratbN//vTTG2Tt+iflk48/kSuvHCtftpbtv84KCpMtYqLXxOer/9aFRw6x/i8fB8+XfKiSJgLhFUgasLHzu3Oj44KLCvihH+gXqdplK+QB692Ppqam8D6lfFCzoqIiGV01UipHjWgWuPmhH7TGQ/l4XmX7vCr08yXdgG30JWNl5Ihh0qtXD7njx/PlS1/6koy7/DL5+//9n5x8cjfZ/ebLsUafO3ee7LE2177/vsXWc3KZNDZ+INUzpiS9ZQoZsMUXgufL5xo8r3he0Q+Sf6IzwuaDL5MeW8wAACAASURBVIMUAYFMBfTL1DDrpfjd1oiaHt26nWqvllZe3tUeFWI0KFPR5uerr45W7tixy56mtXPn8/YJHS3bVdZeTfjm5svV/hbw4vmi0yB1RGvblnp7SqT5d7zUH//4v3LueUPkuV9ulS1bt8vy5dYfrO5fGjvl7bffkQkTr5Onn1zTAviSy8bJsB9eIGee2SspfqGmRPJ88Xf/p3QI+FGAgM2PrUKZEGhFQD/se/Tqa4+qFbVtK3Pm3Govg82RPwHdxHey9SWy6cAB0b+Gb9uygaAtf9yk7KGAV8+XdBYdWfiTxdbG1/+QSy8ZLf/zvV7y6su7WkglTpk0J3zrpC7y/M5n5fDDD0+q69WiIzxfPOzwZI1AQAQI2ALSUBQTARWI/8t3WVkHWbp4obRvX9oMZ8HCxbLqoYfli4d9Qe6xVkozL+IjmJvA3r0NMuby8day4G8x0pYbJVf7VMDL50s6y/p/r3tv+z21Sy+7Qu6w/lClI95Oxz333i8fffSxTJ1yrf3rl19+VW6eeavUPfrTpPJeL+vP88WnNwXFQsAnAgRsPmkIioFAOgLmr9A6srZ+XZ0drP3973+Xv/zlL3LEEUfIYYcdJmf1G2CNBl1jvXRfL+1LS2X8+MvtpF997XX59kknppMN5yQR0C9V5/QfZI+0TRg/Tq6acAVWCIRGwMvnS6qNs7dtf1YeeGC5fO1rX5VvfvN4uch6j621Y9r0G6x32r4tF14wRBYtvkc+/fRTue7aiUkv8cPG2TxfQnMrUREEXBcgYHOdlAQRyI9A/FQl3dzVTIOcOWu2/OEPf7CDtf37m+TwLx0us265ST744AO5aOTF9ntt66zV0rp06Szz7pwjpSUl+SlgRFJ9dPVjMmVqNVMjI9LeUammH54v3Xv2sd7B7WgvpX+2/mHEmvat77TpccWVE6Vdu2Pkj//7J1kw/460mmXosFEyceKVolMpdR+2//mf05Jep3nrH8B0ZcoxY8db76/ulJdf2pFWPm6exPPFTU3SQiA8AgRs4WlLahJyATNlSBcYMctdL73nfim23qkaOvQC6wvG89b+QkXSoUMHe8EMXca6pKSdPPXUz+Wss75v65w7YIisXfNoyKXyXz1dTU4XIpl9+0wZMnhg/jMkBwTyLOCH54suNqJblOg7ovpel/5hRO+x7/ftI6db0yHbtj1CfvnsMxlJfPf0XqKLlfz67dflkEOcl+g3QdJKa0EhnZXQ84y+MmjgAJlrTbv04uD54oU6eSLgbwECNn+3D6VDICagf/XduGlzi6l4K1Y+JAesKZFjL7tEXnv9DWsRkjtFtw767W/fs9/x0L9G33tfjegXMl0w4z5riWvea8utY5npU2ysm5sjV/tHwA/PF12Rdbi1+q2ZbmxG2S64YLD13KqVJ9c/Zv8RKpPjf//0J3msbo1cdtnFSS/T0TVd+VX3aLtl5m32dilbn9nQ4v3gTPLN5VyeL7nocS0C4RQgYAtnu1KrEAr06FVhb4qtfwXWJfzNceWEq+XqieOtdzT+Kj+29iW611po5ODBg/Z7Vr/9zXty8y232iur8V6be53CfLHUgHj92tXuJUxKCHgk4Jfniz0d0V7ef4M9U0ADuDPP6Ck33Vhtb2bv9qGjenWPrbGfq7oliq7A27FjB8dNu93OO1l6PF8KJU0+CARHgIAtOG1FSSMuoEtO6/HSC7+y/xp896J7ZM2atXL88cfLksULpGr0GJk/b64ceWSx6Htt+g6bvte2t6HBHlmbf+dc+2dDzh9uv8+2Zes23mvLsk/p+z6du3zXvvrdd97IMhUuQ8A/An55vujCGzolUTepv756mpjRpurpU6TK2rzezcNMAzVpm9G1dWtWS6dOzitQupl/srR4vhRCmTwQCJZA0oCNHeedGxIXXFTAi35gvlCZAKHXGd+X6uqp9qIiH374odx400xZVnOvLFl6nxXQFcmwoRe69l6bjti1adMm5dMtSucltkdrOF70F6/6Kfkm7wl+7gd+er6YwMm8I2pGwapnTJWqyotSPofSOcEEa+ZdNfMem9Pqr14813i+BPM+4vlHuxkBt5/3jLCl82TnHAR8IJD4AX5Wv/PkhBO+YS9v3bnzd6TTiafI23tetUu6/MGV8ulf/9rqe206+jZ12vVy7bVXydFHHeWDGgarCJl8oQpWzShtFAX89nwx79TpaFf79iXWu2W321MXBw86T+bMnpVTE5kAUIO1660/eu3d2yjDRlTaUy71PTY/HDxf/NAKlAEB/wgQsPmnLSgJAq0KJH6Av/fe7+TZX/xK5sy9U159eafMqL5RTjrxRPnhD8+XK8db77Vd3fy9tkMPPdRO/5VXXpPq62+Sdda7V/feX6Prk8glF1ehn6EAX6gyBON0Xwv47fmi0wKHDq+039tdtaLWnqJopkdqYKV7IGrwlsmho2gLFi6y0zQjabr/mwnWHlpZa08398PB88UPrUAZEPCPAAGbf9qCkiCQUcBmTp43f6H9jtrFo0fJwEE/lA+sPdnKOvy31Nbc0+y9tvjEn3jqaXnj9TdltPVOiP4lW99zu2fp3fKdb59EK6QpwBeqNKE4LRACyfqzl88XE7Tt2fNWbAsNXZBDR9v0Z7roj+5Hqau1JnvnTAMyXV1XgzUN1HRbFA32dOEmMw2yrKyDLF280LNVIZ06CM+XQNw2FBKBggkQsBWMmowQyE3A6QP8b3/7m+g+Q7oEtY6g6TRJp/faEnN+993fyG2z75D7rBUlP/74E+u9t3vt66+95qrcChmhq/lCFaHGjkBV/fp80aBt0uQZdtCl76/pyJiOgmmwtbrucXs/RHPoH65M4KaBmm68bQ4N1HRETvdN1DR1pK2m9kE72Js7Z5ZvRtZMeXm+ROCmo4oIZCBAwJYBFqci4KWA0wf4PmvVx2HWtKFnNj1tB2BrHl9v/QW5i+N7bfFl37T5GfnpTx+1tgC4Wxb+ZLFstDarHWi9z6Ers3GkJ8AXqvScOCsYAn5/vpiFSDQo05kB+qzSwE2DL91kW0fP9N+6FYAeukS//l6nT+oonDlX91h7wNqTUoM5sxKlH1uI54sfW4UyIeCdAAGbd/bkjEBGAsk+wN9///cyxVo8ZM7tM63Aa5M8ULtCPv7zn+W1V59v9l5bfGZjLp8gP7xwiP3+Wu3yFXLB+YPlrB/0lUMO0Z9wpCPAF6p0lDgnKAJBeL7okv86HVJH2zRwO81aIbfCCsYq+pyZdIRMg7h66w9S9VZQ99yOXXagpouN6LTI9u1Lfds8PF982zQUDAFPBAjYPGEnUwQyF2jtA7yp6YD1Baatnai+qP93a6pk3+/3kTGXXmxNJ5pu7dX2dTn66KPkk08+kcWL77H3a+vS5RS5btI0ufjiSul88ncyL1DEr+ALVcQ7QMiqH6Tni77HpgGYjqw1Nu6LtURrUyJLStrZI20a4On7a34/eL74vYUoHwKFFSBgK6w3uSGQtUC6H+C/fe89OXfA+fKL7Zvs99IOP/xweeihh+XFl16xpwydcMI35bprJ9rl2Lb9WampeVBqHliadbmiemG67RFVH+odLIF0+7Pfni/6rtoOK4Dbb42cOU2JLLZG4sqtAM3LjbCz6Qnptkc2aXMNAggET4CALXhtRokjKpDuB3jie22ffvpXGWxNATr55G/bcqtXPy4/e7ROdGW0YUMvkGnTb5BVK2tF92XjSF8g3fZIP0XORMA7gXT7M8+XwrRRuu1RmNKQCwIIeC2QNGBze4du0nNualxwUYF0+kEmH+C6R9u0GTfa77W9/Mor1mpoK2TWLTfK22//Wlb99BGZMX2ybN/+C2uFyI+tf09J+Rw6ePCgtGnThvPiBDJpj3TaN91+wHnJuyHO2T9PM+nPPF+cnd18TmbSHvT77Pt9mJ+n9ujzzl3WO5ybbKD9+5tk978W5dEtMYqLi+yfV/TpLeXdurYYhaZf+atfMcKW8iuoOyfoy9L2i89p3Dj6ArWfX4Z2R4RUMhXI5ANc0058r+2YY46Sffs+kOO//nWZNfMme4GRjz76s3zlK/+RaVE43xLItD1AQ8DPApn2Z54v+W3NTNsjv6Uh9aAI6HdN3bJC3/PUlVMzOcyKqpWjLuI7aCZwBTqXgC2P0DqfXpcQNht2ZpKV3ji6X4xZujiTazk3nAK5fIA37tsndXVr5PU33pSuXbpYC42MCidSAWuVS3sUsJhkhUBaArn0Z54vaRFndFIu7ZFRRpwcCgHzffOuBXe7Uh9dRZXvn65QupYIAZtrlM0T0g09dflhs3FnUdu29upU5dYyxDp6VlxU3GyDz/1N+0X/MrLDWnZYV79qOnDATlBXvbq+eqq94SdHtAX4APdX+9Me/moPSpObAP05Nz+3r6Y93BYNb3o6KDBz1uxmG8W7UVv9/lk9Y4o9eMDhvQABm8ttoEHX2HETYvOEu3U71d7vJdNlhHU4W/9SsnPn83YJdb7xkkULGKZ2ub2ClBwf4P5qLdrDX+1BaXIToD/n5uf21bSH26LhTE+nPyYbVdOBAl0htaLi89dskg0U1NdvtldaNQMFiVL6HXbC+HHhBAxQrQjYXGwsfcFz2IhK+68cuufL9dXT7H1fcjl0n5lbZt5m7zWjf+1YtaI2cMsT51J/rv23AB/g/uoNtIe/2oPS5CZAf87Nz+2raQ+3RcOVnk6B1FE1nc2VeOj3Tw2yMh0Z05E6Df7i9zY0aessLx1tKy4uDhdkgGpDwOZSY2lHnzK12k6tT+8zZe6cWa51bL0xJ02eIRs3bbbTn22t/JfpjehSNUnGQwE+wD3Ed8ia9vBXe1Ca3AToz7n5uX017eG2aLjSmzxlRotgTUfUqqpG2sFaLocGbTU1y1uMuGnQNmf2rFyS5tocBAjYcsAzl+rIWv8Bg+3/qS9p6shaPg4dadNFTPRYt2Y1I235QPZxmnyA+6txaA9/tQelyU3AL/1ZFzDp3qNPrDLHHfc12VT/ZG6V+9fVWsdHHl4hXU7p7Ep6+UzEL+2RzzqSdnYCGlDpVMj4Q4O1VSuXufa90J4xNnxUi6BNp0bmGhBmV2uuImDLsQ/oO2vnnDvYngaZz2DNFNMEbTo9cv3a1bzTlmP7BelyPsD91Vq0h7/ag9LkJuCH/vzCiy/JBReOaBZULVl6n/zs0TpXgjYCttz6CFd7LxA/m8uUpqysgzy0sta1WV0mXZ3dNXR4pezZ81azijPLy5t+QMCWo7sGa7oRoU6DXLpkYY6ppXf5mLHj7emRuhCJBm0c0RDwwxeqaEinV0vaIz0nzgqGgB/6c++KfnL+kEEydswlzdD05zoVS0fG1q1/UiZePSn2++HDLpSbf3SDmGCvR/fvybbtz8q777wh8aN1et7KVQ/HgkENBOfeMS+Wzvx5c6X/Of1801h+aA/fYFAQW0ADqB69+jZbDVJH1rZtrXc9WIsP2nr0rGg20qYDBtu2bMhbnjS3s0DSgI0dzp3B4l3MXzr0Bc8n1tU167wHDx6UNm3apOx32ZynN+3Z/QfZL4Ym/qWDdkvdbq01ip/9MvkAz6ZfteZCei11MmkPP/crrRnlC+9zI932zaQ/5+N58MEf/mBPhWxtyqLme0KHk2LnmOBt+7aNsm/fB/bonAZeZ/f7gf35Gx8AmnM1/XbtjrHzeuet1+zzTGCnQZ7TkY/6pvp+kEl7cP9G4/5NnAqZOA0yX/3UaXpk/NRI+l9h+h8jbClDKucT4v/Ssdhabj/X1SAzLYauHnm5tX0Af+nIVC6452fyAR7cWgan5LRHcNqKkqYW8Lo/m6BJg6+Sdu0cC6znxP8u/hoTsJnrndIzUyJNwNZaXqnF8nuG1+2R39qReqYC+vpNzzP6NruskO+TOb03t/WZDbyWk2lD5nA+AVuWeKbz6j5rD1kvenpxDLVeCNV92gp503pRT/L8XIAPcH/1BNrDX+1BaXIT8EN/Tucds8SpjFrr+BE2E4SZKZLxo2bxUyvN740aUyJz6z9cnV+BSZOnS91ja2KZ6Myu7Vs35jfThNS79+zTbMn/QQMHWCui31rQMkQ5MwK2LFu/R68KaWholJUrajLeFDvLLFtcZkbZSktLrPnE9W4lSzo+FfDDFyqf0nhSLNrDE3YyzZOAH/pz1egx1ka/XVu8w6Y/HzRogL2/qU57dBpFy2SELXGVyHRG9/LEnjRZP7RHoetMfskFzHdOc4YXC38kLnjCd8/C9lgCtiy8zdC0zh9++aUdWaTg3iUndy63XwZlaNo900Kn9Mgjq+UY652KHt1PbzVrPsAL3TKt50d7+Ks9KI2zQJCeL6lWiUwcNdNAThcYcRphUw0dUTv9f06zFyWJf4dN3/+ef9dPYitPpnqHzYu+xfPFC/XC55nO/Rm/dZSW0MvvnuY7p5Fii6nC9RkCtiysdUPBmbfOFj8MB5th8urpU+wNEzmCJ9DTWvXpo48/lmPbl9h7+H33tHLHSmTzAa7XJE71cZoqlA+1fO6nZMobXxeTX6H2WcqmPfLhTJoItCaQz+dLPuQTpyom7sNmgjTNW59tGnhNvOrKFqNvpmzmPtXVI/W48sqx9mqTN9x4s71qpDkK9dxI14znS7pSwT4vnfsz8f2xQq5KnqhrVik3P+e7Z+H6HwFbFtbm3TEvhqQTi2uGqL28gbMg5JI4gTN7nyXv/e59OcT6WfGRxdYKZkc7Bm7ZfIB7FbCl+ku5Wx2gUMGnU3mzaQ+36k06CKQrkM/nS7pl4LzMBXi+ZG4WxCvSuT/Nd05TPy+/eyZOi/RyHYcgtncuZSZgy0LP3Dxevr9miv3cjp0yfESVcNNk0ZA+uST2wNaITY/PPg/cSkqOsQO308q72T/O5gM8nYAt1X5EJl8tQ+IL/fF7HsVzptpPSc/Vd1ESr3fKS89NtveSOV//Cv/g8vtbLAsen575C7oZiTP7Mmn6k667usV7M6m6RzbtkSpNfo+A2wL5fL64XVbS+7cAz5do9IZ07s/EgM3L757mO6dpHb57Fq6fErBlYW02y/bDe2NmbjObaGfRkD65pMUDO65cRcVFUmq9aK+BmwbmeiTbK8ipOqkCtsR3NxL/t9M+Rpq/GdlyWlktnamJTtcny8sEqybgctp7KX6TXHOeU3oacOqhezCZDXdNepm4mjJl2h4+6XIUI0IC+Xy+RIix4FUlYCs4uScZpnN//ulPH4r+vzm8/O6Z+D4d3z0L120I2LKw9tuDNH4UIYvqcInHAp9ZI2p6HGJG2BzK85kOu+k51v9lElikG7A57UeUbFns1t4X0TKms+KaSTvVEtyaV5cunVPuvZQYsDnts6QBnElPA7bW9mtKp0tw36WjxDleC+Tz+eJ13cKcP8+XMLfuv+uW6f2pV2byHSAfiol90+vy5KOOfkwzacDGzuXOzaUu/c4ZZP+ytU6arx3nnUrFg92Pt1b6Zcr0gZ3Ow9H0PxOk9D+nX6xA8YGYnvfSy6/Y0xPNYUbNEl/+N7/X6YNdu3Zptry2+Z3JV/tkay/xP//Ci3LhDy9qMcUyUe26ayfK5WMvlVR7L73z1mvywR/+EJsSqeloneKtdLECnb4xYMA59nmtBWzp3L/cd+n3cc70TiCfz5dUtUrnPtI0OK+lJM+XVL0rHL/P9P5s7btnoe6jxL755Po66dChQ8oGIa5IHlek48cIW8ou1vIEs3mgl8PSplRmeLqsrIM8sa4ui9pwidcCqaZEtC8ttaZETpVhwyvtoqYTsJk6OQVsOgUwfknr+PrHj47pvkaTp8yILX0df17iCFmiYab7KWl66eaVWEYTmMVPxSzkCFsm7eF1XyP/6Ank8/kSPc3C1dhvM3kKV/No5ZTO/fnHP/5RPvzwoxiMl989E6dE8t2zcP2VgC0LaxYdyQKNS5IKJD6wdfpjUVGRtcx/eztQK+/W1b42mw9wMzIVH1QkvtvV2n5E8QFf/MqPWp74DWwTK5dqlUingC9VXqYOTnsvZfMOm1tTIgnYuLn9LJDP50uu9Q771h+5+GTzvM8lP671RiCd+5NFR7xpG7/lSsCWRYuwrH8WaFySMmCTQz4P1L7a/lg7UNPpe/FHth/gifsNmcU2TNqp9iOKn/6QOF3S6d03k25r+yklG6FzykvTS7b3kk71NNdoWXSqY/xUzNZWiSRg46aMgoD5Qpiv50u2hqn+qJNtusn+eBS0P6xk+7x3y410CiOQzv3Jsv6FaQu/50LAlkULsXF2FmhcklRAN8788OM/y9e/+jXHQM1cyAe4vzoR7eGv9qA0zgJ+fb5EYeuPXPokz5dc9IJzbTr3p/nOaWrl5b67bJztXd8iYMvCfu/eBul5Rl97NOTlF5/LIgX3Ljn5lNOkqalJvJzT7F5toplSXd0aOfroo+X0009rFYAPcH/1D9rDX+1BaZwF/Ph8icrWH7n0SZ4vuegF59p07s/E98a8/O5pvnMa4XVrVkunTmXBAQ9wSQnYsmw8s/CIlxsYbqjfJJePm2BtsNxOtm/9fH8pjvAK8AHur7alPfzVHpQmN4FC9ueobP2RS4sUsj1yKSfXFkbAfOc0uc2+faYMGTywMJn/K5dHVz8mU6ZWx/Lku2dB+a1Z7dZR2CzDkdtdC+6WBQsXSXl5V1m1otaTSg0bUSk7duySCePHyVUTrvCkDGRaOAE+wAtnnU5OtEc6SpwTFIFC9+dUW38k26sx0VO3GRk75pKUW38kLkyk6Tht/aGf6eeee3bKrT/y3a6Fbo9814f0cxOYNHm61D22JpZIaWmJbNtSn1uiGV7do1eFNDQ0xq6qHDXCeo1jWoapcHq2AgRsWcrt379fevSskKYDB2TxogXSt6J3lilld5kZXStq21a2ba2X4uLi7BLiqsAI8AHur6aiPfzVHpQmN4FC9+cobP2RS4sUuj1yKSvX5l/AvIoTn1Mh/1hvBini8+dVnPy3e3wOBGw5eJvhYf1Lx/q1qwsWNGmweM65g+2/dHgxLJ4DGZfmIMAHeA54ebiU9sgDKkl6JlDo/pxqlcgwbP2RS2MWuj1yKSvXFkYgMWjSd9l0hle+3yHTd+h0Rpeul2COQgaLhdH1fy5JAzZ2JHduvESXs/sPkj173pKKPmfKksULYxflc8f5sZePl/qNm8Vpw0LaLb12S3Zr+tkvkw/wfPa/1h5rUco3k/bwc7/S9qR84X1upNu+mfRnt+7zTLf+0HxP6HBSrLHMNiP6g/itP+bdOUf0y+3Eq66U1rb+SEzPbAmS+I7d3gZroTFrNd/WtjHRMrjlomll0h7cv9G4f+Nndpkaa9C2bcsGe8DAzf5n+vMBaxZZD6vvxwdriTO76H+F6X+MsOUYVOsw9TlW0KZTIwsxn/eWmbdJ7bIVojfM+nV10r59aY414PKgCGTyAR6UOgW5nLRHkFuPsicK0J/91SdoD3+1h19Kk7jwh5arY8cya6StxvVZXhogDhtRJbt372lWfWZ2edMbCNhccI9fcrWq8iKpnjHVhVRbJjFz1u1SU/ug/QuWUs0Lsa8T5QPcX81De/irPShNbgL059z83L6a9nBbNDzpOb1P5vb0SKdpkCrIVEjv+hEBm0v28X/10OmRc2bPcu2vHfpXjslTZtjTIPXgrxsuNVrAkuED3F8NRnv4qz0oTW4C9Ofc/Ny+mvZwWzRc6SWuGqm106BtdNVIO6jK5dAV0B+oWd5sGqSmN2jgAJk759ZckubaHAQI2HLAS7zU/ovE8FH29EhdiERH2nJdPVJXg9SRNV1gRKdBrlq5LO8vmLpIQlIuCvAB7iKmC0nRHi4gkoRvBOjPvmkKuyC0h7/aw2+l0T/k3zLz9mZL/Zsy6vdP3epp8KDzMir26rrH7Xc/45fuNwlosHZ99VTXBiIyKhgn2wIEbC53BH2nbYy1KIguRKKH7ulSVTnSXpQkk0NH02pql9v7rOmhC4wstRY14Z21TBTDdS4f4P5qT9rDX+1BaXIToD/n5uf21bSH26LhTM9peqSpqY64nWZ9B62wtp3S745FbYtif/DXAYamA02i31nrrYGB56zvmvELi8RrMQ3SH32HgC1P7aBTJGdaf/3Q0TY99MbR0TYN4Fq7cTRA01E1c+PoqFq19VeNQu9onycWks1BgA/wHPDycCntkQdUkvRMgP7sGb1jxrSHv9rDz6VJ/L7pVln5/umWpDvpELC54+iYig5Z6yIhejM1Nu7LKKeSknZ2kKaLmLApdkZ0oT2ZD3B/NS3t4a/2oDS5CdCfc/Nz+2raw23RcKdnvm/q+2duHDqqxvdPNyTdS4OAzT3LVlOKH3be37Rf9u9vik2b1OmOxcVFUlxU3Gz4ukBFI5uACPAB7q+Goj381R6UJjcB+nNufm5fTXu4LRqN9PS7pk6TfG7HzqwGCnQmmL7Gw+s3/usvBGz+axNKhICjAB/g/uoYtIe/2oPS5CZAf87Nz+2raQ+3RaOXnr6ntsMK3DZs3GRX3mmgQH/et4++rtONBe183kWSBmzsXO7ccrjgogJe9INMPsAPHjwobdq0Sfn44TxnonRcMmkPL/qLV/2UfJPfdn7uB5n053TuD1XgPJ4vPA+C+Tyg3fzXboywpfxKywkI+EMgky9U/ijx56Ww/8q38/MVqHS6xt6GBvvn7UtLP1+Ax1qQp7xb18D9dS+o7eGnvkFZ/CNAf/ZPW2hJaA9/tQelQcBrAQI2r1uA/BFIUyBIH+A6f76ubo09jz5+TxddTMfMjdfgLX4xHt07RufP97G2wDjNmp7h9yNI7eF3S8rnvQD92fs2iC8B7eGv9qA0CHgtQMDmdQuQPwJpCgThA1yDMN3oXfcR1CWBdV58RcWZdiCWbLVTXd1Kt7Kor99sz7fXrTB0w09dpcrPLz4HoT3S7FqchgAjOj7rAzxffNYgFAcBjwUI2DxuALJHIF0Bv3+Aa6Cm21hooFZVNTK2JLAGZBrA6Uib05RIHVnTjeU1oDNLjaauoQAAIABJREFUE9fULLcDN11WuHrG1HSJCnqe39ujoBhkFngB+rO/mpD28Fd7UBoEvBYgYPO6BcgfgTQF/PoBrkHW5Ckz7KCsctQIuWrCFXbwpfsP1j22xho12xWrYWtTInVTeR1Z0//XNHVp4tplK+xgbs7sWb7bj9Cv7ZFmd+I0BJoJ0J/91SFoD3+1B6VBwGsBAjavW4D8EUhTwI8f4BpYDRtRJbt375HZt8+0N3vX99Zmzppt/8xsAF9hLRvcqVOZY011UZJ6a9lhs8F8x45l1qjaFPs9Nv3ZlKnVoj9btaLGV0GbH9sjza7EaQi0EKA/+6tT0B7+ag9Kg4DXAgRsXrcA+SOQpoDfPsBNsLb393tl1cpldkCmo2ILFi6yAzUdadMALpNDAzRNQxcj0ev1PTYN6IYNHyXtj23vq6DNb+2RiTPnIpAoQH/2V5+gPfzVHvkuzbr1T8rEqyfFspk/b670P6dfvrNNO33tj488vEK6nNI5rWsyPT+tRCN+EgFbxDsA1Q+OgN8+wMdePt6eBrluzWprcZASe1Rtdd3jMmjgAJk759acYCdNnm5Pp9TpkTratndvo/QfMNieHrlk8cKc0nbrYr+1h1v1Ip1oCtCf/dXutIe/2iOfpWnct0+69+gj27dtlJJ27eSFF1+SCy4ckVGAlM/yadqZBmCZnp/v8ochfQK2MLQidYiEgJ8+wG+ZeZv9fpmZBmkCrOrpU+wFR9w4dOGRmbfOtoM2fYfNTI/U9+Sur57mRhY5peGn9sipIlyMwL++kCnEu++8gYcPBHi++KARClQEE6A53XuJv4sPhJYsvU/m3jHPLmWP7t+TmgeW2v9O5+fDh10oN//ohhbnx/+8avQY2bb9WTtt/a8ZYYtPP53zC8QY+mySBmxvvfWWdOjQISUA5zkT4YKLCrjZD8wH+Esv/Crlu1wHDx6UNm3apLx/szlPV3rseUZfe4ERDZzMNEg3gzVTcBO06dRInSJpAsWtz2xotuR/NvVoDSdVejodtHOX79pJpPMF181+4Ha/Ir3kPSFK7eaX50su96W5NtX96/fzeL60/tEVxvsyPgiKn3qYLGBTIR2FM6NyvSv6yQXnD5JTT+3S4ucTr7rSfk1BFwfbVP+k/b1k3JVX238I1cP8XP+t6ejP9bWEOXPvlO1bNzYb8XM6/8orxsj/+3+Hyvy7fmKnn2yEMIzt1lpPdbu+jLCl/ErLCQj4Q6B7zz72Q3SltfiGlxtL61TI557bKdu21sub1sIiw61FR9yYBplM2Yzeab07WYuP9OhZYe3t1jvnaZe5tKourKL1LivrIE+sq8slKa5FwBcCfnm++ALD40LwfPG4ATzM3kyP1CJoMLZv3wd2AGb+MGhG2HbtesFegdmMqun5eu3atU8k/bkZjTPVm3Td1fY/nX7e2Nho/86MwplATvPN5Px033nzkDwwWROwBaapKGjUBcaMHS8bN222F+LQ0SYvDvNFwpTh7P6D7CX49a9w+Tz0y+Sx9qIjtbERPS8DVzOq2Kf3mbJ0iT/eqcunP2mHX8APz5fwK6dXQ54v6TmF+SwNkM4fMki6dv18xCydgE09dKQuMZDL5uc33Hhz0oDNKf1k5xOwuddLCdjcsyQlBPIqYN7h0v3KNHDx4tDRrvr6Tfbo2gbrv7rkvnmPLZ3yDBteKdOmXicnnXSi4+n//Oc/ZcRFo2X6tEnNzjF117z6WqNrOso2ePB5nr3LNmxEpf2hmEnd0/HhHAS8EvDD88WruvstX54vfmuR/JbHTIc00xs1NzOipf82Ux/NaJtOmYz/uS5Uou+bHXtsqQwY0L/ZlEjz865dT7VXoTR56EidrkSpR2s/10AxfoqjzvLJ5HwCNvf6DgGbe5akhEBeBXQkSwOVpgMHZPGiBXbgUuijR68K6VhWZo8q6eiaHulMCfzlL5+TUVWXSq+e3aVXr56iLyonHhoAXnHlRDmjVw/p2bNHi3N0lK19+1J5yNpCQEcDdu/ZI9u21BeaILb4SVHbtnbgqpuEcyAQdAE/PF+CbuhG+U3gzPPFDc3gpKEjVCtXPRwrsE5XHDvmEvt/xy/+8f7vf2+/Y6aBUPxWAMcd9zX7/TE9kv08Po/4xUKS/TzZoiOZnh+cVvB3SQnY/N0+lA6BZgJmqkxRUZGsX6vL6ZcWTEj3Q9Ol9c0oly66kc70zNtn3yGvv/GmLKu5V2760Uzrva+yFsGYjtR98skn9pL919/wI8dzTN110RUzuqdbCiTbkDsfMLrgyjnnDpampqa06p6PMpAmAvkS8PL5kq86BSldni9Bai3KikBhBQjYCutNbgjkJKB/BR9qTSvcs+ct6WgtwLHEGmkrVNBmVmxMN2D64x//1x5VG3jeuXLZpaPteicGY6+88ppccunlMnnyNfZ8fadzDJhTwJiPlSmTNZB+mRo7boLsthZa0cVGHlpZy+haTr2Zi/0m4OXzxW8WhS4Pz5dCi5MfAsESIGALVntRWgTsRT7M1EgdadPpEYWYHmn++q5z2uP/7dQkq1c/LnN/PM8eVevQ4b9jp8QHbHfOWyDbn/2F3HfvYvnPr3zF8ZzEtHXevRnVi/93vruFTlPSjcF1ZI2pSvnWJn0vBbx6vnhZZ6/z5vnidQuQPwL+FyBg838bUUIEWgjE/yVcf6kLkehS//rfjtboTz7eq9IFR3SVSF0RMv7fiYWbcNW1ctgXD5O5s29tUW4N2NpZL0g/8eTTctYP+sqVV4x1PMdp2qSeeHLn8thiI/H/druLqO9uaxRTFxbROut/9WBkzW1p0vOjgBfPFz865KtMPF/yJUu6CIRXgIAtvG1LzUIuoB/6NbUPik5V1IVI8n18Jp9Jebeu9qIfQ4ePsrPTf5vj5Vdelcqqy2TmLTfKOWef5Vicy8eNl1/+apf8dFWtPaXT6Uj2DpueG5+v/nvHzl1yiPV/+T50VK2qaqRUVV6Ul2A43+UnfQQyFSj08yXT8oXpfJ4vYWpN6oJAfgSSBmxu79BNes4NiAsuKpBLP9AvVroIR339Ztnb0GC/35aPI1XAtmDhInn33d/IXfPvSJr9uCuusqZB/lIeWrVMTvxWJ18HbDqa1r601Nqk+0x7yqnTqGUu7eZUedLjeZDr88DtflWo50s+nll+TpPnS8vW4fnH889vzz+3n6e5pMcIm5+f6JQNAR8J6DRIHdHSpfTj/x1fxLrH1shtt821Rv3ucQzIdPSs1AqCnrSmRPbpc6b9Plri0doIW7MpkaecJoMHDfBsLzYfNQ1FQQABBBBAAIEQCxCwhbhxqRoCbgqku+jIhx99ZE0fvEy+//0KuWLcmGZFiA/G5t/1E3lmyza5/95F8l//9V+x81oL2LxadMRNR9JCAAEEEEAAAQQyESBgy0SLcxGIsECmy/r/+M67rAU7dkntA/fIEUd8yZZLDMZee+11ufjScXLtNRPkwguGOJ5jyL1e1j/CTU/VEUAAAQQQQMBDAQI2D/HJGoEgCWSzcfYLL7wolaMvszbbniX9zvp+0k2xp02/QT6yRuaWLvmJrzfODlJ7UVYEEEAAAQQQCIcAAVs42pFaIFAQge49+0injh2twGqhnN1/kL0vmb7Tluq4cvzV1ijbEfKFLxxqLY1fJsOHXdjikvqNm0UXJenVq7v06tmzxTmat24SritTjhk7Xt7cvdveYoADAQQQQAABBBAIswABW5hbl7oh4LKALjaigdW2LRvslSmnTK22Rs9mypDBA1Pm9LNH62Tu3HkyffpkOW9Af8fz//nPf8pFIy+WaVOvk5NOOjF2jm4sa/LSFRt79OrLgiMpxTkBAQQQQAABBMIgQMAWhlakDggUSEA3kR4+ospe3fGqCVdkNMqmRfzwww/lP//zPzMubfzomln8ZOWKGnuzcA4EEEAAAQQQQCDMAgRsYW5d6oZAHgR0OuLny/tvsKYl7rEDuMGDzpM5s2flITextxDQ7QI0QOtkbbato2sV1pYAc+fcmpf8SBQBBBBAAAEEEPCTAAGbn1qDsiAQAIG9exuk5xl9pXLUCHsPNDPiVT19irWc/0hXa2BWpjQjepOnzJDVdY/L1mc22O+zcSCAAAIIIIAAAmEXSBqwseO8c9PjgosKRL0f3DLzNqldtiL2/poZBaueMVWqKi9y5blpgrVBAwfYo2nmPTYTKMZnEvX2SAaOC88rnlfJH0fcH9wf3B/cH0bA788DRthc+WpJIghET0CnRm7ctFnWrVltjXaVyC0zb7enLroxPdIEgBqsXV89VfbubZT+AwZLn95n2itUciCAAAIIIIAAAlERIGCLSktTTwRcFti/f78MHV4pDQ2NsmpFrXTqVBabHllaWmIvSqLBWyaHjqItWLjITtNMg9T934aNqBRN86GVtVJcXJxJkpyLAAIIIIAAAggEWoCALdDNR+ER8FbABG179rwVmx6pK0nqaJv+rKO1SIguw68jYxrQOR0akOlInQZrGqh163aqHezpCpBmGmRZWQeCNW+bmtwRQAABBBBAwCMBAjaP4MkWgbAIaNA2afIMO+jS99d0ZExHwTTY0gVCdu58PlbVoqKiWOCmgZpuvG0ODdR0RE73dNM0daStpvZBO9ibO2cWI2th6TDUAwEEEEAAAQQyEiBgy4iLkxFAIJmAWYhEg7LR1mqRujiIBm4afOkm2zp6pv/WrQD00CX69fc61VFH4cy5upjJAzXL7WDOaYERWgABBBBAAAEEEIiSAAFblFqbuiKQZwFd8l+nQ+pomwZup5V3lQorGNN905K9e6ZBXP3GzVJvBXXP7dhlB2q62IhOi2Tp/jw3GMkjgAACCCCAgO8FCNh830QUEIHgCeh7bBqA6chaY+O+WAVamxJZUtLOHmnTAE/fX+NAAAEEEEAAAQQQECFgoxcggEBeBfRdtR1WALffGjnT0bTV1tL/egy2RtF01K3YGokrtwK0ZIuS5LVwJI4AAggggAACCPhcgIDN5w1E8RBAAAEEEEAAAQQQQCC6AkkDNr/v+E35nDstLrioAP2AfkA/SP7Bzv3B/cH9wf1hBHge8DwIwvOAEbboBuvUHAEEEEAAAQQQQAABBHwuQMDm8waieAiETWDYiEq7SqtW1IatatQHAQQQQAABBBBwXYCAzXVSEkQAgdYEhg4fZf/6oZXLgEIAAQQQQAABBBBIIUDARhdBAAEEEEAAAQQQQAABBHwqQMDm04ahWAgggAACCCCAAAIIIIAAARt9AAEEEEAAAQQQQAABBBDwqQABm08bhmIhEFYBFh0Ja8tSLwQQQAABBBDIhwABWz5USRMBBJIKsOgInQMBBBBAAAEEEEhfgIAtfSvORAABBBBAAAEEEEAAAQQKKpA0YGPnd+d2wAUXFaAf0A/oB8k/q7g/uD+4P7g/jADPA54HPA9yfx4wwlbQ+JjMEEAAAQQQQAABBBBAAIH0BQjY0rfiTAQQcEGARUdcQCQJBBBAAAEEEIiMAAFbZJqaiiLgDwEWHfFHO1AKBBBAAAEEEAiGAAFbMNqJUiKAAAIIIIAAAggggEAEBQjYItjoVBkBBBBAAAEEEEAAAQSCIUDAFox2opQIIIAAAggggAACCCAQQQECtgg2OlVGwEsBFh3xUp+8EUAAAQQQQCBoAgRsQWsxyotAwAVYdCTgDUjxEUAAAQQQQKCgAgRsBeUmMwQQQAABBBBAAAEEEEAgfYGkARs70zsj4oKLCtAP6Af0g+QfNNwf3B/cH9wfRoDnAc8Dnge5Pw8YYUs/uOVMBBBAAAEEEEAAAQQQQKCgAgRsBeUmMwQQYNER+gACCCCAAAIIIJC+AAFb+laciQACLgiw6IgLiCSBAAIIIIAAApERIGCLTFNTUQQQQAABBBBAAAEEEAiaAAFb0FqM8iKAAAIIIIAAAggggEBkBAjYItPUVBQBBBBAAAEEEEAAAQSCJkDAFrQWo7wIBFyARUcC3oAUHwEEEEAAAQQKKkDAVlBuMkMAARYdoQ8ggAACCCCAAALpCxCwpW/FmQgggAACCCCAAAIIIIBAQQWSBmzsTO/cDrjgogL0A/oB/SD5ZxX3B/cH9wf3hxHgecDzgOdB7s8DRtgKGh+TGQIIIIAAAggggAACCCCQvgABW/pWnIkAAi4IsOiIC4gkgQACCCCAAAKRESBgi0xTU1EE/CHAoiP+aAdKgQACCCCAAALBECBgC0Y7UUoEEEAAAQQQQAABBBCIoAABWwQbnSojgAACCCCAAAIIIIBAMAQI2ILRTpQSAQQQQAABBBBAAAEEIihAwBbBRqfKCHgpwKIjXuqTNwIIIIAAAggETYCALWgtRnkRCLgAi44EvAEpPgIIIIAAAggUVICAraDcZIYAAggggAACCCCAAAIIpC+QNGBjZ3pnRFxwUQH6Af2AfpD8g4b7g/uD+4P7wwjwPOB5wPMg9+cBI2zpB7eciQACCCCAAAIIIIAAAggUVICAraDcZIYAAiw6Qh9AAAEEEEAAAQTSFyBgS9+KMxFAwAUBFh1xAZEkEEAAAQQQQCAyAgRskWlqKooAAggggAACCCCAAAJBEyBgC1qLUV4EEEAAAQQQQAABBBCIjAABW2SamooigAACCCCAAAIIIIBA0AQI2ILWYpQXgYALsOhIwBuQ4iOAAAIIIIBAQQUI2ArKTWYIIMCiI/QBBBBAAAEEEEAgfQECtvStOBMBBBBAAAEEEEAAAQQQKKhA0oCNnemd2wEXXFSAfkA/oB8k/6zi/uD+4P7g/jACPA94HvA8yP15wAhbQeNjMkMAAQQQQAABBBBAAAEE0hcgYEvfijMRQMAFARYdcQGRJBBAAAEEEEAgMgIEbJFpaiqKgD8EWHTEH+1AKRBAAAEEEEAgGAIEbMFoJ0qJAAIIIIAAAggggAACERQgYItgo1NlBBBAAAEEEEAAAQQQCIYAAVsw2olSIoAAAggggAACCCCAQAQFCNgi2OhUGQEvBVh0xEt98kYAAQQQQACBoAkQsAWtxSgvAgEXYNGRgDcgxUcAAQQQQACBggoQsBWUm8wQQACB/Ajs379f6jdulvr6TfLm7j3S0NCYn4wilmppaYl06lgmFRW9paLPmVJcXBwxAaqLAAIIIOC1QNKAjZ3pnZsGF1xUgH5AP/BLP9BArXbZCnmgZrk0NTV5/ZkS6vyLiopkdNVIqRw1olngxvOA54Ffnget3YD0U/op/TT5HeL3+4MRtlB/vaByCCAQZgEN1oaNqJLd1oiaHt26nSqnlXeT8vKu9qgQo0G5tb766mjljh275LkdO2XnzuftBDtatqtW1OCbGy9XI4AAAgikKUDAliYUpyGAgDsCLDrijqMGEz169bVH1YratpU5c26Vvta0PY78CWywpptOnjxdmg4cEB1t27ZlA0Fb/rhJGQEEEEDgXwIEbHQFBBAoqACLjuTOHT+yVlbWQZYuXijt25c2S3jBwsWy6qGH5YuHfUHuuWeR/PcJ38w9Y1KQvXsbZMzl42XPnrcYaaM/IIAAAggURICArSDMZIIAAgi4J3DXgrtlwcJF9sja+nV1drD297//Xf7yl7/IEUccIYcddpic1W+ANRp0jTz9dL20Ly2V8eMvtwvw6muvy7dPOtG9wkQwJQ3azuk/yB5pmzB+nFw14YoIKlBlBBBAAIFCCRCwFUqafBBAAAEXBOKnQi5etCA2DXLmrNnyhz/8wQ7W9u9vksO/dLjMuuUm+eCDD+SikRfb77WtW/+kdOnSWebdOUdKS0pcKE10k3h09WMyZWo1UyOj2wWoOQIIIFAwAQK2glGTEQIIIJC7QI21GuTMW2fbC4w8tHKZneDSe+6XYuudqqFDL7AWyHhevvzlIunQoYO9YMaXjzxSSkrayVNP/VzOOuv79vnnDhgia9c8mnthIp6CTu/VhUhm3z5ThgweGHENqo8AAgggkC8BArZ8yZIuAgg4CrDoSG4dY8zY8bJx0+YWU/FWrHxIDlhTIsdedom89vob1iIkd4ocIvLb375nv2u1YP4dcu99NaIBny6Ycd99i3mvLbemEDM1tU/vM2XpkoU5psblCCCAAAIIOAsQsNEzEECgoAIsOpIbd49eFfam2CutZeV1CX9zXDnharl64nj59NO/yo9/PF/utRYaOXjwoP2e1W9/857cfMut8o9//IP32nLjb3a1LvU/3NpWQQPi9WtXu5gySSGAAAIIIPBvAQI2egMCCCAQIIFvnPAtu7QvvfAre0n5uxfdI2vWrJXjjz9elixeIFWjx8j8eXPlyCOLRd9r03fY9L22vQ0N9sja/Dvn2j8bcv5w+322LVu38V5blu2v7xN27vJd++p333kjy1S4DAEEEEAAgdYFkgZsft/xm/I5NywuuKgA/SC8/cAEbCZA6HXG96W6eqq9qMiHH34oN940U5bV3CtLlt5nBXRFMmzoha6916Yjdm3atEn5uRql8xLbozUc7svw3pc8d5P3fPo9/Z77I/f7gxG2lF89OAEBBBDwj0BigHBWv/PkhBO+IReNGCadO39HOp14iry951W7wMsfXCmf/vWvrb7XpqNvU6ddL9dee5UcfdRR/qloQEqSScAWkCpRTAQQQAABnwkQsPmsQSgOAmEXYNGR3Fo4MUB4773fybO/+JXMmXunvPryTplRfaOcdOKJ8sMfni9Xjrfea7u6+Xtthx56qF2AV155Taqvv0nWWe9e3Xt/ja5PIpdcXJVb4SJ4NQFbBBudKiOAAAIFFiBgKzA42SEQdQEWHcmtByQLEObNX2i/o3bx6FEycNAP5QNrT7ayDv8ttTX3NHuvLT73J556Wt54/U0ZXTVSdPVJfc/tnqV3y3e+fVJuhYzQ1QRsEWpsqooAAgh4JEDA5hE82SKAAALZCDgFCH/729/ku6f3kq3PbBAdQdNpkk7vtSXm9+67v5HbZt8h91krSn788SfWe2/32tdfe81V2RQtktcQsEWy2ak0AgggUFABAraCcpMZAgggkJuAU4Cwz1r1cdjwSnlm09N2ALbm8fXWxtpdHN9ri8990+Zn5Kc/fdTaAuBuWfiTxbJx42YZOHCAVI4akVshI3Q1AVuEGpuqIoAAAh4JELB5BE+2CCCAQDYCyQKE99//vUyxFg+Zc/tMK/DaJA/UrpCP//xnee3V55u91xaf55jLJ8gPLxxiv79Wu3yFXHD+YDnrB33lkEP0JxzpCBCwpaPEOQgggAACuQgQsOWix7UIIJCxAIuOZEzW7ILWAoSmpgPWe2xt7fOHWiNuf7emSvb9fh8Zc+nFMmnydGuvtq/L0UcfJZ988oksXnyPvV9bly6nyHWTpsnFF1dK55O/k1vhIng1AVsEG50qI4AAAgUWIGArMDjZIRB1ARYdya0HpBsg/Pa99+TcAefLL7Zvst9LO/zww+Whhx6WF196RXTD5xNO+KZcd+1EuzDbtj8rNTUPSs0DS3MrXASvTrc9IkhDlRFAAAEEXBIgYHMJkmQQQACBQgikGyAkvtf26ad/lcHW+2knn/xtu5irVz8uP3u0TsrKOliba18g06bfIKtW1oruy8aRvkC67ZF+ipyJAAIIIIBAc4GkARs70zt3FVxwUQH6Af3Aq36QSYCge7RNm3Gj/V7by6+8IjXWe22zbrlR3n7717Lqp4/IjOmTZfv2X1grRH5s/XtKys/HgwcPSps2bTgvTiCT9uC5wXPDq+cG+SZ/bHFfcl8G4f5ghC3lVw9OQAABBPwjkEmAoKVOfK/tmGOOkn37PpDjv/51mTXzJnuBkY8++rN85Sv/4Z9KBqgkmbZHgKpGURFAAAEEfCJAwOaThqAYCERFgEVHcmvpXAKExn37pK5ujbz+xpvStUsXa6GRUbkVhqsll/aADwEEEEAAgXQECNjSUeIcBBBwTYBFR3KjJEDIzc/tq2kPt0VJDwEEEEAgUYCAjT6BAAIIBEiAAMFfjUV7+Ks9KA0CCCAQRgECtjC2KnVCAIHQChAg+KtpaQ9/tQelQQABBMIoQMAWxlalTgggEFoBAgR/NS3t4a/2oDQIIIBAGAUI2MLYqtQJAR8LsOhIbo2TSYBgzk3Mcfu2jVLSrl2rBdEFSrr36COPPLxC2rU7psW/00kjnZq+8OJLcsGFIyRVelqX+fPmSv9z+sWSNde++84b6WSVl3MyaY+8FIBEEUAAAQRCL0DAFvompoII+EuARUdya49MAgSnIOeGG2+W3/++QWoeWErAlltT2Fdn0h4uZEcSCCCAAAIRFCBgi2CjU2UEEAiuQCYBQrqjUvEjcTqi1uWUzpJqhG34sAtl5aqHbcj4ka9165+UiVdPigHreTf/6IbY/47PS0fGEkfYqkaPkfd//3vZVP9ks0ZKpy5Llt4nc++YF7sucUQuPm8zomfy79H9e7Jt+7OS6WhdJu0R3F5HyRFAAAEEvBRIGrCx87tzs+CCiwrQD+gHXvWDTAKEdEbYelf0kyGDB8rlYy8VE2xpMKNH4pTIh3/6oJSUtLN/rgGOjtIlBlyap553apdTmqWnUzA1r4lXXWlPa9TgqqGhQc4779zYlMglS+61840P8PR/Hzx4UE7ocFKrUyJNgGkCrsT/rXmfP2SQjB1ziaxd94Rcfc1kOzgz5U8M7ky+bdq0afUzOpP24LnBc8Or5wb5Jr+NuS+5L4NwfzDC5mW4TN4IIIBAhgKZBAjJ3mFLDGri3x8zQVWXLp1bfYfNjMRp8XVUrLy8q5x77tnN3o0zQZOmv2/fB3ZgFj+Cpb83P9eROKdgzfCkGmGLzyvx/Tynd91MPTUATecdumTNlEl7ZNjUnI4AAggggIAtQMBGR0AAgYIKsOhIbtyZBAjxQY4JaOJHkpwCmfjgK91FR8w1OnqVOC1Ra5ssYNPfmTKYKZbJpiTGj84ZwcTym/9tfm/qmvhz8/tJ110tXbt2IWDLrUtyNQIIIIBAngUI2PIMTPIIINBcgEVHcusR2QZsmmv8lEfdIzIoAAAOSklEQVQdhXIalcpmhC3ZaFWqEbb4gE2DurVrn5DGxsYWUyL1PKeATesz/66ftHjfTc9PzHvylBmO56W7SmWyVsukPXJrea5GAAEEEIiqAAFbVFueeiOAgK8E7lpwt/VOV6NMGD9O2rcvTVq2TAIEp2mEOhqmh1klMv7drlTvsMUv8W8WE4kPeBKnPWpeupCHmXKp5TFTKXUk7meP1smc2bOajXDFnxOPYEbu4kfgEsseH7w5vcNm3p8zZday6MGUSF/dChQGAQQQQCBBgICNLoEAAgj4QEADtgULF9klGTzovKSBW64BmwlkdDqgTmHUI9dVIhPfZ9MgTQ+dkqhBlAmUTN6G22mVSBM0Ok2N1C0JzMqUmkbiCpSJv48vV2I9E6dLptoHLlkXyaQ9fNDNKAICCCCAQAAFCNgC2GgUGYGgC+zfv9+uQnFxcdCr4mr59+5tEA3c6h5bkzRwI0BwlTznxGiPnAlJAAEEEEAghQABG10EAQQKLtCjV4Wd57Yt9QXPOwgZtha4ESD4qwVpD3+1B6VBAAEEwihAwBbGVqVOCPhc4JaZt9klvL56ms9L6m3xnAK3R1c/JoccckjGGzx7W5Pw5k7AFt62pWYIIICAXwQI2PzSEpQDgQgL1NQsl7us97fWr10dW3CDn1kLg/zL5d6ld8sjP1sdmyqpXSXZ8vcR7kaeVJ2AzRN2MkUAAQQiJZA0YGPnd+d+gAsuKkA/cLcf2IGJ9e7W+nV1zQK2efMXypNPPN48iIvgeffes8heUXF13eMx+HQCtoMHD0qbNm1SfqhxnjNROi6ZBGw8N9x9biTr2DjjzOd08sc+90cw7w9G2FJ+leEEBBBAwBsBnRKpK0eaQG3QwAH2v5kS6U17OOWaScDmn1JTEgQQQACBIAkQsAWptSgrAghEQsApULtqwhX2SKMXAULicvzHHfc1x02oc2kcszeajhya/BKX5c8l/Xxd60V75KsupIsAAggg4E8BAjZ/tgulQgCBCAq0FqgZjkIHCPGbTHc5pbNdDLPp9ab6J11rpfiAzbVEC5BQodujAFUiCwQQQAABnwkQsPmsQSgOAghEUyB+42yd+mhG1BI1Ch0g9K7oJ+cPGRTbZNuUR38+Z/Ys+39ecOEI6dH9e6IbZpt36+I3447flNpsjG3SMZtfm/N19O7B5fdL9x59JH6ErbXNvTUNs6F2/IbghehJhW6PQtSJPBBAAAEE/CVAwOav9qA0CCAQUQEN2HSELVmgZlgKGSCkMzXRjIzNnzdX+p/Tzy5mfJBnArT4QM4EYuZ3GtDt2/eBHfg5TYl0Sk+v0UMDOxP0JeZViK5UyPYoRH3IAwEEEEDAfwIEbP5rE0qEAAIIJBUoZIBgArb4EbLEgpmAzZzjNLVRA66JV10pXbp0lpJ27WJJxKefLGBr1+4YOyiLL0N8evG/S6e8bnetQraH22UnPQQQQACBYAgQsAWjnSglAgggYAsUOkDQ/Fpb/CNZwJbYXGaqor7/NveOec1+3doIm55oRt7MRVWjx0h5eVc599yzmwVzBGzcJAgggAACYRQgYAtjq1InBBAIrUChAzYTHI0dc0kzU/35oEEDpKSknR1QxY+wTZ4yw3EVycTgjhG20HZTKoYAAggg4KIAAZuLmCSFAAII5Fug0AFbqlUiE4Mwrb+ZsqjvtMVfnzhapkGfLlSS6ztsJlhkhC3fvY/0EUAAAQS8EEgasLETunNz4IKLCtAP6Ade9YNMAraDBw9KmzZtUn62pDrPBF0mofh92JwCNk3vhA4nxfKNX5DEBGn6y3l3zhFdbEXfb9PgztRNA7D4VSIT0zNTNBMDtL0NDdKzV99m77s5VT5Vfc016ZyXSXvw3OC54dVzg3yTPwa5L7kvg3B/MMKW8qsMJyCAAAL+EcgkQPBPqcNbEtojvG1LzRBAAAG/CBCw+aUlKAcCCCCQhgABQhpIBTyF9iggNlkhgAACERUgYItow1NtBBAIpgABgr/ajfbwV3tQGgQQQCCMAgRsYWxV6oQAAqEVIEDwV9PSHv5qD0qDAAIIhFGAgC2MrUqdEEAgtAIECP5qWtrDX+1BaRBAAIEwChCwhbFVqRMCCIRWgADBX01Le/irPSgNAgggEEYBArYwtip1QgCB0AoQIPiraWkPf7UHpUEAAQTCKEDAFsZWpU4IIBBaAQIEfzUt7eGv9qA0CCCAQBgFCNjC2KrUCQEEQitAgOCvpqU9/NUelAYBBBAIo0DSgI2d352bGxdcVIB+QD/wqh9kEiAcPHhQ2rRpk/Kzi/OcidJxyaQ9eG7w3PDquUG+yR+D3Jfcl0G4PxhhS/lVhhMQQAAB/whkEiC4Werfvf++fO2rX3VM8tfvvivf/MY33MwuMGl51R6BAaKgCCCAAAI5CxCw5UxIAggggEDhBLwIEJYtXykLFt4tIy8aLldNuKJZZRctXio1tQ/KiOFDW/yucCre5eRFe3hXW3JGAAEEEPBCgIDNC3XyRAABBLIUKGSA8Nlnn0nV6DFy/PFfly9/+UjR/20CtoaGRrn8ignSs0d3OfTQQ5v9LsuqBfKyQrZHIIEoNAIIIIBAzgIEbDkTkgACCCBQOIFCBQhbtmyTSy4bJw/cv0R6dP+eNcK2KBaUPVCzTGqXrZBFd98lJ36rU7PfFU7CHzkVqj38UVtKgQACCCDghQABmxfq5IkAAghkKVCIAOGGG2+RxsZGue/exbFSasD2l798Ki++9JKcfPJ3ZMa0yc1+Fz/6lmXVAnlZIdojkDAUGgEEEEDANQECNtcoSQgBBBDIv0A+A4S3335HLht7pVxycaX9Tlr8cc21k+XnGzbL8mX3SpdTOjf7XfzoW/4F/JVDPtvDXzWlNAgggAACXgkQsHklT74IIIBAFgL5DBBWrXpYnvr5Bnlw2f0tSnbtpGny1FM/l2U190rXrl0I2P4lkM/2yKJ7cAkCCCCAQAgFCNhC2KhUCQEEwiuQ7wBh8zNbZMzY8dZ0yEX2giLm0FG0v/71r/LSS6/IiSd2kuoZU5v9jimRb4S301EzBBBAAAFPBQjYPOUncwQQQCAzgXwHbFoa3TD6kkvHybFfbS8/urHaLmD8tMdaaxn/+x9YJosW3SUnnfgtFh2xfN59h4Ats57M2QgggAAC6QokDdjY+d2ZEBdcVIB+QD/wqh+YgO2lF34lxcXFrT7rNfBq06ZNys+DZOetWPGQ3Ht/jdx3zyJ56ukNdiA38aor7fQaG/fJ5eMmSPfup8sXvvCFZsv655pvYoH9mt7+/fulc5fv2sVNJ2DjucFzw6vnBvkmfwxyX3JfBuH+YIQt5VcZTkAAAQT8I9C9Zx87WFq5okZOK++W94LpfmsXX3q5HH30UXJK55MdNs6+R2pqlsuIEdHbOPu5HTtl+IgqKSvrIE+sq8t7W5ABAggggEA0BQjYotnu1BoBBAIqoO+Xbdy0WSaMH9cieMpnlSZNmSGjRg63911LPN599zfyjW8cn8/sfZn2XQvutqeD9ul9pixdstCXZaRQCCCAAALBFyBgC34bUgMEEIiQwKOrH5MpU6ulvLyrrFpRG6Ga+6+qw0ZUyo4du2T27TNlyOCB/isgJUIAAQQQCIUAAVsompFKIIBAVAT0vakePSuk6cABWbxogfSt6B2VqvuqniZwLmrbVrZtrU/5PqGvCk9hEEAAAQQCJUDAFqjmorAIIICAiJmKV1RUJOvXrpb27UthKaDA3r0Ncs65g6WpqangU1MLWE2yQgABBBDwiQABm08agmIggAAC6QroKNvQ4ZWyZ89b0rFjmSyxRtoI2tLVy+08DdbGWqtj7t69x15s5KGVtYyu5UbK1QgggAACKQQI2OgiCCCAQAAF4qdG6kjbnNmzmB6Z53bUaZAzZ822R9aYCplnbJJHAAEEEIgJELDRGRBAAIGACsSPtGkVdCESXepf/9vRGv1JtU9bQKtdsGKr725rFFMXFtEl/PW/ejCyVrAmICMEEEAAAUuAgI1ugAACCARYQIOKmtoH7b3QdCESjvwJ6KhaVdVIqaq8iGA4f8ykjAACCCCQIPD/t3dHpwoDURBA00esRrBpg1ajfcgK/u1+DQMRzitgeBzv3jCskmVh8+b3+axw4TIEzIE5ONscjOJ2Px7bcTy31/v9/X2bv1xg3KZd9n273a7fr5zObi3tA/vgbPtg9omYU3NqTtfPhLOfDzds+fNcAgECBAgQIECAAAECBCoCCluFVSgBAgQIECBAgAABAgRyAYUtN5RAgAABAgQIECBAgACBioDCVmEVSoAAAQIECBAgQIAAgVxAYcsNJRAgQIAAAQIECBAgQKAioLBVWIUSIECAAAECBAgQIEAgF1DYckMJBAgQIECAAAECBAgQqAgobBVWoQQIECBAgAABAgQIEMgFFLbcUAIBAgQIECBAgAABAgQqAsvCdvY3fvv/5vPAhcsQMAfmwBysn5nOh/PhfDgfPwH7wD74h33ghq3Sg4USIECAAAECBAgQIEAgF1DYckMJBAgQIECAAAECBAgQqAgobBVWoQQIECBAgAABAgQIEMgFFLbcUAIBAgQIECBAgAABAgQqAgpbhVUoAQIECBAgQIAAAQIEcgGFLTeUQIAAAQIECBAgQIAAgYqAwlZhFUqAAAECBAgQIECAAIFcQGHLDSUQIECAAAECBAgQIECgIqCwVViFEiBAgAABAgQIECBAIBdYFjZvfp/jcuEyBMyBOTAH6weQ8+F8OB/Ox0/APrAP7IN8H7hhy0uvBAIECBAgQIAAAQIECFQEFLYKq1ACBAgQIECAAAECBAjkAgpbbiiBAAECBAgQIECAAAECFQGFrcIqlAABAgQIECBAgAABArmAwpYbSiBAgAABAgQIECBAgEBF4AM1rkhAY5hGewAAAABJRU5ErkJggg==;" vertex="1" parent="1">
          <mxGeometry x="4794" y="1436" width="876" height="449" as="geometry" />
        </mxCell>
        <mxCell id="WF0BPh4e2S1r3RLNXFHs-203" value="" style="endArrow=classic;html=1;rounded=0;exitX=1;exitY=1;exitDx=0;exitDy=0;entryX=0;entryY=0.5;entryDx=0;entryDy=0;" edge="1" parent="1" source="WF0BPh4e2S1r3RLNXFHs-180" target="WF0BPh4e2S1r3RLNXFHs-202">
          <mxGeometry width="50" height="50" relative="1" as="geometry">
            <mxPoint x="3100" y="2472" as="sourcePoint" />
            <mxPoint x="3490" y="1790" as="targetPoint" />
          </mxGeometry>
        </mxCell>
        <mxCell id="WF0BPh4e2S1r3RLNXFHs-204" value="" style="endArrow=classic;html=1;rounded=0;exitX=1;exitY=0;exitDx=0;exitDy=0;entryX=0;entryY=0.5;entryDx=0;entryDy=0;" edge="1" parent="1" source="WF0BPh4e2S1r3RLNXFHs-180" target="WF0BPh4e2S1r3RLNXFHs-201">
          <mxGeometry width="50" height="50" relative="1" as="geometry">
            <mxPoint x="4002" y="1446" as="sourcePoint" />
            <mxPoint x="4804" y="1671" as="targetPoint" />
          </mxGeometry>
        </mxCell>
        <mxCell id="WF0BPh4e2S1r3RLNXFHs-205" value="&lt;div&gt;Card purchase BPMN Workflow Diagram&lt;br&gt;&lt;/div&gt;" style="text;html=1;align=center;verticalAlign=middle;whiteSpace=wrap;rounded=0;fillColor=#f9f7ed;strokeColor=#36393d;" vertex="1" parent="1">
          <mxGeometry x="4710" y="1110" width="240" height="40" as="geometry" />
        </mxCell>
        <mxCell id="WF0BPh4e2S1r3RLNXFHs-206" value="&lt;div&gt;User Creation BPMN Workflow Diagram&lt;br&gt;&lt;/div&gt;" style="text;html=1;align=center;verticalAlign=middle;whiteSpace=wrap;rounded=0;fillColor=#f9f7ed;strokeColor=#36393d;" vertex="1" parent="1">
          <mxGeometry x="4800" y="1840" width="240" height="40" as="geometry" />
        </mxCell>
      </root>
    </mxGraphModel>
  </diagram>
</mxfile>
